<svg width="325" height="104" viewBox="0 0 325 104" fill="none" xmlns="http://www.w3.org/2000/svg">
<path d="M47.3207 35.4431L65.2482 48.1149L45.0501 64.16C52.272 57.5757 38.3807 49.7678 47.3207 35.4431Z" fill="#00A4DD"/>
<path d="M34.9815 103.037L81.0204 60.1817C82.0337 59.2387 81.8913 57.596 80.7323 56.8422L47.3749 35.4803C57.7247 50.3999 56.9216 52.0629 46.4938 62.6897C36.8082 72.5595 36.432 72.7318 32.677 76.9569C22.212 88.7228 34.9815 103.037 34.9815 103.037Z" fill="url(#paint0_linear_2_571)"/>
<path d="M34.3782 67.5942L16.4507 54.9224L36.6488 38.8773C29.4303 45.465 43.3216 53.2696 34.3782 67.5942Z" fill="#FFBE08"/>
<path d="M46.7174 0L0.678566 42.8556C-0.334729 43.7986 -0.192394 45.4413 0.966626 46.1951L33.7682 67.5908C23.4184 52.6712 24.774 50.9745 35.2052 40.3476C44.8908 30.4779 45.2669 30.3055 49.0219 26.0804C59.4903 14.3145 46.7174 0 46.7174 0Z" fill="url(#paint1_linear_2_571)"/>
<path d="M93.8035 58.8129L97.6059 54.2836C100.036 56.2136 102.747 57.2344 105.597 57.2344C107.427 57.2344 108.413 56.6023 108.413 55.5477V55.4767C108.413 54.4594 107.603 53.8983 104.258 53.1242C99.0123 51.9311 94.9659 50.4574 94.9659 45.4008V45.3299C94.9659 40.7668 98.592 37.4645 104.506 37.4645C108.694 37.4645 111.968 38.5867 114.645 40.7296L111.229 45.5394C108.976 43.9609 106.512 43.1159 104.33 43.1159C102.676 43.1159 101.866 43.819 101.866 44.6944V44.7654C101.866 45.8876 102.71 46.381 106.126 47.1517C111.792 48.382 115.313 50.2073 115.313 54.8075V54.8785C115.313 59.9012 111.334 62.8858 105.35 62.8858C100.985 62.8858 96.8298 61.5169 93.8035 58.8129Z" fill="white"/>
<path d="M118.621 37.8837H125.839L131.719 47.3985L137.599 37.8837H144.817V62.4634H138.023V48.3483L131.723 57.9679H131.58L125.314 48.4159V62.46H118.624V37.8837H118.621Z" fill="white"/>
<path d="M157.695 37.7079H164.28L174.772 62.4633H167.449L165.653 58.0727H156.147L154.388 62.4633H147.207L157.695 37.7079ZM163.68 52.7728L160.935 45.7862L158.153 52.7728H163.68Z" fill="white"/>
<path d="M177.161 37.8837H188.813C192.581 37.8837 195.184 38.8673 196.841 40.5539C198.285 41.96 199.024 43.8528 199.024 46.2763V46.3473C199.024 50.1059 197.017 52.597 193.954 53.8949L199.833 62.4634H191.947L186.983 55.0205H186.911H183.99V62.4634H177.161V37.8837V37.8837ZM188.497 49.6834C190.822 49.6834 192.157 48.5612 192.157 46.7698V46.6988C192.157 44.7688 190.748 43.7852 188.46 43.7852H183.99V49.6834H188.497Z" fill="white"/>
<path d="M208.492 43.8528H201.101V37.8837H222.716V43.8528H215.321V62.4634H208.492V43.8528Z" fill="white"/>
<path d="M235.916 54.5642H231.022V62.4634H226.691V37.8837H236.407C242.145 37.8837 245.771 41.115 245.771 46.1344C245.774 51.6844 241.338 54.5642 235.916 54.5642ZM236.058 41.818H231.022V50.667H236.058C239.332 50.667 241.375 48.8756 241.375 46.2425C241.375 43.3255 239.298 41.818 236.058 41.818Z" fill="white"/>
<path d="M266.016 62.4634L259.96 53.8949H254.538V62.4634H250.207V37.8837H261.19C266.857 37.8837 270.344 40.8682 270.344 45.6781C270.344 49.751 267.914 52.2083 264.464 53.1581L271.117 62.4634H266.016V62.4634ZM260.841 41.818H254.538V50.0687H260.875C263.973 50.0687 265.945 48.4531 265.945 45.9248C265.945 43.2208 264.044 41.818 260.841 41.818Z" fill="white"/>
<path d="M287.417 62.8858C279.85 62.8858 274.566 57.1634 274.566 50.2106C274.566 43.2579 279.918 37.4645 287.485 37.4645C295.053 37.4645 300.336 43.1869 300.336 50.1397C300.336 57.0924 294.988 62.8858 287.417 62.8858ZM287.417 41.4293C282.524 41.4293 279.108 45.3265 279.108 50.1363C279.108 54.9461 282.595 58.9143 287.485 58.9143C292.375 58.9143 295.795 55.0171 295.795 50.2073C295.798 45.3975 292.311 41.4293 287.417 41.4293Z" fill="white"/>
<path d="M314.807 54.5642H309.913V62.4634H305.582V37.8837H315.298C321.036 37.8837 324.662 41.115 324.662 46.1344C324.662 51.6844 320.229 54.5642 314.807 54.5642ZM314.946 41.818H309.913V50.667H314.946C318.22 50.667 320.263 48.8756 320.263 46.2425C320.263 43.3255 318.186 41.818 314.946 41.818Z" fill="white"/>
<path d="M102.838 80.1915H100.788V70.5246H97.1144V68.6453H106.512V70.5246H102.838V80.1915V80.1915Z" fill="white"/>
<path d="M119.397 80.1916L116.55 76.1659H114.002V80.1916H111.968V68.642H117.13C119.793 68.642 121.43 70.0447 121.43 72.3059C121.43 74.219 120.288 75.375 118.668 75.8212L121.796 80.195H119.397V80.1916ZM116.964 70.4909H114.002V74.3678H116.981C118.434 74.3678 119.363 73.6072 119.363 72.4209C119.363 71.15 118.468 70.4909 116.964 70.4909Z" fill="white"/>
<path d="M138.317 80.1915H136.165L134.989 77.403H129.513L128.323 80.1915H126.239L131.333 68.5608H133.217L138.317 80.1915ZM132.248 70.9843L130.262 75.6048H134.247L132.248 70.9843Z" fill="white"/>
<path d="M147.928 80.1916H143.611V68.642H147.928C151.568 68.642 154.083 71.1331 154.083 74.4016C154.083 77.6667 151.568 80.1916 147.928 80.1916ZM147.928 70.4909H145.644V78.3461H147.928C150.358 78.3461 151.948 76.7135 151.948 74.4354C151.948 72.1572 150.358 70.4909 147.928 70.4909Z" fill="white"/>
<path d="M168.438 70.457H161.887V73.4585H167.693V75.2736H161.887V78.3765H168.52V80.1916H159.851V68.642H168.435V70.457H168.438Z" fill="white"/>
<path d="M181.669 80.1916L178.822 76.1659H176.273V80.1916H174.24V68.642H179.401C182.065 68.642 183.702 70.0447 183.702 72.3059C183.702 74.219 182.56 75.375 180.94 75.8212L184.068 80.195H181.669V80.1916ZM179.239 70.4909H176.277V74.3678H179.256C180.709 74.3678 181.638 73.6072 181.638 72.4209C181.638 71.15 180.743 70.4909 179.239 70.4909Z" fill="white"/>
<defs>
<linearGradient id="paint0_linear_2_571" x1="28.5554" y1="69.2587" x2="81.6997" y2="69.2587" gradientUnits="userSpaceOnUse">
<stop stop-color="#153E6C"/>
<stop offset="1" stop-color="#0080B7"/>
</linearGradient>
<linearGradient id="paint1_linear_2_571" x1="0.00131831" y1="33.7959" x2="53.1456" y2="33.7959" gradientUnits="userSpaceOnUse">
<stop stop-color="#C5161E"/>
<stop offset="1" stop-color="#FBC024"/>
</linearGradient>
</defs>
</svg>
