<?xml version="1.0" encoding="utf-8"?>
<!-- Generator: Adobe Illustrator 26.0.3, SVG Export Plug-In . SVG Version: 6.00 Build 0)  -->
<svg version="1.1" id="Layer_1" xmlns="http://www.w3.org/2000/svg" xmlns:xlink="http://www.w3.org/1999/xlink" x="0px" y="0px"
	 viewBox="0 0 1440 900" style="enable-background:new 0 0 1440 900;" xml:space="preserve">
<style type="text/css">
	.st0{clip-path:url(#SVGID_00000087373724739005681210000001964949100275248787_);}
	.st1{fill:#1E1E1E;}
	.st2{fill:url(#SVGID_00000005958999990822633350000011760074733725439366_);}
	.st3{fill:url(#SVGID_00000007393778581703301770000006566276015218063523_);}
	.st4{fill:#00A4DD;}
	.st5{fill:#FFBE08;}
</style>
<g>
	<defs>
		<rect id="SVGID_1_" width="1440" height="900"/>
	</defs>
	<clipPath id="SVGID_00000004510003875522330250000006549214539823184036_">
		<use xlink:href="#SVGID_1_"  style="overflow:visible;"/>
	</clipPath>
	<g style="clip-path:url(#SVGID_00000004510003875522330250000006549214539823184036_);">
		<rect class="st1" width="1440" height="900"/>
		<g>
			
				<linearGradient id="SVGID_00000149361355195065307950000009289041712066657725_" gradientUnits="userSpaceOnUse" x1="1207.9988" y1="601" x2="1111.9968" y2="601" gradientTransform="matrix(1 0 0 -1 0 902)">
				<stop  offset="0" style="stop-color:#C5161E"/>
				<stop  offset="1" style="stop-color:#FBC024"/>
			</linearGradient>
			<path style="fill:url(#SVGID_00000149361355195065307950000009289041712066657725_);" d="M1189,342.6
				c11.7,12,15.8,16.4,10.5,27.4c13.1-19.6,10.6-22.6-4.3-37.9c-14.5-14.9-65.2-65.8-70.8-72.1c-8.4-9.5-6.8-20.2-3.5-28
				c-3.3,4.1-16.6,22.8-2.8,38.4C1123.8,276.8,1174.5,327.7,1189,342.6z"/>
		</g>
		<g>
			
				<linearGradient id="SVGID_00000052101136503421211450000007009161232933160104_" gradientUnits="userSpaceOnUse" x1="691.3918" y1="50.7233" x2="648.2394" y2="34.7913" gradientTransform="matrix(1 0 0 -1 0 902)">
				<stop  offset="0" style="stop-color:#1B5AA0"/>
				<stop  offset="1" style="stop-color:#0080B7"/>
			</linearGradient>
			<path style="fill:url(#SVGID_00000052101136503421211450000007009161232933160104_);" d="M679.2,873.2
				c15.2,7.3,20.6,10.1,19.5,22.3c5.5-23.1,2-25.1-17.3-34.3c-18.8-9-19.4-9.1-27-13.1c-11.3-6.1-13.4-16.7-13-25.3
				c-1.6,5-7.7,27.3,10.8,37.3C659.7,864.2,660.3,864.2,679.2,873.2z"/>
		</g>
		<g>
			<circle class="st4" cx="819.5" cy="70.5" r="7.5"/>
		</g>
		<g>
			<circle class="st4" cx="184.5" cy="200.5" r="7.5"/>
		</g>
		<g>
			<circle class="st5" cx="359.5" cy="626.5" r="7.5"/>
		</g>
		<g>
			<circle class="st5" cx="207.5" cy="224.5" r="7.5"/>
		</g>
	</g>
</g>
</svg>
