<?xml version="1.0" encoding="utf-8"?>
<!-- Generator: Adobe Illustrator 27.5.0, SVG Export Plug-In . SVG Version: 6.00 Build 0)  -->
<svg version="1.1" xmlns="http://www.w3.org/2000/svg" xmlns:xlink="http://www.w3.org/1999/xlink" x="0px" y="0px"
	 viewBox="0 0 500 500" style="enable-background:new 0 0 500 500;" xml:space="preserve">
<g id="Background_Complete">
	<g>
		<rect x="416.779" y="398.494" style="fill:#D4AF37;" width="33.122" height="0.25"/>
		<rect x="322.527" y="401.208" style="fill:#D4AF37;" width="8.693" height="0.25"/>
		<rect x="396.586" y="389.208" style="fill:#D4AF37;" width="19.192" height="0.25"/>
		<rect x="52.459" y="390.888" style="fill:#D4AF37;" width="43.193" height="0.25"/>
		<rect x="104.556" y="390.888" style="fill:#D4AF37;" width="6.333" height="0.25"/>
		<rect x="131.471" y="395.111" style="fill:#D4AF37;" width="93.676" height="0.25"/>
		<path style="fill:#D4AF37;" d="M237.014,337.8H43.915c-3.147,0-5.708-2.561-5.708-5.708V60.66c0-3.147,2.561-5.708,5.708-5.708
			h193.099c3.146,0,5.707,2.561,5.707,5.708v271.432C242.721,335.239,240.16,337.8,237.014,337.8z M43.915,55.203
			c-3.01,0-5.458,2.448-5.458,5.458v271.432c0,3.01,2.448,5.458,5.458,5.458h193.099c3.009,0,5.457-2.448,5.457-5.458V60.66
			c0-3.009-2.448-5.458-5.457-5.458H43.915z"/>
		<path style="fill:#D4AF37;" d="M453.31,337.8H260.212c-3.147,0-5.707-2.561-5.707-5.708V60.66c0-3.147,2.561-5.708,5.707-5.708
			H453.31c3.148,0,5.708,2.561,5.708,5.708v271.432C459.019,335.239,456.458,337.8,453.31,337.8z M260.212,55.203
			c-3.009,0-5.457,2.448-5.457,5.458v271.432c0,3.01,2.448,5.458,5.457,5.458H453.31c3.01,0,5.458-2.448,5.458-5.458V60.66
			c0-3.009-2.448-5.458-5.458-5.458H260.212z"/>
		<rect y="382.398" style="fill:#D4AF37;" width="500" height="0.25"/>
	</g>
	<g>
		<g>
			
				<rect x="106.599" y="86.282" transform="matrix(-1 -1.224647e-16 1.224647e-16 -1 288.1726 382.5943)" style="fill:#F5F5F5;" width="74.974" height="210.031"/>
			<g>
				<polygon style="fill:#FAFAFA;" points="113.946,86.282 138.946,86.282 166.296,296.013 141.296,296.013 				"/>
			</g>
			<g>
				<path style="fill:#F0F0F0;" d="M102.86,82.334h82.643v217.311H102.86V82.334z M179.202,88.634H109.16v204.711h70.043V88.634z"/>
			</g>
		</g>
		<g>
			
				<rect x="212.418" y="86.282" transform="matrix(-1 -1.224647e-16 1.224647e-16 -1 499.8102 382.5943)" style="fill:#F5F5F5;" width="74.974" height="210.031"/>
			<g>
				<polygon style="fill:#FAFAFA;" points="219.765,86.282 244.765,86.282 272.115,296.013 247.115,296.013 				"/>
			</g>
			<g>
				<path style="fill:#F0F0F0;" d="M208.679,82.334h82.643v217.311h-82.643V82.334z M285.021,88.634h-70.043v204.711h70.043V88.634z
					"/>
			</g>
		</g>
		<g>
			
				<rect x="318.237" y="86.282" transform="matrix(-1 -1.224647e-16 1.224647e-16 -1 711.4478 382.5943)" style="fill:#F5F5F5;" width="74.974" height="210.031"/>
			<g>
				<polygon style="fill:#FAFAFA;" points="325.584,86.282 350.584,86.282 377.934,296.013 352.934,296.013 				"/>
			</g>
			<g>
				<path style="fill:#F0F0F0;" d="M314.497,82.334h82.643v217.311h-82.643V82.334z M390.84,88.634h-70.043v204.711h70.043V88.634z"
					/>
			</g>
		</g>
	</g>
	<g>
		<g>
			<g>
				<rect x="150.557" y="313.119" style="fill:#D4AF37;" width="89.993" height="31.064"/>
				<rect x="150.557" y="344.183" style="fill:#D4AF37;" width="89.993" height="31.064"/>
				<g>
					<polygon style="fill:#F5F5F5;" points="184.755,344.183 195.952,313.119 178.719,313.119 167.522,344.183 					"/>
					<polygon style="fill:#F5F5F5;" points="204.292,313.119 200.506,313.119 189.309,344.183 193.094,344.183 					"/>
				</g>
				<g>
					<polygon style="fill:#F5F5F5;" points="173.558,375.247 184.755,344.183 167.522,344.183 156.325,375.247 					"/>
					<polygon style="fill:#F5F5F5;" points="193.095,344.183 189.309,344.183 178.112,375.247 181.898,375.247 					"/>
				</g>
				
					<rect x="193.982" y="271.329" transform="matrix(-1.836970e-16 1 -1 -1.836970e-16 511.8787 120.772)" style="fill:#E0E0E0;" width="3.143" height="89.993"/>
				
					<rect x="193.982" y="302.15" transform="matrix(-1.836970e-16 1 -1 -1.836970e-16 542.7003 151.5936)" style="fill:#E0E0E0;" width="3.143" height="89.993"/>
				<path style="fill:#F5F5F5;" d="M148.985,311.727v64.878h1.572h1.572h86.85h1.571h1.571v-64.878H148.985z M238.979,373.462
					h-86.85v-27.636h86.85V373.462z M238.979,342.683h-86.85v-27.636h86.85V342.683z"/>
				<g>
					<rect x="243.693" y="313.119" style="fill:#D4AF37;" width="89.993" height="31.064"/>
					<rect x="243.693" y="344.183" style="fill:#D4AF37;" width="89.993" height="31.064"/>
					<g>
						<polygon style="fill:#F5F5F5;" points="287.288,344.183 298.485,313.119 281.252,313.119 270.055,344.183 						"/>
						<polygon style="fill:#F5F5F5;" points="306.825,313.119 303.039,313.119 291.843,344.183 295.628,344.183 						"/>
					</g>
					<g>
						<polygon style="fill:#F5F5F5;" points="276.091,375.247 287.288,344.183 270.055,344.183 258.858,375.247 						"/>
						<polygon style="fill:#F5F5F5;" points="295.628,344.183 291.843,344.183 280.646,375.247 284.431,375.247 						"/>
					</g>
					
						<rect x="287.118" y="271.329" transform="matrix(-1.836970e-16 1 -1 -1.836970e-16 605.0148 27.636)" style="fill:#E0E0E0;" width="3.143" height="89.993"/>
					
						<rect x="287.118" y="302.15" transform="matrix(-1.836970e-16 1 -1 -1.836970e-16 635.8363 58.4575)" style="fill:#E0E0E0;" width="3.143" height="89.993"/>
					<path style="fill:#F5F5F5;" d="M242.121,311.727v64.878h1.571h1.572h86.85h1.572h1.571v-64.878H242.121z M332.115,373.462
						h-86.85v-27.636h86.85V373.462z M332.115,342.683h-86.85v-27.636h86.85V342.683z"/>
				</g>
				<g>
					<rect x="336.828" y="313.119" style="fill:#D4AF37;" width="89.993" height="31.064"/>
					<rect x="336.828" y="344.183" style="fill:#D4AF37;" width="89.993" height="31.064"/>
					<g>
						<polygon style="fill:#F5F5F5;" points="375.128,344.183 386.325,313.119 369.092,313.119 357.896,344.183 						"/>
						<polygon style="fill:#F5F5F5;" points="394.665,313.119 390.88,313.119 379.683,344.183 383.468,344.183 						"/>
					</g>
					<g>
						<polygon style="fill:#F5F5F5;" points="363.931,375.247 375.128,344.183 357.896,344.183 346.698,375.247 						"/>
						<polygon style="fill:#F5F5F5;" points="383.468,344.183 379.683,344.183 368.486,375.247 372.271,375.247 						"/>
					</g>
					
						<rect x="380.253" y="271.329" transform="matrix(-1.836970e-16 1 -1 -1.836970e-16 698.1501 -65.4995)" style="fill:#E0E0E0;" width="3.143" height="89.993"/>
					
						<rect x="380.253" y="302.15" transform="matrix(-1.836970e-16 1 -1 -1.836970e-16 728.9717 -34.6779)" style="fill:#E0E0E0;" width="3.143" height="89.993"/>
					<path style="fill:#F5F5F5;" d="M335.257,311.727v64.878h1.571h1.572h86.85h1.571h1.572v-64.878H335.257z M425.25,373.462H338.4
						v-27.636h86.85V373.462z M425.25,342.683H338.4v-27.636h86.85V342.683z"/>
				</g>
			</g>
			<polygon style="fill:#E0E0E0;" points="419.389,381.279 157.99,381.279 156.629,376.605 420.749,376.605 			"/>
		</g>
		<g>
			<path style="fill:#E0E0E0;" d="M291.391,331.564c0,1.492-1.21,2.702-2.702,2.702c-1.492,0-2.702-1.21-2.702-2.702
				c0-1.492,1.21-2.702,2.702-2.702C290.182,328.862,291.391,330.072,291.391,331.564z"/>
			<path style="fill:#FAFAFA;" d="M291.391,330.802c0,1.492-1.21,2.702-2.702,2.702c-1.492,0-2.702-1.21-2.702-2.702
				c0-1.492,1.21-2.702,2.702-2.702C290.182,328.1,291.391,329.31,291.391,330.802z"/>
		</g>
		<g>
			<path style="fill:#E0E0E0;" d="M291.391,360.096c0,1.492-1.21,2.702-2.702,2.702c-1.492,0-2.702-1.21-2.702-2.702
				c0-1.492,1.21-2.702,2.702-2.702C290.182,357.395,291.391,358.604,291.391,360.096z"/>
			<path style="fill:#FAFAFA;" d="M291.391,359.334c0,1.492-1.21,2.702-2.702,2.702c-1.492,0-2.702-1.21-2.702-2.702
				c0-1.492,1.21-2.702,2.702-2.702C290.182,356.633,291.391,357.842,291.391,359.334z"/>
		</g>
		<g>
			<path style="fill:#E0E0E0;" d="M198.255,331.564c0,1.492-1.21,2.702-2.702,2.702s-2.702-1.21-2.702-2.702
				c0-1.492,1.21-2.702,2.702-2.702S198.255,330.072,198.255,331.564z"/>
			<path style="fill:#FAFAFA;" d="M198.255,330.802c0,1.492-1.21,2.702-2.702,2.702s-2.702-1.21-2.702-2.702
				c0-1.492,1.21-2.702,2.702-2.702S198.255,329.31,198.255,330.802z"/>
		</g>
		<g>
			<path style="fill:#E0E0E0;" d="M198.255,360.096c0,1.492-1.21,2.702-2.702,2.702s-2.702-1.21-2.702-2.702
				c0-1.492,1.21-2.702,2.702-2.702S198.255,358.604,198.255,360.096z"/>
			<path style="fill:#FAFAFA;" d="M198.255,359.334c0,1.492-1.21,2.702-2.702,2.702s-2.702-1.21-2.702-2.702
				c0-1.492,1.21-2.702,2.702-2.702S198.255,357.842,198.255,359.334z"/>
		</g>
		<g>
			<path style="fill:#E0E0E0;" d="M386.17,331.564c0,1.492-1.21,2.702-2.702,2.702s-2.702-1.21-2.702-2.702
				c0-1.492,1.21-2.702,2.702-2.702S386.17,330.072,386.17,331.564z"/>
			<path style="fill:#FAFAFA;" d="M386.17,330.802c0,1.492-1.21,2.702-2.702,2.702s-2.702-1.21-2.702-2.702
				c0-1.492,1.21-2.702,2.702-2.702S386.17,329.31,386.17,330.802z"/>
		</g>
		<g>
			<path style="fill:#E0E0E0;" d="M386.17,360.096c0,1.492-1.21,2.702-2.702,2.702s-2.702-1.21-2.702-2.702
				c0-1.492,1.21-2.702,2.702-2.702S386.17,358.604,386.17,360.096z"/>
			<path style="fill:#FAFAFA;" d="M386.17,359.334c0,1.492-1.21,2.702-2.702,2.702s-2.702-1.21-2.702-2.702
				c0-1.492,1.21-2.702,2.702-2.702S386.17,357.842,386.17,359.334z"/>
		</g>
	</g>
	<g>
		<polygon style="fill:#D4AF37;" points="106.841,303.115 107.491,337.493 105.541,337.493 105.726,303.115 		"/>
		<path style="fill:#E0E0E0;" d="M104.009,308.686c-0.137,0.108,0.495,0.697-2.328,0.693c-6.952-0.011-18.989-0.708-21.886-5.236
			c-4.136-6.465,10.682-5.43,10.534-8.93c-0.148-3.5-17.376-1.172-18.653-6.201c-1.277-5.029,10.107-3.707,10.527-6.261
			c0.421-2.554-13.158,0.357-15.23-4.999c-2.073-5.356,7.631-2.228,6.711-4.449c-0.92-2.221-11.158-11.662-4.855-13.505
			c6.304-1.842,15.567,7.97,19.419,9.108c3.853,1.137,8.348-8.072,12.74-4.81c4.392,3.262-4.568,17.098,1.268,19.028
			c4.347,1.438,3.609-3.642,9.506-3.267C119.772,280.366,114.999,300.004,104.009,308.686z"/>
		<polygon style="fill:#F5F5F5;" points="112.94,310.05 109.886,337.094 111.413,337.094 114.136,310.05 		"/>
		<polygon style="fill:#F5F5F5;" points="107.985,313.24 109.976,337.094 108.449,337.094 106.789,313.24 		"/>
		<g>
			<path style="fill:#E6E6E6;" d="M112.94,312.177c4.371,3.721,13.566,6.201,18.146,5.001c4.647-1.218-4.808-5.9-2.646-8.088
				c2.161-2.187,11.6,8.56,15.374,5.988c3.774-2.572-4.153-7.822-2.907-9.702c1.246-1.88,8.824,4.982,13.291,2.624
				c4.467-2.357-3.473-5.536-1.583-6.48c1.891-0.945,13.898-1.569,11.03-6.143c-2.868-4.574-14.482-3.186-17.573-4.516
				c-3.091-1.329-1.244-7.399-5.929-7.641c-4.685-0.243-7.24,13.524-12.044,11.644c-3.578-1.4,0.097-5.63-4.035-7.214
				C116.83,284.877,111.165,310.665,112.94,312.177z"/>
			<g style="opacity:0.3;">
				<path style="fill:#E6E6E6;" d="M112.94,312.177c4.371,3.721,13.566,6.201,18.146,5.001c4.647-1.218-4.808-5.9-2.646-8.088
					c2.161-2.187,11.6,8.56,15.374,5.988c3.774-2.572-4.153-7.822-2.907-9.702c1.246-1.88,8.824,4.982,13.291,2.624
					c4.467-2.357-3.473-5.536-1.583-6.48c1.891-0.945,13.898-1.569,11.03-6.143c-2.868-4.574-14.482-3.186-17.573-4.516
					c-3.091-1.329-1.244-7.399-5.929-7.641c-4.685-0.243-7.24,13.524-12.044,11.644c-3.578-1.4,0.097-5.63-4.035-7.214
					C116.83,284.877,111.165,310.665,112.94,312.177z"/>
			</g>
		</g>
		<g>
			<path style="fill:#D4AF37;" d="M107.853,313.9c-1.95,3.15-7.11,6.489-10.161,6.656c-3.096,0.17,1.789-4.575,0.029-5.492
				c-1.76-0.917-5.436,7.55-8.263,6.716c-2.827-0.835,1.007-5.626-0.13-6.535c-1.137-0.909-4.437,4.803-7.647,4.237
				c-3.21-0.566,1.04-4.087-0.308-4.294c-1.348-0.207-8.849,1.781-7.99-1.595c0.859-3.377,8.269-4.818,9.905-6.246
				c1.636-1.427-0.697-4.791,2.134-5.866c2.831-1.075,7.119,6.879,9.699,4.775c1.922-1.567-1.171-3.44,1.054-5.229
				C100.071,297.896,108.645,312.621,107.853,313.9z"/>
			<g style="opacity:0.3;">
				<path style="fill:#D4AF37;" d="M107.853,313.9c-1.95,3.15-7.11,6.489-10.161,6.656c-3.096,0.17,1.789-4.575,0.029-5.492
					c-1.76-0.917-5.436,7.55-8.263,6.716c-2.827-0.835,1.007-5.626-0.13-6.535c-1.137-0.909-4.437,4.803-7.647,4.237
					c-3.21-0.566,1.04-4.087-0.308-4.294c-1.348-0.207-8.849,1.781-7.99-1.595c0.859-3.377,8.269-4.818,9.905-6.246
					c1.636-1.427-0.697-4.791,2.134-5.866c2.831-1.075,7.119,6.879,9.699,4.775c1.922-1.567-1.171-3.44,1.054-5.229
					C100.071,297.896,108.645,312.621,107.853,313.9z"/>
			</g>
		</g>
		<path style="fill:#D4AF37;" d="M97.795,381.279c-5.691-10.702-8.87-43.812-4.607-47.412h33.397
			c4.263,3.6,1.084,36.71-4.607,47.412H97.795z"/>
	</g>
</g>
<g id="Background_Simple" style="display:none;">
	<g style="display:inline;">
		<path style="fill:#407BFF;" d="M307.481,368.071c32.655-10.371,129.282-37.928,129.48-110.783
			c0.207-75.924-56.484-88.04-133.497-78.438c-71.919,8.967-53.525-68.361-150.805-56.232
			c-82.365,10.269-140.447,135.406-39.652,218.758C174.204,391.982,270.573,379.793,307.481,368.071z"/>
		<path style="opacity:0.9;fill:#FFFFFF;" d="M307.481,368.071c32.655-10.371,129.282-37.928,129.48-110.783
			c0.207-75.924-56.484-88.04-133.497-78.438c-71.919,8.967-53.525-68.361-150.805-56.232
			c-82.365,10.269-140.447,135.406-39.652,218.758C174.204,391.982,270.573,379.793,307.481,368.071z"/>
	</g>
</g>
<g id="Shadow">
	<ellipse id="_x3C_Path_x3E__1_" style="fill:#F5F5F5;" cx="245.178" cy="412.391" rx="193.889" ry="11.323"/>
</g>
<g id="Device">
	<g>
		<g>
			<g>
				<path style="fill:#407BFF;" d="M380.431,94.345h-25.967l-26.186,299.31h25.967c12.036,0,22.647-9.757,23.7-21.793
					l22.373-255.723C401.371,104.102,392.467,94.345,380.431,94.345z"/>
				<g>
					<path style="fill:#407BFF;" d="M396.512,124.364c0.101-1.154,1.118-2.089,2.272-2.089c1.154,0,2.007,0.935,1.906,2.089
						l-1.754,20.053c-0.101,1.154-1.118,2.089-2.272,2.089c-1.154,0-2.007-0.935-1.906-2.089L396.512,124.364z"/>
					<path style="opacity:0.3;fill:#FFFFFF;" d="M396.512,124.364c0.101-1.154,1.118-2.089,2.272-2.089
						c1.154,0,2.007,0.935,1.906,2.089l-1.754,20.053c-0.101,1.154-1.118,2.089-2.272,2.089c-1.154,0-2.007-0.935-1.906-2.089
						L396.512,124.364z"/>
				</g>
			</g>
			<g>
				<g>
					<path style="fill:#263238;" d="M348.928,393.655H241.937c-12.036,0-20.94-9.757-19.887-21.793l22.373-255.723
						c1.053-12.036,11.664-21.794,23.7-21.794h106.991c12.036,0,20.94,9.757,19.887,21.794l-22.373,255.723
						C371.575,383.898,360.964,393.655,348.928,393.655z"/>
					<g>
						<path style="fill:#407BFF;" d="M374.677,99.345h-27.809c-1.821,0-3.477,1.354-3.866,3.16l-0.187,0.871
							c-0.949,4.412-4.993,7.718-9.442,7.718h-26.438c-4.448,0-7.914-3.306-8.091-7.718l-0.035-0.871
							c-0.073-1.807-1.492-3.16-3.313-3.16h-27.809c-9.275,0-17.451,7.519-18.263,16.794L227.05,371.861
							c-0.812,9.275,6.049,16.793,15.324,16.793h106.991c9.275,0,17.451-7.519,18.263-16.793l22.373-255.723
							C390.813,106.864,383.952,99.345,374.677,99.345z"/>
						<path style="opacity:0.8;fill:#FFFFFF;" d="M374.677,99.345h-27.809c-1.821,0-3.477,1.354-3.866,3.16l-0.187,0.871
							c-0.949,4.412-4.993,7.718-9.442,7.718h-26.438c-4.448,0-7.914-3.306-8.091-7.718l-0.035-0.871
							c-0.073-1.807-1.492-3.16-3.313-3.16h-27.809c-9.275,0-17.451,7.519-18.263,16.794L227.05,371.861
							c-0.812,9.275,6.049,16.793,15.324,16.793h106.991c9.275,0,17.451-7.519,18.263-16.793l22.373-255.723
							C390.813,106.864,383.952,99.345,374.677,99.345z"/>
					</g>
					<g style="opacity:0.6;">
						<path d="M314.462,102.178c-0.103,1.174-1.137,2.125-2.311,2.125c-1.174,0-2.042-0.951-1.939-2.125
							c0.103-1.174,1.137-2.125,2.311-2.125C313.697,100.053,314.565,101.005,314.462,102.178z"/>
						<path d="M329.715,100.053c-0.839,0-6.446,0-7.286,0c-1.174,0-2.208,0.951-2.311,2.125c-0.103,1.174,0.766,2.125,1.939,2.125
							c0.729,0,6.557,0,7.286,0c1.174,0,2.208-0.951,2.311-2.125C331.757,101.005,330.889,100.053,329.715,100.053z"/>
					</g>
					<g>
						<polygon style="fill:#407BFF;" points="261.513,111.053 263.763,111.053 263.96,108.803 261.71,108.803 						"/>
						<polygon style="fill:#407BFF;" points="266.21,108.803 266.013,111.053 268.263,111.053 268.46,108.803 268.657,106.553 
							266.407,106.553 						"/>
						<polygon style="fill:#407BFF;" points="271.104,104.303 270.907,106.553 270.71,108.803 270.513,111.053 272.763,111.053 
							272.96,108.803 273.157,106.553 273.354,104.303 						"/>
					</g>
					<path style="fill:#407BFF;" d="M367.848,104.453l-0.144,1.65h-1.1l-0.289,3.3h1.1l-0.144,1.65h9.9l0.577-6.6H367.848z
						 M371.815,109.403h-3.3l0.289-3.3h3.3L371.815,109.403z"/>
				</g>
				<g>
					<path style="opacity:0.5;fill:#FFFFFF;" d="M365.644,247.257H250.837c-3.535,0-6.15-2.866-5.84-6.4l6.934-79.257
						c0.309-3.535,3.426-6.4,6.96-6.4h114.807c3.535,0,6.15,2.865,5.84,6.4l-6.934,79.257
						C372.295,244.392,369.179,247.257,365.644,247.257z"/>
					<g>
						<path style="fill:#407BFF;" d="M250.837,247.257h114.806c3.535,0,6.651-2.865,6.96-6.4l3.904-44.628l-2.716,5l-2.716,5h-2.279
							l-1.841-5l-3.245-15l-3.901-7.5h-4.557l-2.06-2.5h-6.836l-4.995,5l-1.841-5h-4.557l-2.716,5l-1.841-5l-2.935,7.5l-2.497,2.5
							l-2.497,2.5h-4.557l-2.497,2.5l-2.716,5l-4.776,2.5l-4.339-2.5h-4.557l-2.716,5l-2.06-2.5h-2.279l-2.497,2.5l-2.497,2.5
							l-2.06-2.5h-4.558l-1.841-5l-2.716,5l-2.716,5l-2.716,5l-4.995,5l-4.12-5l-4.995,5l-4.995,5h-4.558l-1.717,19.628
							C244.688,244.392,247.303,247.257,250.837,247.257z"/>
						<path style="opacity:0.3;fill:#FFFFFF;" d="M250.837,247.257h114.806c3.535,0,6.651-2.865,6.96-6.4l3.904-44.628l-2.716,5
							l-2.716,5h-2.279l-1.841-5l-3.245-15l-3.901-7.5h-4.557l-2.06-2.5h-6.836l-4.995,5l-1.841-5h-4.557l-2.716,5l-1.841-5
							l-2.935,7.5l-2.497,2.5l-2.497,2.5h-4.557l-2.497,2.5l-2.716,5l-4.776,2.5l-4.339-2.5h-4.557l-2.716,5l-2.06-2.5h-2.279
							l-2.497,2.5l-2.497,2.5l-2.06-2.5h-4.558l-1.841-5l-2.716,5l-2.716,5l-2.716,5l-4.995,5l-4.12-5l-4.995,5l-4.995,5h-4.558
							l-1.717,19.628C244.688,244.392,247.303,247.257,250.837,247.257z"/>
					</g>
					<g>
						<path style="fill:#407BFF;" d="M250.837,247.257h114.806c3.535,0,6.651-2.865,6.96-6.4l3.248-37.128l-2.497,2.5l-2.497,2.5
							H366.3l-4.339-2.5l-4.12-5l-2.497,2.5h-9.115l-2.497,2.5h-2.279l-2.497,2.5l-2.06-2.5h-4.557l-3.154,10l-4.12-5h-13.672
							l-2.497,2.5h-4.557l-2.497,2.5h-4.557l-2.497,2.5h-4.558l-2.06-2.5l-4.776,2.5h-4.558l-4.776,2.5l-4.776,2.5h-4.557
							l-4.776,2.5l-4.12-5l-9.552,5l-1.28,14.628C244.688,244.392,247.303,247.257,250.837,247.257z"/>
						<path style="opacity:0.5;fill:#FFFFFF;" d="M250.837,247.257h114.806c3.535,0,6.651-2.865,6.96-6.4l3.248-37.128l-2.497,2.5
							l-2.497,2.5H366.3l-4.339-2.5l-4.12-5l-2.497,2.5h-9.115l-2.497,2.5h-2.279l-2.497,2.5l-2.06-2.5h-4.557l-3.154,10l-4.12-5
							h-13.672l-2.497,2.5h-4.557l-2.497,2.5h-4.557l-2.497,2.5h-4.558l-2.06-2.5l-4.776,2.5h-4.558l-4.776,2.5l-4.776,2.5h-4.557
							l-4.776,2.5l-4.12-5l-9.552,5l-1.28,14.628C244.688,244.392,247.303,247.257,250.837,247.257z"/>
					</g>
				</g>
				<path style="opacity:0.5;fill:#FFFFFF;" d="M361.485,294.793H246.678c-3.535,0-6.15-2.866-5.84-6.4l1.375-15.717
					c0.309-3.535,3.426-6.4,6.96-6.4H363.98c3.535,0,6.15,2.866,5.84,6.4l-1.375,15.717
					C368.136,291.928,365.02,294.793,361.485,294.793z"/>
				<path style="opacity:0.5;fill:#FFFFFF;" d="M358.781,325.695H243.975c-3.535,0-6.15-2.866-5.84-6.4l1.375-15.717
					c0.309-3.535,3.426-6.4,6.96-6.4h114.807c3.535,0,6.15,2.866,5.841,6.4l-1.375,15.717
					C365.433,322.829,362.316,325.695,358.781,325.695z"/>
				<path style="opacity:0.5;fill:#FFFFFF;" d="M356.078,356.596H241.271c-3.535,0-6.15-2.866-5.84-6.4l1.375-15.717
					c0.309-3.535,3.426-6.4,6.96-6.4h114.807c3.535,0,6.15,2.866,5.84,6.4l-1.375,15.717
					C362.729,353.73,359.613,356.596,356.078,356.596z"/>
				<g>
					<path style="fill:#263238;" d="M255.787,238.424c-0.43,0.376-1.025,0.605-1.785,0.685l-0.098,1.12h-0.82l0.097-1.11
						c-0.49-0.033-0.949-0.123-1.376-0.27c-0.427-0.146-0.761-0.333-1.001-0.56l0.538-1.01c0.229,0.2,0.515,0.369,0.856,0.505
						c0.341,0.137,0.7,0.222,1.077,0.255l0.175-2c-0.463-0.113-0.847-0.238-1.152-0.375c-0.305-0.136-0.553-0.336-0.743-0.6
						c-0.19-0.264-0.266-0.612-0.228-1.045c0.047-0.54,0.284-1,0.711-1.38c0.427-0.38,1.016-0.606,1.769-0.68l0.099-1.13h0.82
						l-0.097,1.11c0.371,0.02,0.731,0.083,1.078,0.19c0.348,0.106,0.647,0.247,0.898,0.42l-0.498,1.01
						c-0.481-0.293-1.006-0.473-1.573-0.54l-0.177,2.02c0.47,0.114,0.857,0.237,1.162,0.37c0.305,0.134,0.554,0.332,0.748,0.595
						c0.193,0.263,0.271,0.612,0.233,1.045C256.455,237.589,256.217,238.048,255.787,238.424z M252.836,234.489
						c0.162,0.133,0.402,0.247,0.72,0.34l0.156-1.78c-0.345,0.053-0.607,0.16-0.788,0.32c-0.181,0.16-0.281,0.357-0.302,0.59
						C252.603,234.179,252.674,234.356,252.836,234.489z M254.909,237.709c0.184-0.153,0.285-0.343,0.305-0.57
						c0.02-0.227-0.055-0.408-0.222-0.545c-0.168-0.137-0.415-0.251-0.74-0.345l-0.155,1.77
						C254.455,237.966,254.726,237.863,254.909,237.709z"/>
					<path style="fill:#263238;" d="M262.911,232.029l-0.612,7h-1.3l0.517-5.91h-1.48l0.095-1.09H262.911z"/>
					<path style="fill:#263238;" d="M266.721,232.029l-0.612,7h-1.3l0.517-5.91h-1.48l0.095-1.09H266.721z"/>
					<path style="fill:#263238;" d="M268.988,237.669c0.14,0.153,0.199,0.354,0.177,0.6c-0.009,0.106-0.034,0.218-0.074,0.335
						c-0.04,0.117-0.117,0.291-0.231,0.525l-0.634,1.41h-0.81l0.534-1.53c-0.142-0.06-0.248-0.155-0.32-0.285
						c-0.072-0.13-0.1-0.281-0.085-0.455c0.022-0.247,0.116-0.447,0.283-0.6c0.167-0.153,0.367-0.23,0.6-0.23
						S268.848,237.516,268.988,237.669z"/>
					<path style="fill:#263238;" d="M275.205,237.929l-0.096,1.1h-5.16l0.076-0.87l3.011-2.64c0.34-0.3,0.574-0.562,0.704-0.785
						c0.129-0.223,0.204-0.445,0.223-0.665c0.029-0.327-0.06-0.577-0.264-0.75c-0.205-0.173-0.521-0.26-0.948-0.26
						c-0.713,0-1.281,0.244-1.703,0.73l-0.849-0.7c0.306-0.367,0.699-0.652,1.18-0.855c0.481-0.203,1.008-0.305,1.582-0.305
						c0.76,0,1.351,0.18,1.773,0.54c0.422,0.36,0.606,0.85,0.552,1.47c-0.033,0.38-0.145,0.736-0.334,1.07
						c-0.189,0.333-0.529,0.713-1.02,1.14l-2.026,1.78H275.205z"/>
					<path style="fill:#263238;" d="M280.621,235.579c0.309,0.36,0.439,0.81,0.392,1.35c-0.035,0.407-0.171,0.777-0.407,1.11
						c-0.236,0.333-0.571,0.599-1.005,0.795c-0.434,0.196-0.951,0.295-1.551,0.295c-0.5,0-0.976-0.072-1.426-0.215
						c-0.451-0.143-0.829-0.341-1.133-0.595l0.648-1.01c0.235,0.214,0.528,0.382,0.881,0.505c0.353,0.123,0.722,0.185,1.109,0.185
						c0.46,0,0.83-0.095,1.11-0.285c0.28-0.19,0.434-0.448,0.463-0.775c0.029-0.327-0.074-0.582-0.308-0.765
						c-0.234-0.183-0.608-0.275-1.121-0.275h-0.64l0.078-0.89l1.755-1.89h-3.18l0.095-1.09h4.77l-0.076,0.87l-1.877,2.02
						C279.838,234.999,280.312,235.219,280.621,235.579z"/>
					<path style="fill:#263238;" d="M288.058,237.439h-1.24l-0.139,1.59h-1.26l0.139-1.59h-3.84l0.079-0.9l3.845-4.51h1.39
						l-3.627,4.31h2.29l0.123-1.41h1.22l-0.123,1.41h1.24L288.058,237.439z"/>
					<path style="fill:#263238;" d="M290.158,237.669c0.14,0.153,0.199,0.354,0.177,0.6c-0.009,0.106-0.034,0.218-0.074,0.335
						c-0.04,0.117-0.117,0.291-0.231,0.525l-0.634,1.41h-0.809l0.534-1.53c-0.142-0.06-0.248-0.155-0.32-0.285
						c-0.072-0.13-0.1-0.281-0.085-0.455c0.022-0.247,0.116-0.447,0.283-0.6c0.167-0.153,0.367-0.23,0.6-0.23
						S290.017,237.516,290.158,237.669z"/>
					<path style="fill:#263238;" d="M295.813,235.314c0.44,0.383,0.631,0.905,0.573,1.565c-0.037,0.42-0.173,0.8-0.409,1.14
						c-0.237,0.34-0.57,0.61-1.001,0.81c-0.431,0.2-0.95,0.3-1.556,0.3c-0.5,0-0.977-0.072-1.431-0.215
						c-0.454-0.143-0.83-0.341-1.128-0.595l0.639-1.01c0.241,0.214,0.538,0.382,0.891,0.505c0.353,0.123,0.722,0.185,1.109,0.185
						c0.46,0,0.83-0.095,1.11-0.285c0.28-0.19,0.434-0.452,0.464-0.785c0.031-0.36-0.087-0.631-0.354-0.815
						c-0.267-0.183-0.745-0.275-1.431-0.275h-1.69l0.693-3.81h4.11l-0.095,1.09h-3.01l-0.292,1.62h0.67
						C294.66,234.739,295.374,234.931,295.813,235.314z"/>
					<path style="fill:#263238;" d="M298.473,238.944c-0.07-0.4-0.085-0.828-0.045-1.285c0.04-0.456,0.13-0.886,0.27-1.288
						c0.14-0.401,0.322-0.752,0.544-1.052h0.595c-0.235,0.36-0.417,0.731-0.545,1.112c-0.129,0.382-0.212,0.791-0.25,1.228
						c-0.038,0.437-0.027,0.846,0.035,1.228c0.061,0.382,0.178,0.752,0.35,1.113h-0.595
						C298.663,239.696,298.543,239.344,298.473,238.944z"/>
					<path style="fill:#263238;" d="M302.932,238.234h-0.62l-0.069,0.795h-0.63l0.069-0.795h-1.92l0.039-0.45l1.922-2.255h0.695
						l-1.814,2.155h1.145l0.062-0.704h0.61l-0.062,0.704h0.62L302.932,238.234z"/>
					<path style="fill:#263238;" d="M303.345,238.947c-0.073-0.078-0.104-0.177-0.094-0.297c0.011-0.124,0.059-0.224,0.143-0.3
						c0.085-0.077,0.186-0.115,0.302-0.115s0.211,0.038,0.282,0.115c0.072,0.077,0.102,0.177,0.091,0.3
						c-0.01,0.12-0.059,0.219-0.146,0.297c-0.087,0.079-0.187,0.118-0.3,0.118C303.512,239.064,303.418,239.025,303.345,238.947z"/>
					<path style="fill:#263238;" d="M305.122,238.867c-0.208-0.142-0.363-0.348-0.466-0.62c-0.103-0.271-0.138-0.594-0.105-0.967
						c0.033-0.373,0.124-0.696,0.275-0.967c0.15-0.272,0.342-0.479,0.574-0.62c0.232-0.142,0.488-0.212,0.769-0.212
						c0.28,0,0.525,0.071,0.734,0.212c0.209,0.142,0.365,0.348,0.468,0.62c0.103,0.271,0.138,0.594,0.105,0.967
						c-0.033,0.374-0.124,0.696-0.275,0.967c-0.151,0.272-0.343,0.479-0.577,0.62c-0.234,0.142-0.491,0.212-0.771,0.212
						C305.573,239.079,305.329,239.008,305.122,238.867z M306.522,238.204c0.163-0.207,0.263-0.515,0.299-0.925
						c0.036-0.41-0.01-0.718-0.137-0.925c-0.127-0.207-0.315-0.31-0.565-0.31c-0.247,0-0.452,0.103-0.615,0.31
						c-0.163,0.206-0.262,0.515-0.298,0.925c-0.036,0.41,0.01,0.718,0.136,0.925c0.127,0.207,0.314,0.31,0.561,0.31
						C306.153,238.514,306.359,238.411,306.522,238.204z"/>
					<path style="fill:#263238;" d="M310.115,237.172c0.22,0.191,0.315,0.453,0.287,0.782c-0.018,0.21-0.087,0.4-0.205,0.57
						c-0.118,0.17-0.285,0.305-0.5,0.405s-0.475,0.15-0.778,0.15c-0.25,0-0.489-0.036-0.716-0.107
						c-0.227-0.071-0.415-0.171-0.564-0.297l0.319-0.505c0.121,0.106,0.269,0.191,0.446,0.252c0.176,0.062,0.361,0.092,0.555,0.092
						c0.23,0,0.415-0.047,0.555-0.143c0.14-0.095,0.217-0.226,0.232-0.392c0.016-0.18-0.043-0.316-0.177-0.408
						c-0.134-0.092-0.372-0.138-0.716-0.138h-0.845l0.346-1.905h2.055l-0.048,0.545h-1.505l-0.146,0.81h0.335
						C309.538,236.884,309.895,236.98,310.115,237.172z"/>
					<path style="fill:#263238;" d="M310.972,237.149c-0.138-0.177-0.194-0.408-0.169-0.695c0.025-0.287,0.122-0.518,0.291-0.695
						c0.169-0.177,0.378-0.265,0.628-0.265s0.445,0.088,0.584,0.263c0.14,0.175,0.197,0.407,0.171,0.697
						c-0.025,0.29-0.123,0.522-0.293,0.698c-0.17,0.175-0.38,0.262-0.63,0.262S311.11,237.326,310.972,237.149z M311.916,236.904
						c0.085-0.106,0.135-0.257,0.152-0.45c0.017-0.193-0.008-0.343-0.073-0.45c-0.065-0.107-0.167-0.16-0.303-0.16
						c-0.13,0-0.239,0.054-0.327,0.163c-0.088,0.108-0.14,0.257-0.157,0.447c-0.017,0.19,0.01,0.339,0.078,0.448
						c0.069,0.108,0.168,0.163,0.298,0.163C311.721,237.064,311.832,237.011,311.916,236.904z M313.819,235.529h0.49l-2.696,3.5
						h-0.49L313.819,235.529z M313.123,238.799c-0.138-0.177-0.194-0.408-0.169-0.695c0.025-0.287,0.122-0.519,0.291-0.695
						c0.169-0.177,0.378-0.265,0.628-0.265s0.445,0.088,0.584,0.265c0.14,0.177,0.197,0.409,0.172,0.695
						c-0.025,0.287-0.122,0.518-0.293,0.695c-0.17,0.177-0.381,0.265-0.631,0.265S313.26,238.976,313.123,238.799z M314.064,238.552
						c0.086-0.108,0.138-0.257,0.154-0.447c0.017-0.191-0.009-0.339-0.076-0.448c-0.067-0.108-0.167-0.163-0.301-0.163
						s-0.243,0.054-0.329,0.16c-0.086,0.107-0.137,0.257-0.154,0.45c-0.017,0.193,0.008,0.343,0.075,0.45
						c0.067,0.107,0.168,0.16,0.301,0.16C313.868,238.714,313.978,238.66,314.064,238.552z"/>
					<path style="fill:#263238;" d="M314.637,239.999c0.235-0.36,0.417-0.732,0.548-1.115c0.13-0.383,0.214-0.792,0.252-1.225
						c0.038-0.433,0.025-0.841-0.038-1.225c-0.063-0.383-0.18-0.755-0.353-1.115h0.595c0.171,0.297,0.291,0.646,0.361,1.047
						c0.07,0.402,0.084,0.833,0.044,1.292c-0.04,0.46-0.13,0.889-0.27,1.288c-0.14,0.398-0.321,0.749-0.545,1.053H314.637z"/>
				</g>
				<g>
					<path style="fill:#407BFF;" d="M328.916,381.221h-64.792c-3.535,0-6.15-2.866-5.84-6.4l0.397-4.54
						c0.309-3.535,3.426-6.4,6.96-6.4h64.792c3.535,0,6.15,2.865,5.84,6.4l-0.397,4.54
						C335.567,378.355,332.451,381.221,328.916,381.221z"/>
					<g>
						<path style="fill:#FFFFFF;" d="M277.788,373.196c0.201,0.296,0.282,0.665,0.244,1.105c-0.053,0.607-0.328,1.075-0.823,1.405
							c-0.496,0.33-1.19,0.495-2.083,0.495h-3.48l0.612-7h3.28c0.826,0,1.449,0.162,1.867,0.485
							c0.418,0.324,0.603,0.769,0.553,1.335c-0.03,0.347-0.137,0.654-0.32,0.92s-0.421,0.473-0.714,0.62
							C277.299,372.688,277.587,372.899,277.788,373.196z M273.468,370.221l-0.169,1.93h1.84c0.453,0,0.808-0.082,1.066-0.245
							c0.258-0.164,0.4-0.402,0.428-0.715c0.028-0.32-0.073-0.562-0.302-0.725c-0.229-0.164-0.57-0.245-1.023-0.245H273.468z
							 M276.733,374.171c0.059-0.673-0.415-1.01-1.422-1.01h-2.1l-0.177,2.02h2.1C276.141,375.181,276.674,374.845,276.733,374.171z
							"/>
						<path style="fill:#FFFFFF;" d="M280.067,375.486c-0.492-0.543-0.694-1.322-0.606-2.335l0.346-3.95h1.3l-0.341,3.9
							c-0.12,1.374,0.413,2.06,1.6,2.06c1.18,0,1.83-0.686,1.95-2.06l0.341-3.9h1.28l-0.346,3.95
							c-0.089,1.013-0.425,1.792-1.009,2.335c-0.584,0.543-1.36,0.815-2.326,0.815C281.289,376.301,280.56,376.03,280.067,375.486z"
							/>
						<path style="fill:#FFFFFF;" d="M290.28,373.731l-0.216,2.47h-1.3l0.214-2.45l-2.352-4.55h1.39l1.752,3.41l2.368-3.41h1.28
							L290.28,373.731z"/>
						<path style="fill:#FFFFFF;" d="M303.247,369.201l-0.612,7h-1.07l-3.445-4.74l-0.415,4.74h-1.29l0.612-7h1.07l3.446,4.74
							l0.415-4.74H303.247z"/>
						<path style="fill:#FFFFFF;" d="M305.886,375.836c-0.546-0.31-0.959-0.74-1.237-1.29c-0.279-0.55-0.388-1.165-0.329-1.845
							c0.059-0.68,0.277-1.295,0.652-1.845c0.374-0.55,0.862-0.98,1.462-1.289c0.601-0.31,1.258-0.465,1.971-0.465
							c0.713,0,1.343,0.155,1.889,0.465c0.546,0.309,0.958,0.738,1.238,1.285c0.278,0.547,0.388,1.164,0.328,1.85
							c-0.06,0.687-0.278,1.303-0.652,1.85c-0.375,0.546-0.862,0.975-1.463,1.285c-0.601,0.31-1.257,0.465-1.971,0.465
							S306.432,376.146,305.886,375.836z M309.163,374.846c0.391-0.21,0.711-0.503,0.957-0.88c0.246-0.376,0.39-0.798,0.431-1.265
							c0.041-0.467-0.029-0.888-0.209-1.265c-0.18-0.376-0.448-0.67-0.803-0.88c-0.355-0.21-0.766-0.315-1.233-0.315
							s-0.896,0.105-1.287,0.315c-0.392,0.21-0.711,0.503-0.957,0.88c-0.246,0.377-0.39,0.798-0.43,1.265
							c-0.041,0.467,0.029,0.889,0.209,1.265c0.18,0.376,0.448,0.67,0.803,0.88c0.355,0.21,0.765,0.315,1.232,0.315
							S308.771,375.056,309.163,374.846z"/>
						<path style="fill:#FFFFFF;" d="M323.557,369.201l-2.932,7h-1.38l-1.277-5.18l-2.214,5.18h-1.39l-1.707-7h1.35l1.274,5.32
							l2.276-5.32h1.2l1.302,5.35l2.258-5.35H323.557z"/>
					</g>
				</g>
				<g>
					<path style="fill:#263238;" d="M277.147,281.088c0.16,0.237,0.225,0.532,0.195,0.884c-0.043,0.485-0.262,0.86-0.658,1.124
						c-0.397,0.264-0.952,0.396-1.667,0.396h-2.784l0.49-5.6h2.624c0.661,0,1.159,0.129,1.494,0.388
						c0.335,0.259,0.482,0.615,0.443,1.068c-0.024,0.277-0.11,0.523-0.256,0.736c-0.147,0.213-0.337,0.379-0.571,0.496
						C276.756,280.682,276.987,280.851,277.147,281.088z M273.692,278.708l-0.135,1.544h1.472c0.362,0,0.647-0.065,0.853-0.196
						c0.206-0.13,0.32-0.321,0.342-0.572c0.022-0.256-0.058-0.449-0.241-0.58c-0.183-0.131-0.457-0.196-0.819-0.196H273.692z
						 M276.303,281.868c0.047-0.539-0.332-0.808-1.137-0.808h-1.68l-0.141,1.616h1.68
						C275.83,282.676,276.256,282.407,276.303,281.868z"/>
					<path style="fill:#263238;" d="M279.79,278.772h-1.856l0.077-0.88h4.752l-0.077,0.88h-1.856l-0.413,4.72h-1.04L279.79,278.772z
						"/>
					<path style="fill:#263238;" d="M284.063,283.2c-0.434-0.248-0.762-0.591-0.982-1.028c-0.221-0.438-0.307-0.931-0.259-1.48
						c0.048-0.549,0.222-1.043,0.522-1.48c0.299-0.438,0.688-0.78,1.166-1.028c0.478-0.248,0.999-0.372,1.565-0.372
						c0.458,0,0.871,0.08,1.235,0.24c0.365,0.16,0.664,0.392,0.899,0.696l-0.727,0.632c-0.367-0.438-0.846-0.656-1.439-0.656
						c-0.384,0-0.735,0.084-1.054,0.252c-0.319,0.168-0.577,0.401-0.774,0.7c-0.197,0.299-0.312,0.637-0.345,1.016
						c-0.033,0.379,0.023,0.717,0.167,1.016c0.145,0.299,0.362,0.532,0.651,0.7c0.289,0.168,0.626,0.252,1.01,0.252
						c0.592,0,1.11-0.221,1.554-0.664l0.616,0.64c-0.288,0.304-0.629,0.536-1.025,0.696c-0.395,0.16-0.822,0.24-1.281,0.24
						C284.997,283.572,284.497,283.448,284.063,283.2z"/>
				</g>
				<g>
					<path style="fill:#263238;" d="M273.806,313.522l-0.076,0.872h-4.2l0.49-5.6h4.088l-0.076,0.872h-3.048l-0.127,1.456h2.704
						l-0.075,0.856h-2.704l-0.135,1.544H273.806z"/>
					<path style="fill:#263238;" d="M276.439,309.673h-1.856l0.077-0.88h4.752l-0.077,0.88h-1.856l-0.413,4.72h-1.04
						L276.439,309.673z"/>
					<path style="fill:#263238;" d="M285.171,308.793l-0.49,5.6h-1.04l0.21-2.4h-2.896l-0.21,2.4h-1.04l0.49-5.6h1.04l-0.202,2.312
						h2.896l0.202-2.312H285.171z"/>
				</g>
				<g>
					<path style="fill:#263238;" d="M267.316,339.695h1.04l-0.413,4.72h2.928l-0.077,0.88h-3.968L267.316,339.695z"/>
					<path style="fill:#263238;" d="M272.647,340.575h-1.856l0.077-0.88h4.752l-0.077,0.88h-1.856l-0.413,4.72h-1.04
						L272.647,340.575z"/>
					<path style="fill:#263238;" d="M276.919,345.003c-0.434-0.248-0.762-0.591-0.982-1.028c-0.22-0.438-0.307-0.931-0.259-1.48
						c0.048-0.549,0.222-1.043,0.521-1.48c0.3-0.438,0.688-0.78,1.166-1.028c0.478-0.248,0.999-0.372,1.565-0.372
						c0.459,0,0.87,0.08,1.235,0.24c0.365,0.16,0.664,0.392,0.899,0.696l-0.727,0.632c-0.367-0.438-0.846-0.656-1.439-0.656
						c-0.384,0-0.735,0.084-1.054,0.252c-0.319,0.168-0.577,0.401-0.774,0.7c-0.197,0.299-0.312,0.637-0.345,1.016
						c-0.033,0.378,0.023,0.717,0.167,1.016c0.145,0.299,0.362,0.532,0.651,0.7c0.289,0.168,0.626,0.252,1.01,0.252
						c0.592,0,1.11-0.221,1.554-0.664l0.616,0.64c-0.288,0.304-0.629,0.536-1.025,0.696c-0.395,0.16-0.822,0.24-1.281,0.24
						C277.854,345.375,277.354,345.251,276.919,345.003z"/>
				</g>
				<g>
					<path style="fill:#263238;" d="M328.499,283.008c-0.344,0.301-0.82,0.484-1.428,0.548l-0.078,0.896h-0.656l0.078-0.888
						c-0.393-0.026-0.759-0.099-1.101-0.216c-0.342-0.117-0.609-0.267-0.801-0.448l0.431-0.808c0.183,0.16,0.411,0.294,0.684,0.404
						c0.273,0.109,0.561,0.177,0.862,0.204l0.14-1.6c-0.371-0.09-0.678-0.19-0.922-0.3c-0.244-0.109-0.442-0.27-0.594-0.48
						c-0.152-0.211-0.213-0.489-0.183-0.836c0.038-0.432,0.227-0.8,0.569-1.104c0.341-0.304,0.813-0.485,1.416-0.544l0.079-0.904
						h0.656l-0.078,0.888c0.297,0.016,0.585,0.066,0.863,0.152c0.278,0.085,0.517,0.197,0.719,0.336l-0.399,0.808
						c-0.385-0.235-0.804-0.378-1.258-0.432l-0.141,1.616c0.376,0.091,0.686,0.189,0.93,0.296c0.244,0.107,0.444,0.265,0.599,0.476
						c0.154,0.211,0.217,0.489,0.187,0.836C329.034,282.34,328.843,282.707,328.499,283.008z M326.139,279.86
						c0.129,0.107,0.321,0.197,0.576,0.272l0.125-1.424c-0.276,0.043-0.486,0.128-0.631,0.256c-0.145,0.128-0.225,0.285-0.241,0.472
						C325.953,279.612,326.01,279.753,326.139,279.86z M327.797,282.436c0.147-0.123,0.228-0.274,0.244-0.456
						c0.016-0.181-0.044-0.327-0.178-0.436c-0.134-0.109-0.332-0.201-0.592-0.276l-0.124,1.416
						C327.434,282.642,327.651,282.559,327.797,282.436z"/>
					<path style="fill:#263238;" d="M334.199,277.892l-0.49,5.6h-1.04l0.414-4.728h-1.184l0.076-0.872H334.199z"/>
					<path style="fill:#263238;" d="M337.247,277.892l-0.49,5.6h-1.04l0.414-4.728h-1.184l0.076-0.872H337.247z"/>
					<path style="fill:#263238;" d="M339.061,282.404c0.112,0.122,0.159,0.283,0.142,0.48c-0.008,0.086-0.027,0.175-0.059,0.268
						c-0.033,0.093-0.094,0.233-0.185,0.42l-0.507,1.128h-0.648l0.427-1.224c-0.113-0.048-0.199-0.124-0.256-0.228
						c-0.058-0.104-0.08-0.225-0.068-0.364c0.017-0.197,0.093-0.357,0.226-0.48c0.133-0.123,0.294-0.184,0.48-0.184
						S338.948,282.282,339.061,282.404z"/>
					<path style="fill:#263238;" d="M344.034,282.612l-0.077,0.88h-4.129l0.061-0.696l2.409-2.112
						c0.272-0.24,0.459-0.449,0.563-0.628c0.103-0.179,0.163-0.356,0.178-0.532c0.023-0.262-0.047-0.461-0.212-0.6
						c-0.164-0.139-0.416-0.208-0.758-0.208c-0.571,0-1.025,0.195-1.363,0.584l-0.679-0.56c0.244-0.294,0.559-0.522,0.944-0.684
						c0.385-0.163,0.806-0.244,1.265-0.244c0.608,0,1.081,0.144,1.418,0.432c0.337,0.288,0.484,0.68,0.441,1.176
						c-0.027,0.304-0.116,0.589-0.267,0.856c-0.151,0.267-0.423,0.571-0.816,0.912l-1.621,1.424H344.034z"/>
					<path style="fill:#263238;" d="M348.366,280.732c0.247,0.288,0.352,0.648,0.314,1.08c-0.029,0.326-0.137,0.622-0.326,0.888
						c-0.189,0.267-0.457,0.479-0.804,0.636c-0.347,0.157-0.761,0.236-1.241,0.236c-0.4,0-0.78-0.058-1.141-0.172
						c-0.361-0.115-0.663-0.273-0.907-0.476l0.519-0.808c0.188,0.171,0.423,0.305,0.704,0.404c0.282,0.099,0.578,0.148,0.887,0.148
						c0.368,0,0.664-0.076,0.888-0.228c0.224-0.152,0.347-0.359,0.37-0.62c0.023-0.261-0.059-0.465-0.246-0.612
						c-0.187-0.147-0.486-0.22-0.897-0.22h-0.512l0.062-0.712l1.405-1.512h-2.544l0.076-0.872h3.816l-0.061,0.696l-1.502,1.616
						C347.741,280.268,348.12,280.444,348.366,280.732z"/>
					<path style="fill:#263238;" d="M354.316,282.22h-0.992l-0.111,1.272h-1.008l0.111-1.272h-3.072l0.063-0.72l3.076-3.608h1.112
						l-2.902,3.448h1.832l0.099-1.128h0.976l-0.099,1.128h0.992L354.316,282.22z"/>
					<path style="fill:#263238;" d="M355.996,282.404c0.112,0.122,0.159,0.283,0.142,0.48c-0.008,0.086-0.027,0.175-0.059,0.268
						c-0.033,0.093-0.094,0.233-0.185,0.42l-0.507,1.128h-0.648l0.427-1.224c-0.113-0.048-0.199-0.124-0.256-0.228
						c-0.058-0.104-0.08-0.225-0.068-0.364c0.017-0.197,0.093-0.357,0.226-0.48c0.133-0.123,0.293-0.184,0.48-0.184
						C355.734,282.22,355.883,282.282,355.996,282.404z"/>
					<path style="fill:#263238;" d="M360.52,280.52c0.352,0.307,0.505,0.724,0.458,1.252c-0.03,0.336-0.139,0.64-0.328,0.912
						c-0.189,0.272-0.456,0.488-0.8,0.648c-0.345,0.16-0.76,0.24-1.245,0.24c-0.4,0-0.781-0.058-1.145-0.172
						c-0.363-0.115-0.664-0.273-0.902-0.476l0.511-0.808c0.193,0.171,0.431,0.305,0.713,0.404c0.282,0.099,0.578,0.148,0.887,0.148
						c0.368,0,0.664-0.076,0.888-0.228c0.224-0.152,0.348-0.361,0.371-0.628c0.025-0.288-0.069-0.505-0.283-0.652
						c-0.214-0.146-0.595-0.22-1.145-0.22h-1.352l0.555-3.048h3.288l-0.076,0.872h-2.408l-0.234,1.296h0.536
						C359.598,280.06,360.168,280.213,360.52,280.52z"/>
				</g>
				<g>
					<path style="fill:#263238;" d="M325.796,313.91c-0.344,0.301-0.82,0.484-1.428,0.548l-0.078,0.896h-0.656l0.078-0.888
						c-0.393-0.026-0.759-0.099-1.101-0.216c-0.342-0.117-0.609-0.267-0.801-0.448l0.431-0.808c0.183,0.16,0.411,0.294,0.684,0.404
						c0.273,0.109,0.561,0.177,0.862,0.204l0.14-1.6c-0.371-0.09-0.678-0.19-0.922-0.3c-0.244-0.109-0.442-0.27-0.594-0.48
						c-0.152-0.211-0.213-0.489-0.183-0.836c0.038-0.432,0.227-0.8,0.569-1.104c0.341-0.304,0.813-0.485,1.416-0.544l0.079-0.904
						h0.656l-0.078,0.888c0.297,0.016,0.585,0.066,0.863,0.152c0.278,0.086,0.517,0.197,0.719,0.336l-0.399,0.808
						c-0.385-0.235-0.804-0.378-1.258-0.432l-0.141,1.616c0.376,0.091,0.686,0.19,0.93,0.296c0.244,0.107,0.444,0.265,0.599,0.476
						c0.154,0.21,0.217,0.489,0.187,0.836C326.33,313.242,326.14,313.608,325.796,313.91z M323.436,310.762
						c0.129,0.106,0.321,0.197,0.576,0.272l0.125-1.424c-0.276,0.043-0.486,0.128-0.631,0.256c-0.144,0.128-0.225,0.285-0.241,0.472
						C323.249,310.514,323.306,310.655,323.436,310.762z M325.094,313.337c0.147-0.123,0.228-0.274,0.244-0.456
						c0.016-0.181-0.044-0.327-0.178-0.436c-0.135-0.109-0.332-0.201-0.592-0.276l-0.124,1.416
						C324.731,313.543,324.948,313.46,325.094,313.337z"/>
					<path style="fill:#263238;" d="M331.496,308.793l-0.49,5.6h-1.04l0.414-4.728h-1.184l0.076-0.872H331.496z"/>
					<path style="fill:#263238;" d="M333.276,314.134c-0.332-0.227-0.581-0.558-0.745-0.992c-0.165-0.435-0.221-0.951-0.168-1.548
						c0.052-0.598,0.198-1.113,0.439-1.548c0.241-0.435,0.547-0.765,0.919-0.992c0.372-0.227,0.782-0.34,1.23-0.34
						c0.448,0,0.839,0.114,1.174,0.34c0.335,0.227,0.585,0.557,0.749,0.992c0.165,0.435,0.221,0.951,0.169,1.548
						c-0.052,0.597-0.199,1.113-0.44,1.548c-0.241,0.435-0.548,0.765-0.923,0.992c-0.375,0.227-0.786,0.34-1.234,0.34
						C333.999,314.474,333.608,314.36,333.276,314.134z M335.517,313.074c0.261-0.331,0.42-0.824,0.477-1.48
						c0.057-0.656-0.015-1.149-0.218-1.48c-0.203-0.331-0.505-0.496-0.905-0.496c-0.395,0-0.723,0.165-0.983,0.496
						c-0.261,0.331-0.42,0.824-0.478,1.48c-0.057,0.656,0.016,1.149,0.219,1.48s0.502,0.496,0.897,0.496
						C334.926,313.569,335.256,313.404,335.517,313.074z"/>
					<path style="fill:#263238;" d="M338.597,313.306c0.112,0.123,0.159,0.283,0.142,0.48c-0.007,0.085-0.027,0.175-0.059,0.268
						c-0.033,0.093-0.094,0.233-0.185,0.42l-0.507,1.128h-0.648l0.427-1.224c-0.113-0.048-0.199-0.124-0.256-0.228
						c-0.058-0.104-0.08-0.225-0.068-0.364c0.017-0.197,0.093-0.357,0.226-0.48c0.133-0.122,0.293-0.184,0.48-0.184
						C338.336,313.121,338.485,313.183,338.597,313.306z"/>
					<path style="fill:#263238;" d="M341.664,308.793l-0.49,5.6h-1.04l0.414-4.728h-1.184l0.076-0.872H341.664z"/>
					<path style="fill:#263238;" d="M344.712,308.793l-0.49,5.6h-1.04l0.414-4.728h-1.184l0.076-0.872H344.712z"/>
					<path style="fill:#263238;" d="M350.437,313.121h-0.992l-0.111,1.272h-1.008l0.111-1.272h-3.072l0.063-0.72l3.076-3.608h1.112
						l-2.902,3.448h1.832l0.099-1.128h0.976l-0.099,1.128h0.992L350.437,313.121z"/>
					<path style="fill:#263238;" d="M352.116,313.306c0.112,0.123,0.159,0.283,0.142,0.48c-0.008,0.085-0.027,0.175-0.059,0.268
						c-0.033,0.093-0.094,0.233-0.185,0.42l-0.507,1.128h-0.648l0.427-1.224c-0.113-0.048-0.199-0.124-0.256-0.228
						c-0.058-0.104-0.08-0.225-0.068-0.364c0.017-0.197,0.093-0.357,0.226-0.48c0.133-0.122,0.293-0.184,0.48-0.184
						C351.855,313.121,352.004,313.183,352.116,313.306z"/>
					<path style="fill:#263238;" d="M356.767,311.634c0.247,0.288,0.352,0.648,0.314,1.079c-0.029,0.326-0.137,0.622-0.326,0.888
						c-0.189,0.267-0.457,0.478-0.804,0.636c-0.347,0.157-0.761,0.236-1.241,0.236c-0.4,0-0.78-0.058-1.141-0.172
						c-0.361-0.115-0.663-0.273-0.907-0.476l0.519-0.808c0.188,0.171,0.422,0.305,0.704,0.404c0.282,0.099,0.578,0.148,0.887,0.148
						c0.368,0,0.664-0.076,0.888-0.228c0.224-0.152,0.347-0.359,0.37-0.62c0.023-0.261-0.059-0.465-0.246-0.612
						c-0.187-0.146-0.486-0.22-0.897-0.22h-0.512l0.062-0.712l1.405-1.512h-2.544l0.076-0.872h3.817l-0.061,0.696l-1.502,1.616
						C356.141,311.169,356.52,311.346,356.767,311.634z"/>
				</g>
				<g>
					<path style="fill:#263238;" d="M323.092,344.811c-0.344,0.301-0.82,0.484-1.428,0.548l-0.078,0.896h-0.656l0.078-0.888
						c-0.393-0.026-0.759-0.099-1.101-0.216c-0.342-0.117-0.609-0.267-0.801-0.448l0.431-0.808c0.183,0.16,0.411,0.294,0.684,0.404
						c0.273,0.109,0.561,0.177,0.863,0.204l0.14-1.6c-0.371-0.09-0.678-0.19-0.922-0.3c-0.244-0.109-0.442-0.27-0.594-0.48
						c-0.152-0.211-0.213-0.489-0.183-0.836c0.038-0.432,0.227-0.8,0.569-1.104c0.341-0.304,0.813-0.485,1.416-0.544l0.079-0.904
						h0.656l-0.078,0.888c0.297,0.016,0.585,0.066,0.863,0.152c0.278,0.085,0.517,0.197,0.719,0.336l-0.399,0.808
						c-0.385-0.235-0.804-0.378-1.258-0.432l-0.141,1.616c0.376,0.091,0.686,0.189,0.93,0.296c0.244,0.107,0.444,0.265,0.598,0.476
						c0.154,0.21,0.217,0.489,0.187,0.836C323.627,344.143,323.436,344.51,323.092,344.811z M320.732,341.663
						c0.129,0.106,0.321,0.197,0.576,0.272l0.125-1.424c-0.276,0.043-0.486,0.128-0.631,0.256c-0.145,0.128-0.225,0.285-0.241,0.472
						C320.546,341.415,320.603,341.556,320.732,341.663z M322.391,344.239c0.147-0.122,0.228-0.274,0.244-0.456
						c0.016-0.181-0.044-0.327-0.178-0.436c-0.134-0.109-0.332-0.201-0.592-0.276l-0.124,1.416
						C322.027,344.444,322.244,344.362,322.391,344.239z"/>
					<path style="fill:#263238;" d="M330.885,342.891c0.137,0.227,0.193,0.492,0.166,0.796c-0.03,0.341-0.151,0.64-0.363,0.896
						c-0.211,0.256-0.497,0.452-0.855,0.588c-0.359,0.136-0.767,0.204-1.226,0.204c-0.459,0-0.854-0.068-1.186-0.204
						c-0.332-0.136-0.58-0.332-0.744-0.588c-0.165-0.256-0.232-0.555-0.202-0.896c0.027-0.304,0.127-0.569,0.302-0.796
						c0.175-0.227,0.412-0.407,0.711-0.54c-0.213-0.123-0.371-0.284-0.473-0.484c-0.103-0.2-0.142-0.43-0.12-0.692
						c0.027-0.315,0.138-0.589,0.332-0.824c0.194-0.235,0.454-0.416,0.78-0.544c0.326-0.128,0.694-0.192,1.105-0.192
						c0.416,0,0.776,0.064,1.079,0.192c0.304,0.128,0.533,0.309,0.689,0.544c0.155,0.234,0.219,0.509,0.192,0.824
						c-0.023,0.262-0.104,0.491-0.244,0.688c-0.14,0.197-0.33,0.36-0.571,0.488C330.538,342.484,330.747,342.664,330.885,342.891z
						 M329.612,344.319c0.238-0.16,0.369-0.381,0.394-0.664c0.024-0.277-0.069-0.496-0.279-0.656c-0.21-0.16-0.507-0.24-0.891-0.24
						c-0.384,0-0.693,0.08-0.925,0.24c-0.233,0.16-0.361,0.378-0.385,0.656c-0.025,0.283,0.065,0.504,0.27,0.664
						c0.205,0.16,0.499,0.24,0.883,0.24C329.063,344.559,329.374,344.479,329.612,344.319z M328.25,340.639
						c-0.201,0.139-0.313,0.333-0.335,0.584c-0.021,0.24,0.057,0.431,0.234,0.572c0.177,0.142,0.428,0.212,0.753,0.212
						c0.331,0,0.598-0.07,0.802-0.212c0.205-0.141,0.317-0.332,0.338-0.572c0.022-0.251-0.058-0.445-0.241-0.584
						c-0.183-0.139-0.436-0.208-0.762-0.208C328.714,340.431,328.451,340.5,328.25,340.639z"/>
					<path style="fill:#263238;" d="M332.854,344.207c0.112,0.123,0.159,0.283,0.142,0.48c-0.008,0.085-0.027,0.175-0.059,0.268
						c-0.033,0.093-0.094,0.233-0.185,0.42l-0.507,1.128h-0.648l0.427-1.224c-0.113-0.048-0.199-0.124-0.256-0.228
						c-0.058-0.104-0.08-0.225-0.068-0.364c0.017-0.197,0.093-0.357,0.226-0.48s0.293-0.184,0.48-0.184
						C332.592,344.023,332.741,344.084,332.854,344.207z"/>
					<path style="fill:#263238;" d="M335.92,339.695l-0.49,5.6h-1.04l0.414-4.728h-1.184l0.076-0.872H335.92z"/>
					<path style="fill:#263238;" d="M338.968,339.695l-0.49,5.6h-1.04l0.414-4.728h-1.184l0.076-0.872H338.968z"/>
					<path style="fill:#263238;" d="M342.016,339.695l-0.49,5.6h-1.04l0.414-4.728h-1.184l0.076-0.872H342.016z"/>
					<path style="fill:#263238;" d="M343.829,344.207c0.112,0.123,0.159,0.283,0.142,0.48c-0.007,0.085-0.027,0.175-0.059,0.268
						c-0.033,0.093-0.094,0.233-0.185,0.42l-0.507,1.128h-0.648l0.427-1.224c-0.113-0.048-0.199-0.124-0.256-0.228
						c-0.058-0.104-0.08-0.225-0.068-0.364c0.017-0.197,0.093-0.357,0.226-0.48s0.293-0.184,0.48-0.184
						C343.568,344.023,343.717,344.084,343.829,344.207z"/>
					<path style="fill:#263238;" d="M348.803,344.415l-0.077,0.88h-4.128l0.061-0.696l2.409-2.112
						c0.271-0.24,0.459-0.449,0.563-0.628c0.104-0.179,0.163-0.356,0.178-0.532c0.023-0.262-0.047-0.461-0.212-0.6
						c-0.164-0.139-0.416-0.208-0.758-0.208c-0.571,0-1.025,0.195-1.363,0.584l-0.679-0.56c0.244-0.293,0.559-0.521,0.944-0.684
						c0.385-0.163,0.806-0.244,1.265-0.244c0.608,0,1.081,0.144,1.418,0.432c0.338,0.288,0.484,0.68,0.441,1.176
						c-0.027,0.304-0.116,0.589-0.267,0.856c-0.151,0.267-0.423,0.571-0.815,0.912l-1.621,1.424H348.803z"/>
				</g>
				<g>
					<path style="fill:#263238;" d="M260.505,143.933c-0.44-0.248-0.772-0.592-0.997-1.032c-0.226-0.44-0.314-0.937-0.266-1.492
						c0.049-0.555,0.224-1.052,0.527-1.492c0.303-0.44,0.695-0.784,1.178-1.032c0.483-0.247,1.013-0.372,1.589-0.372
						c0.485,0,0.916,0.085,1.294,0.256c0.377,0.171,0.685,0.416,0.923,0.736l-0.899,0.768c-0.341-0.437-0.791-0.656-1.351-0.656
						c-0.347,0-0.663,0.076-0.948,0.228c-0.285,0.152-0.516,0.364-0.691,0.636c-0.176,0.272-0.279,0.582-0.309,0.928
						c-0.03,0.347,0.019,0.656,0.147,0.928c0.128,0.272,0.322,0.484,0.58,0.636c0.259,0.152,0.562,0.228,0.908,0.228
						c0.56,0,1.049-0.222,1.466-0.664l0.764,0.768c-0.295,0.325-0.647,0.573-1.057,0.744c-0.41,0.171-0.857,0.256-1.342,0.256
						C261.45,144.305,260.945,144.181,260.505,143.933z"/>
					<path style="fill:#263238;" d="M267.289,140.001c0.263-0.107,0.559-0.16,0.89-0.16l-0.101,1.152
						c-0.138-0.011-0.231-0.016-0.279-0.016c-0.357,0-0.646,0.1-0.866,0.3c-0.22,0.2-0.347,0.5-0.382,0.9l-0.178,2.032h-1.248
						l0.377-4.304h1.192l-0.05,0.568C266.811,140.265,267.026,140.107,267.289,140.001z"/>
					<path style="fill:#263238;" d="M273.341,139.904l-2.344,4.568c-0.241,0.496-0.515,0.845-0.824,1.048
						c-0.308,0.203-0.668,0.304-1.078,0.304c-0.224,0-0.442-0.035-0.655-0.104c-0.213-0.07-0.383-0.166-0.511-0.288l0.534-0.888
						c0.089,0.085,0.193,0.152,0.315,0.2c0.121,0.048,0.243,0.072,0.366,0.072c0.171,0,0.313-0.042,0.427-0.124
						c0.114-0.083,0.222-0.22,0.324-0.412l0.019-0.039l-1.484-4.336h1.288l0.952,2.92l1.471-2.92H273.341z"/>
					<path style="fill:#263238;" d="M277.47,140.117c0.312,0.184,0.547,0.442,0.704,0.776c0.157,0.333,0.217,0.721,0.178,1.164
						c-0.039,0.442-0.166,0.831-0.382,1.164c-0.216,0.333-0.496,0.592-0.84,0.776c-0.344,0.184-0.716,0.276-1.116,0.276
						c-0.549,0-0.966-0.173-1.25-0.52l-0.176,2.008h-1.248l0.512-5.856h1.192l-0.043,0.496c0.342-0.373,0.809-0.56,1.401-0.56
						C276.803,139.84,277.159,139.933,277.47,140.117z M276.705,142.924c0.224-0.216,0.352-0.505,0.384-0.868
						c0.032-0.363-0.046-0.652-0.232-0.868c-0.186-0.216-0.439-0.324-0.76-0.324c-0.32,0-0.592,0.108-0.816,0.324
						c-0.224,0.216-0.352,0.505-0.384,0.868c-0.032,0.363,0.046,0.652,0.232,0.868c0.186,0.216,0.439,0.324,0.759,0.324
						C276.209,143.249,276.481,143.141,276.705,142.924z"/>
					<path style="fill:#263238;" d="M281.791,144.001c-0.13,0.091-0.287,0.159-0.47,0.204c-0.183,0.045-0.373,0.068-0.57,0.068
						c-0.512,0-0.896-0.13-1.154-0.392c-0.257-0.261-0.363-0.645-0.319-1.152l0.155-1.768h-0.664l0.084-0.96h0.664l0.092-1.048
						h1.248l-0.092,1.048h1.072l-0.084,0.96h-1.072l-0.153,1.752c-0.016,0.182,0.018,0.321,0.103,0.42
						c0.085,0.099,0.212,0.148,0.383,0.148c0.197,0,0.37-0.053,0.518-0.16L281.791,144.001z"/>
					<path style="fill:#263238;" d="M283.188,143.988c-0.343-0.189-0.602-0.452-0.775-0.788c-0.173-0.337-0.241-0.717-0.204-1.144
						c0.037-0.427,0.172-0.808,0.404-1.144c0.232-0.336,0.536-0.599,0.913-0.788c0.377-0.189,0.791-0.284,1.245-0.284
						c0.453,0,0.85,0.095,1.191,0.284c0.341,0.189,0.598,0.452,0.771,0.788c0.173,0.336,0.241,0.717,0.204,1.144
						c-0.037,0.427-0.172,0.808-0.404,1.144c-0.233,0.336-0.535,0.599-0.909,0.788c-0.374,0.189-0.788,0.284-1.241,0.284
						C283.929,144.272,283.531,144.178,283.188,143.988z M285.289,142.924c0.224-0.216,0.352-0.505,0.384-0.868
						c0.032-0.363-0.046-0.652-0.232-0.868c-0.187-0.216-0.44-0.324-0.76-0.324s-0.594,0.108-0.82,0.324
						c-0.227,0.216-0.356,0.505-0.388,0.868c-0.032,0.363,0.047,0.652,0.236,0.868c0.189,0.216,0.444,0.324,0.764,0.324
						C284.792,143.249,285.064,143.141,285.289,142.924z"/>
					<path style="fill:#263238;" d="M294.401,139.121c0.375,0.341,0.537,0.811,0.485,1.408c-0.052,0.598-0.296,1.065-0.731,1.404
						s-1.01,0.508-1.725,0.508h-1.504l-0.155,1.768h-0.592l0.49-5.6h2.096C293.481,138.608,294.026,138.779,294.401,139.121z
						 M293.764,141.557c0.314-0.243,0.491-0.585,0.53-1.028c0.04-0.453-0.077-0.801-0.349-1.044
						c-0.272-0.243-0.686-0.364-1.24-0.364h-1.488l-0.245,2.8h1.488C293.015,141.92,293.45,141.799,293.764,141.557z"/>
					<path style="fill:#263238;" d="M296.345,143.973c-0.309-0.184-0.543-0.439-0.701-0.764c-0.158-0.325-0.219-0.693-0.183-1.104
						c0.036-0.411,0.161-0.779,0.376-1.104c0.215-0.325,0.493-0.579,0.835-0.76c0.341-0.182,0.714-0.273,1.12-0.273
						c0.405,0,0.763,0.091,1.072,0.273c0.309,0.181,0.542,0.435,0.698,0.76c0.156,0.325,0.215,0.693,0.179,1.104
						c-0.036,0.411-0.16,0.779-0.372,1.104c-0.212,0.325-0.49,0.58-0.831,0.764s-0.715,0.276-1.12,0.276
						C297.011,144.249,296.654,144.157,296.345,143.973z M298.282,143.54c0.249-0.136,0.452-0.329,0.607-0.58
						c0.155-0.251,0.247-0.536,0.275-0.856c0.028-0.32-0.013-0.606-0.125-0.856c-0.111-0.251-0.28-0.444-0.505-0.58
						c-0.225-0.136-0.487-0.204-0.786-0.204c-0.299,0-0.573,0.068-0.822,0.204c-0.249,0.136-0.453,0.33-0.611,0.58
						c-0.158,0.25-0.251,0.536-0.279,0.856c-0.028,0.32,0.015,0.605,0.129,0.856c0.114,0.251,0.284,0.444,0.509,0.58
						c0.225,0.136,0.487,0.204,0.786,0.204C297.759,143.745,298.033,143.676,298.282,143.54z"/>
					<path style="fill:#263238;" d="M302.208,140.184c0.276-0.144,0.609-0.216,0.999-0.216l-0.048,0.552l-0.136-0.008
						c-0.443,0-0.801,0.136-1.076,0.408c-0.274,0.272-0.433,0.653-0.476,1.144l-0.188,2.144h-0.568l0.368-4.208h0.544l-0.072,0.824
						C301.714,140.542,301.931,140.329,302.208,140.184z"/>
					<path style="fill:#263238;" d="M306.282,143.953c-0.115,0.096-0.254,0.169-0.415,0.22c-0.162,0.051-0.328,0.076-0.498,0.076
						c-0.395,0-0.689-0.106-0.884-0.32c-0.195-0.213-0.275-0.515-0.241-0.904l0.223-2.544h-0.752l0.042-0.48h0.752l0.08-0.92h0.568
						l-0.081,0.92h1.28l-0.042,0.48h-1.28l-0.22,2.512c-0.022,0.251,0.024,0.441,0.138,0.572c0.113,0.131,0.288,0.196,0.523,0.196
						c0.117,0,0.232-0.018,0.345-0.056c0.113-0.037,0.212-0.091,0.298-0.16L306.282,143.953z"/>
					<path style="fill:#263238;" d="M308.591,138.913c-0.137,0.133-0.217,0.331-0.24,0.592l-0.043,0.496h1.296l-0.042,0.48h-1.28
						l-0.326,3.728h-0.568l0.326-3.728h-0.752l0.042-0.48h0.752l0.046-0.52c0.034-0.384,0.171-0.688,0.412-0.912
						c0.241-0.224,0.564-0.336,0.969-0.336c0.16,0,0.313,0.023,0.458,0.068c0.145,0.045,0.265,0.111,0.359,0.196l-0.229,0.424
						c-0.153-0.139-0.355-0.208-0.606-0.208C308.92,138.712,308.729,138.779,308.591,138.913z"/>
					<path style="fill:#263238;" d="M310.577,143.973c-0.309-0.184-0.543-0.439-0.701-0.764c-0.158-0.325-0.219-0.693-0.183-1.104
						c0.036-0.411,0.161-0.779,0.376-1.104c0.215-0.325,0.493-0.579,0.835-0.76c0.341-0.182,0.714-0.273,1.12-0.273
						c0.405,0,0.763,0.091,1.072,0.273c0.309,0.181,0.542,0.435,0.698,0.76c0.156,0.325,0.215,0.693,0.179,1.104
						c-0.036,0.411-0.16,0.779-0.372,1.104c-0.213,0.325-0.49,0.58-0.831,0.764c-0.341,0.184-0.714,0.276-1.12,0.276
						C311.243,144.249,310.886,144.157,310.577,143.973z M312.515,143.54c0.249-0.136,0.452-0.329,0.607-0.58
						c0.155-0.251,0.247-0.536,0.275-0.856c0.028-0.32-0.013-0.606-0.125-0.856c-0.111-0.251-0.28-0.444-0.505-0.58
						c-0.225-0.136-0.487-0.204-0.786-0.204c-0.299,0-0.573,0.068-0.822,0.204c-0.249,0.136-0.453,0.33-0.611,0.58
						c-0.158,0.25-0.251,0.536-0.279,0.856c-0.028,0.32,0.015,0.605,0.129,0.856c0.114,0.251,0.284,0.444,0.509,0.58
						c0.225,0.136,0.487,0.204,0.786,0.204C311.991,143.745,312.266,143.676,312.515,143.54z"/>
					<path style="fill:#263238;" d="M315.468,138.272h0.568l-0.519,5.936h-0.568L315.468,138.272z"/>
					<path style="fill:#263238;" d="M317.552,138.96c-0.073-0.08-0.105-0.176-0.095-0.288c0.009-0.106,0.058-0.2,0.145-0.28
						c0.086-0.08,0.189-0.12,0.306-0.12c0.117,0,0.212,0.039,0.286,0.116c0.073,0.077,0.105,0.17,0.096,0.276
						c-0.01,0.117-0.059,0.216-0.146,0.296c-0.087,0.08-0.189,0.12-0.306,0.12C317.719,139.081,317.624,139.04,317.552,138.96z
						 M317.469,140.001h0.568l-0.368,4.208H317.1L317.469,140.001z"/>
					<path style="fill:#263238;" d="M319.897,143.973c-0.309-0.184-0.543-0.439-0.701-0.764c-0.158-0.325-0.219-0.693-0.183-1.104
						c0.036-0.411,0.161-0.779,0.376-1.104c0.215-0.325,0.493-0.579,0.835-0.76c0.341-0.182,0.714-0.273,1.12-0.273
						c0.405,0,0.762,0.091,1.072,0.273c0.309,0.181,0.542,0.435,0.698,0.76c0.156,0.325,0.215,0.693,0.179,1.104
						c-0.036,0.411-0.16,0.779-0.372,1.104c-0.213,0.325-0.49,0.58-0.831,0.764c-0.341,0.184-0.715,0.276-1.12,0.276
						C320.563,144.249,320.206,144.157,319.897,143.973z M321.835,143.54c0.249-0.136,0.452-0.329,0.607-0.58
						c0.155-0.251,0.247-0.536,0.275-0.856c0.028-0.32-0.013-0.606-0.125-0.856c-0.111-0.251-0.28-0.444-0.505-0.58
						c-0.225-0.136-0.487-0.204-0.786-0.204c-0.299,0-0.573,0.068-0.822,0.204c-0.249,0.136-0.453,0.33-0.611,0.58
						c-0.158,0.25-0.251,0.536-0.279,0.856c-0.028,0.32,0.015,0.605,0.129,0.856c0.114,0.251,0.284,0.444,0.509,0.58
						c0.225,0.136,0.488,0.204,0.786,0.204C321.311,143.745,321.585,143.676,321.835,143.54z"/>
				</g>
				<g>
					<path style="fill:#263238;" d="M334.4,165.354c-0.253-0.124-0.453-0.297-0.602-0.521l0.572-0.623
						c0.238,0.373,0.546,0.56,0.924,0.56c0.509,0,0.789-0.301,0.842-0.903l0.222-2.534h-1.743l0.067-0.763h2.653l-0.284,3.248
						c-0.05,0.574-0.228,1.004-0.533,1.292c-0.305,0.287-0.728,0.43-1.27,0.43C334.935,165.54,334.653,165.478,334.4,165.354z"/>
					<path style="fill:#263238;" d="M342.042,161.732l-0.327,3.738h-0.833l0.042-0.476c-0.154,0.168-0.341,0.297-0.559,0.389
						c-0.218,0.091-0.448,0.136-0.691,0.136c-0.499,0-0.88-0.139-1.143-0.416c-0.263-0.277-0.37-0.689-0.323-1.235l0.187-2.135
						h0.875l-0.176,2.016c-0.029,0.336,0.024,0.587,0.162,0.753c0.137,0.166,0.346,0.249,0.626,0.249
						c0.313,0,0.57-0.097,0.771-0.291c0.201-0.193,0.318-0.472,0.35-0.836l0.165-1.89H342.042z"/>
					<path style="fill:#263238;" d="M346.413,162.102c0.261,0.275,0.367,0.684,0.32,1.225l-0.187,2.142h-0.875l0.177-2.03
						c0.029-0.327-0.026-0.573-0.166-0.739c-0.139-0.165-0.352-0.248-0.636-0.248c-0.322,0-0.585,0.097-0.789,0.29
						c-0.203,0.194-0.321,0.473-0.353,0.837l-0.165,1.89h-0.875l0.327-3.738h0.833l-0.042,0.483c0.16-0.173,0.353-0.303,0.58-0.392
						c0.227-0.088,0.478-0.133,0.753-0.133C345.786,161.69,346.152,161.828,346.413,162.102z"/>
					<path style="fill:#263238;" d="M351.447,160.57l-0.429,4.9h-0.91l0.362-4.137h-1.036l0.067-0.763H351.447z"/>
					<path style="fill:#263238;" d="M355.325,163.055c0.216,0.252,0.307,0.567,0.274,0.945c-0.025,0.285-0.12,0.544-0.285,0.777
						c-0.165,0.233-0.4,0.419-0.703,0.556c-0.303,0.138-0.665,0.207-1.085,0.207c-0.35,0-0.683-0.05-0.999-0.15
						c-0.315-0.1-0.58-0.239-0.793-0.417l0.454-0.707c0.164,0.149,0.37,0.267,0.617,0.354c0.247,0.086,0.506,0.129,0.776,0.129
						c0.322,0,0.581-0.066,0.777-0.199c0.196-0.133,0.304-0.314,0.324-0.542s-0.052-0.407-0.216-0.536
						c-0.164-0.129-0.425-0.192-0.784-0.192h-0.448l0.055-0.623l1.229-1.323h-2.226l0.067-0.763h3.339l-0.053,0.609l-1.314,1.414
						C354.777,162.649,355.109,162.803,355.325,163.055z"/>
					<path style="fill:#263238;" d="M357.108,164.518c0.098,0.107,0.139,0.248,0.124,0.42c-0.007,0.075-0.024,0.153-0.052,0.235
						c-0.028,0.082-0.082,0.204-0.162,0.367l-0.443,0.987h-0.567l0.374-1.071c-0.099-0.042-0.174-0.108-0.224-0.199
						c-0.05-0.091-0.07-0.197-0.06-0.319c0.015-0.172,0.081-0.313,0.198-0.42c0.117-0.107,0.257-0.161,0.42-0.161
						C356.879,164.357,357.009,164.411,357.108,164.518z"/>
					<path style="fill:#263238;" d="M363.322,164.7l-0.067,0.77h-3.612l0.053-0.609l2.108-1.848c0.238-0.21,0.402-0.393,0.493-0.549
						c0.09-0.156,0.143-0.312,0.156-0.466c0.02-0.229-0.042-0.403-0.185-0.525c-0.143-0.121-0.364-0.182-0.663-0.182
						c-0.499,0-0.897,0.17-1.193,0.511l-0.594-0.49c0.213-0.256,0.489-0.456,0.826-0.598c0.337-0.143,0.706-0.214,1.107-0.214
						c0.532,0,0.945,0.126,1.241,0.378c0.295,0.252,0.424,0.595,0.386,1.029c-0.023,0.266-0.101,0.516-0.233,0.749
						s-0.37,0.499-0.714,0.798l-1.418,1.246H363.322z"/>
					<path style="fill:#263238;" d="M364.772,165.242c-0.29-0.198-0.508-0.488-0.652-0.868c-0.145-0.38-0.193-0.832-0.148-1.354
						c0.046-0.523,0.174-0.974,0.385-1.355c0.211-0.38,0.479-0.669,0.803-0.868c0.325-0.198,0.684-0.298,1.076-0.298
						c0.392,0,0.735,0.1,1.027,0.298c0.293,0.198,0.512,0.488,0.656,0.868c0.144,0.38,0.193,0.832,0.147,1.355
						c-0.046,0.523-0.174,0.975-0.384,1.354c-0.211,0.38-0.48,0.67-0.808,0.868c-0.327,0.198-0.687,0.297-1.079,0.297
						S365.062,165.44,364.772,165.242z M366.733,164.315c0.228-0.289,0.367-0.721,0.417-1.295c0.05-0.574-0.014-1.005-0.191-1.295
						c-0.178-0.289-0.441-0.434-0.792-0.434c-0.345,0-0.632,0.145-0.861,0.434c-0.228,0.29-0.367,0.721-0.417,1.295
						c-0.05,0.574,0.014,1.006,0.191,1.295c0.178,0.289,0.44,0.434,0.785,0.434C366.215,164.749,366.504,164.604,366.733,164.315z"
						/>
					<path style="fill:#263238;" d="M372.051,164.7l-0.067,0.77h-3.612l0.053-0.609l2.108-1.848c0.238-0.21,0.402-0.393,0.493-0.549
						c0.09-0.156,0.143-0.312,0.156-0.466c0.02-0.229-0.042-0.403-0.185-0.525c-0.143-0.121-0.364-0.182-0.663-0.182
						c-0.499,0-0.897,0.17-1.193,0.511l-0.594-0.49c0.213-0.256,0.489-0.456,0.826-0.598c0.337-0.143,0.706-0.214,1.107-0.214
						c0.532,0,0.945,0.126,1.241,0.378c0.295,0.252,0.424,0.595,0.386,1.029c-0.023,0.266-0.101,0.516-0.233,0.749
						s-0.37,0.499-0.714,0.798l-1.418,1.246H372.051z"/>
					<path style="fill:#263238;" d="M374.631,160.57l-0.429,4.9h-0.91l0.362-4.137h-1.036l0.067-0.763H374.631z"/>
				</g>
				<g>
					<polygon style="fill:#263238;" points="376.918,138.123 371.203,138.123 371.277,137.272 376.992,137.272 					"/>
					<polygon style="fill:#263238;" points="376.482,143.109 370.767,143.109 370.841,142.258 376.556,142.258 					"/>
					<polygon style="fill:#263238;" points="376.7,140.616 370.985,140.616 371.059,139.765 376.774,139.765 					"/>
				</g>
				<g>
					<path style="fill:#407BFF;" d="M312.992,254.276c-0.087,0.988-0.957,1.789-1.945,1.789c-0.988,0-1.719-0.801-1.632-1.789
						c0.086-0.988,0.957-1.789,1.945-1.789S313.079,253.288,312.992,254.276z"/>
					
						<ellipse transform="matrix(0.7223 -0.6916 0.6916 0.7223 -93.4035 275.9511)" style="opacity:0.5;fill:#FFFFFF;" cx="296.895" cy="254.276" rx="1.869" ry="1.712"/>
					<path style="opacity:0.5;fill:#FFFFFF;" d="M305.838,254.276c-0.086,0.988-0.957,1.789-1.945,1.789
						c-0.988,0-1.719-0.801-1.632-1.789c0.086-0.988,0.957-1.789,1.945-1.789S305.924,253.288,305.838,254.276z"/>
					
						<ellipse transform="matrix(0.7223 -0.6916 0.6916 0.7223 -87.4428 290.7948)" style="opacity:0.5;fill:#FFFFFF;" cx="318.358" cy="254.276" rx="1.869" ry="1.712"/>
				</g>
				<path style="fill:#407BFF;" d="M253.924,303.732c-4.255,0-8.006,3.449-8.378,7.704c-0.372,4.255,2.775,7.704,7.03,7.704
					c4.255,0,8.006-3.449,8.378-7.704C261.327,307.181,258.179,303.732,253.924,303.732z M252.854,315.681l-2.81-4.241l3.088,1.059
					l3.273-1.059L252.854,315.681z M253.225,311.44l-3.088-1.061l3.505-3.711l2.856,3.711L253.225,311.44z"/>
				<g>
					<path style="fill:#407BFF;" d="M256.628,272.831c-4.255,0-8.006,3.449-8.378,7.704c-0.372,4.255,2.775,7.704,7.03,7.704
						c4.255,0,8.006-3.449,8.378-7.704C264.03,276.28,260.883,272.831,256.628,272.831z M259.007,279.377
						c-0.08,0.267-0.217,0.505-0.411,0.716c-0.194,0.21-0.429,0.377-0.706,0.5c0.287,0.112,0.485,0.287,0.595,0.524
						c0.11,0.237,0.115,0.524,0.014,0.86c-0.147,0.491-0.458,0.87-0.933,1.136c-0.474,0.267-1.085,0.4-1.832,0.4h-3.024l1.68-5.6
						h2.864c0.715,0,1.219,0.132,1.514,0.396C259.061,278.573,259.141,278.929,259.007,279.377z"/>
					<path style="fill:#407BFF;" d="M256.702,279.057h-1.088l-0.324,1.08h1.088c0.533,0,0.855-0.181,0.964-0.544
						C257.449,279.235,257.235,279.057,256.702,279.057z"/>
					<path style="fill:#407BFF;" d="M256.289,281.233h-1.328l-0.341,1.136h1.328c0.555,0,0.889-0.189,1.003-0.568
						C257.065,281.422,256.844,281.233,256.289,281.233z"/>
				</g>
				<path style="fill:#407BFF;" d="M251.221,334.633c-4.255,0-8.006,3.449-8.378,7.704c-0.372,4.255,2.775,7.704,7.03,7.704
					c4.255,0,8.006-3.449,8.378-7.704C258.623,338.082,255.476,334.633,251.221,334.633z M252.622,344.959h-4.256l1.68-5.6h1.584
					l-1.303,4.344h2.672L252.622,344.959z"/>
			</g>
		</g>
		<g style="opacity:0.4;">
			<path style="fill:#FFFFFF;" d="M242.342,388.655h6.294l74.645-277.56h-14.228l-74.152,275.727
				C237.084,387.985,239.603,388.655,242.342,388.655z"/>
			<path style="fill:#FFFFFF;" d="M386.243,104.45c-2.777-3.144-6.87-5.105-11.598-5.105h-27.809c-1.821,0-3.477,1.354-3.866,3.16
				l-0.187,0.871c-0.949,4.412-4.994,7.718-9.442,7.718h-0.218l-74.645,277.56h51.333L386.243,104.45z"/>
		</g>
	</g>
</g>
<g id="Character">
	<g>
		<g>
			<polygon style="fill:#B97964;" points="208.945,392.11 212.046,403.5 220.348,402.237 218.908,390.594 			"/>
			<g>
				<path style="fill:#407BFF;" d="M221.391,400.437c-0.083-0.002-0.158-0.053-0.189-0.13c-0.03-0.078-0.008-0.167,0.056-0.222
					c0.113-0.097,2.682-2.295,4.135-2.179c0.27,0.018,0.523,0.14,0.704,0.341c0.233,0.216,0.305,0.557,0.178,0.849
					c-0.256,0.507-1.283,0.898-2.31,1.094C223.116,400.347,222.255,400.43,221.391,400.437z M221.975,400.054
					c1.575-0.103,3.657-0.515,3.938-1.126c0.043-0.077,0.072-0.205-0.12-0.421c-0.107-0.13-0.268-0.204-0.437-0.2
					c-0.128-0.011-0.258-0.003-0.384,0.023C223.874,398.71,222.857,399.295,221.975,400.054z"/>
				<path style="fill:#407BFF;" d="M221.286,400.446c-0.067-0.027-0.113-0.089-0.122-0.16c-0.009-0.106-0.214-2.378,0.674-3.444
					c0.254-0.313,0.625-0.509,1.026-0.543c0.55-0.049,0.77,0.191,0.833,0.412c0.354,0.896-1.291,3.068-2.195,3.695
					c-0.023,0.017-0.051,0.025-0.08,0.023C221.38,400.451,221.331,400.457,221.286,400.446z M222.804,396.695
					c-0.248,0.045-0.472,0.178-0.63,0.375c-0.48,0.83-0.695,1.788-0.614,2.744c0.909-0.802,1.944-2.452,1.786-3.003
					c-0.024-0.047-0.074-0.185-0.432-0.147L222.804,396.695L222.804,396.695z"/>
				<path style="fill:#263238;" d="M220.326,399.441l-9.024,1.723c-0.34,0.065-0.59,0.357-0.601,0.703l-0.229,7.653
					c-0.025,0.679,0.504,1.249,1.183,1.275c0.087,0.003,0.174-0.003,0.26-0.018c3.242-0.677,6.101-1.408,10.152-2.176
					c4.78-0.911,3.676-0.108,9.31-1.1c3.394-0.602,3.279-4.568,1.808-4.484c-6.728,0.427-7.789-1.426-10.773-3.294
					C221.775,399.376,221.033,399.276,220.326,399.441z"/>
			</g>
		</g>
		<g>
			<polygon style="fill:#B97964;" points="168.547,390.594 167.194,402.321 158.796,402.321 158.47,390.594 			"/>
			<g>
				<path style="fill:#407BFF;" d="M167.922,402.122c-0.082-0.016-0.146-0.079-0.164-0.161c-0.016-0.082,0.021-0.166,0.093-0.209
					c0.128-0.076,3.037-1.8,4.448-1.437c0.263,0.064,0.491,0.228,0.635,0.457c0.193,0.253,0.204,0.601,0.029,0.867
					c-0.34,0.455-1.418,0.664-2.464,0.681C169.636,402.329,168.774,402.263,167.922,402.122z M168.563,401.845
					c1.569,0.169,3.691,0.121,4.073-0.433c0.055-0.069,0.106-0.189-0.046-0.435c-0.083-0.146-0.229-0.247-0.396-0.272
					c-0.125-0.033-0.253-0.047-0.382-0.043C170.664,400.847,169.562,401.249,168.563,401.845z"/>
				<path style="fill:#407BFF;" d="M167.816,402.112c-0.061-0.038-0.097-0.107-0.092-0.179c0.01-0.106,0.198-2.379,1.255-3.277
					c0.304-0.265,0.703-0.394,1.104-0.358c0.55,0.046,0.726,0.321,0.75,0.549c0.195,0.944-1.798,2.801-2.797,3.263
					c-0.025,0.013-0.055,0.016-0.083,0.009C167.908,402.134,167.859,402.132,167.816,402.112z M169.956,398.678
					c-0.252,0.001-0.496,0.094-0.685,0.262c-0.616,0.735-0.992,1.642-1.076,2.598c1.033-0.633,2.336-2.082,2.275-2.652
					c-0.016-0.051-0.042-0.195-0.401-0.22L169.956,398.678L169.956,398.678z"/>
				<path style="fill:#263238;" d="M167.044,400.958l-9.186,0.148c-0.346,0.006-0.643,0.25-0.713,0.589l-1.54,7.5
					c-0.141,0.664,0.282,1.317,0.947,1.459c0.085,0.018,0.172,0.027,0.259,0.027c3.31-0.111,6.252-0.339,10.375-0.4
					c4.865-0.077,3.64,0.525,9.361,0.515c3.447-0.01,4.015-3.937,2.551-4.107c-6.702-0.734-7.429-2.742-10.047-5.095
					C168.482,401.143,167.768,400.917,167.044,400.958z"/>
			</g>
		</g>
		<path style="fill:#263238;" d="M179.158,260.99l9.17,33.066l0.806,2.59c2.791,8.968,4.468,18.282,4.757,27.7
			c0.117,3.826,0.445,7.856,0.926,11.975c3.241,27.73,14.573,59.452,14.573,59.452l10.637-1.159L202.391,220.41h-27.385
			C175.006,220.41,166.841,250.555,179.158,260.99z"/>
		<path style="opacity:0.6;" d="M188.595,294.813l-5.851-20.376l3.667-18.743l0.42-5.039
			C186.83,250.656,191.466,267.869,188.595,294.813z"/>
		<path style="fill:#263238;" d="M191.034,220.41c0,0-6.998,64.928-10.357,93.913c-3.359,28.986-12.037,81.449-12.037,81.449
			h-10.777c0,0-2.315-36.63,0.545-63.288c0.536-4.998,1.138-9.524,1.811-13.223c1.087-5.974,1.436-12.063,1.148-18.134
			c-0.182-3.843-0.39-8.393-0.591-13.179c-0.576-13.729,0.308-29.399,0.308-35.944c0-15.942,3.077-31.594,3.077-31.594H191.034z"/>
		<g>
			<path style="fill:#B97964;" d="M187.779,158.156c-5.028-1.193-6.297-4.455-5.925-7.88c0.086-0.857,0.227-1.708,0.42-2.547
				l-6.268-5.238l-4.598-3.816c1.24,5.572,2.643,15.179-1.154,18.899c4.167,2.23,8.451,4.236,12.832,6.01
				C187.779,161.085,187.779,158.156,187.779,158.156z"/>
			<path style="opacity:0.2;enable-background:new    ;" d="M182.274,147.729c-0.193,0.839-0.333,1.69-0.42,2.547
				c-0.027,0.245-0.042,0.488-0.051,0.73c-3.748-0.936-8.914-4.174-9.41-8.226c0.019-1.008,0.158-2.007,0.354-2.995l3.259,2.705
				L182.274,147.729z"/>
			<path style="fill:#263238;" d="M169.555,131.069c0,0-2.816,2.497-4.72,2.527c0,0,1.106,4.22,4.023,3.209
				C171.775,135.795,169.555,131.069,169.555,131.069z"/>
			<g>
				<path style="fill:#263238;" d="M193.11,125.19c0,0-1.16,3.766,3.273,4.192c0,0-2.22,4.519-5.915,1.12
					c-3.695-3.399-2.063-7.225-2.063-7.225l3.282,1.353L193.11,125.19z"/>
				<path style="opacity:0.5;" d="M193.11,125.19c0,0-1.16,3.766,3.273,4.192c0,0-2.22,4.519-5.915,1.12
					c-3.695-3.399-2.063-7.225-2.063-7.225l3.282,1.353L193.11,125.19z"/>
			</g>
			<path style="fill:#B97964;" d="M171.875,127.408c-0.954,7.527-1.908,11.868,1.145,16.486c4.522,6.936,14.244,5.486,17.383-1.555
				c2.862-6.325,3.873-17.573-2.776-22.076c-4.516-3.196-10.768-2.126-13.964,2.39C172.668,124.057,172.052,125.695,171.875,127.408
				z"/>
			<path style="fill:#2E353A;" d="M182.751,131.997c-0.115,0.611,0.115,1.164,0.506,1.25c0.391,0.086,0.801-0.334,0.954-0.954
				c0.153-0.62-0.115-1.164-0.506-1.25C183.314,130.957,182.866,131.395,182.751,131.997z"/>
			<path style="fill:#2E353A;" d="M189.811,133.342c-0.115,0.601,0.114,1.164,0.506,1.24c0.391,0.076,0.801-0.334,0.954-0.954
				c0.153-0.62-0.115-1.164-0.506-1.25C190.374,132.292,189.926,132.731,189.811,133.342z"/>
			<path style="fill:#A24E3F;" d="M187.044,133.256c0.332,1.717,0.857,3.391,1.565,4.99c-0.837,0.376-1.796,0.376-2.633,0
				L187.044,133.256z"/>
			<path style="fill:#2E353A;" d="M184.938,142.362c-1.427-0.076-2.762-0.726-3.702-1.803c-0.067-0.073-0.067-0.185,0-0.258
				c0.066-0.068,0.174-0.071,0.243-0.005c0.002,0.002,0.004,0.003,0.005,0.005c1.034,1.172,2.552,1.799,4.112,1.698
				c0.094-0.011,0.179,0.057,0.19,0.152c0.001,0.007,0.001,0.013,0.001,0.02c0,0.098-0.074,0.181-0.172,0.191
				C185.39,142.375,185.164,142.375,184.938,142.362z"/>
			<path style="fill:#2E353A;" d="M181.833,128.676c-0.048-0.033-0.087-0.077-0.113-0.13c-0.084-0.176-0.009-0.387,0.166-0.471
				c0.005-0.003,0.011-0.005,0.016-0.007c1.028-0.497,2.235-0.458,3.229,0.104c0.162,0.108,0.206,0.328,0.097,0.49
				c-0.002,0.003-0.005,0.007-0.007,0.01c-0.11,0.164-0.331,0.209-0.497,0.103c-0.788-0.451-1.749-0.481-2.564-0.079
				C182.056,128.748,181.931,128.74,181.833,128.676z"/>
			<path style="fill:#2E353A;" d="M193.464,130.488c-0.115,0.032-0.238,0.008-0.333-0.064c-0.708-0.605-1.66-0.841-2.569-0.639
				c-0.191,0.059-0.394-0.048-0.453-0.239c0-0.001,0-0.001,0-0.001c-0.053-0.189,0.049-0.385,0.233-0.451l0,0
				c1.139-0.278,2.342,0.013,3.229,0.779c0.158,0.122,0.187,0.348,0.066,0.507C193.589,130.43,193.529,130.467,193.464,130.488z"/>
			<path style="fill:#263238;" d="M172.916,133.891c0,0,3.569-1.33,3.849-9.237c0,0,4.889,1.959,10.527-0.91
				c0,0,9.082,5.746,9.634-1.745c0,0-2.763,0.836-3.904-1.824c0,0,2.351-2.099,0.71-4.829c0,0-3.75,2.659-6.44,0.42
				c-2.689-2.239-14.586-4.619-15.916,2.939c0,0-4.553-0.351-4.339,5.02c0.214,5.371-0.488,6.569-2.203,6.198
				c0,0,1.783,4.617,4.793,2.228c0,0,1.61,4.705-2.519,5.256C167.108,137.408,172.607,143.226,172.916,133.891z"/>
			<path style="fill:#263238;" d="M172.114,119.067c0,0-1.467-1.92-0.403-4.31c0.14-0.314-0.226-0.608-0.485-0.382
				C169.002,116.322,166.123,119.545,172.114,119.067z"/>
			<path style="fill:#B97964;" d="M168.66,135.142c0.413,1.828,1.453,3.455,2.938,4.598c1.908,1.402,3.349-0.296,3.244-2.69
				c-0.095-2.156-1.202-5.486-3.311-5.924C169.423,130.687,168.145,132.843,168.66,135.142z"/>
		</g>
		<g>
			<path style="fill:#407BFF;" d="M202.511,160.15v60.02l-39.935,0.652l-6.377-58.742c-0.288-2.649,2.015-4.971,5.057-5.098
				l35.665-1.49C199.964,155.365,202.511,157.487,202.511,160.15z"/>
			<path style="opacity:0.5;fill:#FFFFFF;" d="M202.511,160.15v60.02l-39.935,0.652l-6.377-58.742
				c-0.288-2.649,2.015-4.971,5.057-5.098l35.665-1.49C199.964,155.365,202.511,157.487,202.511,160.15z"/>
		</g>
		<g>
			<path style="fill:#407BFF;" d="M184.503,154.691l-5.012,2.216l-8.751-1.82l-1.588,2.761L174.35,163
				c0.575,0.569,1.517,0.511,2.017-0.124l3.123-3.963l5.486,3.508c0.94,0.601,2.162-0.128,2.08-1.24l-0.36-4.898L184.503,154.691z"
				/>
			<path style="opacity:0.8;fill:#FFFFFF;" d="M184.503,154.691l-5.012,2.216l-8.751-1.82l-1.588,2.761L174.35,163
				c0.575,0.569,1.517,0.511,2.017-0.124l3.123-3.963l5.486,3.508c0.94,0.601,2.162-0.128,2.08-1.24l-0.36-4.898L184.503,154.691z"
				/>
		</g>
		<g>
			<polygon style="fill:#263238;" points="220.639,391.38 221.137,396.889 209.518,399.169 207.788,393.897 			"/>
			<polygon style="opacity:0.3;fill:#FFFFFF;" points="220.639,391.38 221.137,396.889 209.518,399.169 207.788,393.897 			"/>
		</g>
		<g>
			<polygon style="fill:#263238;" points="170.04,393.254 169.107,398.759 156.979,398.759 156.65,393.254 			"/>
			<polygon style="opacity:0.3;fill:#FFFFFF;" points="170.04,393.254 169.107,398.759 156.979,398.759 156.65,393.254 			"/>
		</g>
		<path style="fill:#407BFF;" d="M169.481,155.825c0,0,9.494,21.938,11.24,29.687c1.676,7.437,1.908,26.208,1.913,35.637
			c0.002,2.86-3.049,4.967-6.236,4.315l-16.314-3.133c0,0-1.599-22.408-2.521-29.846c-1.033-8.332-4.875-29.76-3.269-33.399
			C156.397,154.32,169.481,155.825,169.481,155.825z"/>
		<path style="opacity:0.1;" d="M156.393,189.121c7.009-11.136,6.113-20.671,6.113-20.671l-3.24-1.037l-4.614,7.086
			C155.121,179.184,155.784,184.413,156.393,189.121z"/>
		<path style="fill:#407BFF;" d="M161.548,159.279c-1.16-1.981-4.007-2.68-6.13-1.45c-3.117,1.807-7.642,6.103-12.437,16.267
			c-8.771,18.593-8.398,30.988-0.56,40.121c7.838,9.133,20.527,18.833,20.527,18.833l5.599-6.437c0,0-19.221-16.962-19.035-27.726
			c0.15-8.667,6.664-19.074,10.45-24.79C162.189,170.735,165.492,166.014,161.548,159.279z"/>
		<g>
			<path style="fill:#B97964;" d="M223.132,171.323l2.959-6.85l6.558-8.987l4.598,3.663l-2.111,5.145
				c-0.303,0.737-0.945,1.33-1.771,1.634l-3.142,1.154l-1.773,6.361L223.132,171.323z"/>
			<path style="fill:#407BFF;" d="M203.071,157.705c4.415,6.231,8.678,26.34,12.176,26.34c2.659,0,8.258-16.105,8.258-16.105
				l6.718,2.895c0,0-4.339,26.788-13.436,28.501c-9.097,1.713-17.2-20.596-18.475-29.357
				C197.832,166.678,198.358,151.054,203.071,157.705z"/>
			<path style="opacity:0.1;" d="M200.599,164.465l-2.381,4.496c0.024,0.403,0.055,0.753,0.094,1.017
				c0.901,6.19,5.212,19.134,10.872,25.599c-4.554-9.692-5.673-28.675-5.673-28.675L200.599,164.465z"/>
			<path style="fill:#407BFF;" d="M186.697,155.284c0,0,1.335,22.041,1.789,29.494c0.465,7.624,2.363,26.36,3.348,35.863
				c0.3,2.898,3.657,4.757,6.787,3.765l6.009-1.587l-0.56-34.666c0,0,0.173-27.645-1-30.449
				C201.041,152.853,186.697,155.284,186.697,155.284z"/>
		</g>
		<g>
			<path style="fill:#407BFF;" d="M229.497,164.089h-4.052c-0.63,0-1.042-0.577-0.766-1.072l7.625-13.662
				c0.341-0.611,1.051-0.999,1.829-0.999h4.052c0.63,0,1.042,0.576,0.766,1.072l-7.624,13.662
				C230.985,163.701,230.275,164.089,229.497,164.089z"/>
			<path style="opacity:0.2;fill:#FFFFFF;" d="M238.956,148.798c-0.131-0.252-0.413-0.441-0.772-0.441h-4.052
				c-0.778,0-1.488,0.388-1.828,0.999l-5.727,10.262L238.956,148.798z"/>
			<path style="fill:#407BFF;" d="M238.184,148.357h-0.132c-0.012,0.074-0.034,0.148-0.075,0.221l-7.624,13.662
				c-0.341,0.611-1.051,0.999-1.829,0.999h-3.92c-0.072,0.43,0.303,0.85,0.841,0.85h4.052c0.778,0,1.488-0.388,1.829-0.999
				l7.624-13.662C239.227,148.933,238.814,148.357,238.184,148.357z"/>
			<path style="opacity:0.2;" d="M238.184,148.357h-0.132c-0.012,0.074-0.034,0.148-0.075,0.221l-7.624,13.662
				c-0.341,0.611-1.051,0.999-1.829,0.999h-3.92c-0.072,0.43,0.303,0.85,0.841,0.85h4.052c0.778,0,1.488-0.388,1.829-0.999
				l7.624-13.662C239.227,148.933,238.814,148.357,238.184,148.357z"/>
		</g>
		<path style="fill:#B97964;" d="M236.615,158.72l-1.778-1.955c-0.44-0.484-1.222-0.413-1.568,0.143l-1.465,2.357
			c-0.101,0.163-0.153,0.353-0.148,0.545l0.159,6.548l2.517-0.407l2.575-4.302C237.467,160.715,237.348,159.525,236.615,158.72z"/>
	</g>
</g>
<g id="Coins">
	<g>
		<g>
			<circle style="fill:#407BFF;" cx="220.636" cy="120.412" r="11.346"/>
		</g>
		<circle style="fill:#407BFF;" cx="221.997" cy="120.412" r="11.346"/>
		<circle style="opacity:0.3;fill:#FFFFFF;" cx="221.997" cy="120.412" r="11.346"/>
		<circle style="fill:#FFFFFF;" cx="221.997" cy="120.412" r="8.491"/>
		<path style="fill:#407BFF;" d="M226.619,121.075c-0.311-0.407-0.741-0.698-1.291-0.872c0.403-0.21,0.717-0.499,0.941-0.865
			c0.224-0.366,0.336-0.783,0.336-1.25c0-0.769-0.313-1.378-0.94-1.826c-0.467-0.333-1.085-0.542-1.851-0.627v-0.694h-1.073v0.648
			h-1.073v-0.648h-1.073v0.648h-2.325v9.613h2.325v0.682h1.073v-0.682h1.073v0.682h1.073v-0.709c0.97-0.061,1.742-0.272,2.291-0.652
			c0.655-0.453,0.982-1.101,0.982-1.943C227.086,121.983,226.931,121.482,226.619,121.075z M220.481,117.264h2.211
			c0.549,0,0.965,0.094,1.249,0.282c0.284,0.188,0.426,0.469,0.426,0.845c0,0.376-0.142,0.659-0.426,0.851
			c-0.283,0.193-0.7,0.288-1.249,0.288h-2.211V117.264z M224.401,123.237c-0.298,0.192-0.739,0.288-1.325,0.288h-2.595v-2.375h2.595
			c1.181,0,1.772,0.398,1.772,1.194C224.848,122.748,224.699,123.045,224.401,123.237z"/>
	</g>
	<g>
		<g>
			<circle style="fill:#407BFF;" cx="132.905" cy="144.232" r="13.704"/>
		</g>
		<circle style="fill:#407BFF;" cx="134.55" cy="144.232" r="13.704"/>
		<circle style="opacity:0.3;fill:#FFFFFF;" cx="134.55" cy="144.232" r="13.704"/>
		
			<ellipse transform="matrix(0.7071 -0.7071 0.7071 0.7071 -62.579 137.3856)" style="fill:#FFFFFF;" cx="134.55" cy="144.232" rx="10.255" ry="10.255"/>
		<path style="fill:#407BFF;" d="M140.132,145.033c-0.376-0.492-0.895-0.843-1.559-1.054c0.487-0.254,0.865-0.602,1.137-1.045
			c0.27-0.442,0.406-0.945,0.406-1.509c0-0.928-0.379-1.664-1.136-2.206c-0.564-0.403-1.31-0.654-2.236-0.758v-0.838h-1.296v0.783
			h-1.296v-0.783h-1.296v0.783h-2.808v11.61h2.808v0.824h1.296v-0.824h1.296v0.824h1.296v-0.857
			c1.171-0.074,2.104-0.329,2.767-0.788c0.791-0.548,1.185-1.329,1.185-2.347C140.696,146.131,140.508,145.525,140.132,145.033z
			 M132.719,140.431h2.671c0.663,0,1.166,0.113,1.508,0.34c0.343,0.227,0.514,0.567,0.514,1.02c0,0.453-0.171,0.796-0.514,1.027
			c-0.342,0.233-0.845,0.348-1.508,0.348h-2.671V140.431z M137.453,147.645c-0.359,0.232-0.893,0.348-1.6,0.348h-3.134v-2.869h3.134
			c1.426,0,2.14,0.481,2.14,1.442C137.993,147.054,137.813,147.413,137.453,147.645z"/>
	</g>
	<g>
		<g>
			<circle style="fill:#407BFF;" cx="144.751" cy="105.345" r="11.024"/>
		</g>
		<circle style="fill:#407BFF;" cx="146.074" cy="105.345" r="11.024"/>
		<circle style="opacity:0.3;fill:#FFFFFF;" cx="146.074" cy="105.345" r="11.024"/>
		
			<ellipse transform="matrix(0.9239 -0.3827 0.3827 0.9239 -29.1946 63.9188)" style="fill:#FFFFFF;" cx="146.074" cy="105.345" rx="8.249" ry="8.249"/>
		<path style="fill:#407BFF;" d="M150.564,105.99c-0.302-0.396-0.72-0.678-1.254-0.848c0.392-0.204,0.696-0.484,0.914-0.84
			c0.217-0.356,0.327-0.76,0.327-1.214c0-0.747-0.305-1.339-0.914-1.774c-0.453-0.324-1.054-0.526-1.799-0.61v-0.674h-1.042v0.63
			h-1.042v-0.63h-1.042v0.63h-2.259v9.339h2.259v0.662h1.042v-0.662h1.042v0.662h1.042v-0.689c0.942-0.06,1.693-0.264,2.225-0.634
			c0.636-0.44,0.954-1.069,0.954-1.887C151.018,106.872,150.867,106.385,150.564,105.99z M144.601,102.287h2.148
			c0.533,0,0.938,0.091,1.213,0.274c0.276,0.182,0.414,0.456,0.414,0.821s-0.138,0.64-0.414,0.826
			c-0.275,0.187-0.68,0.28-1.213,0.28h-2.148V102.287z M148.409,108.09c-0.289,0.187-0.718,0.28-1.287,0.28h-2.521v-2.308h2.521
			c1.147,0,1.721,0.387,1.721,1.16C148.843,107.615,148.699,107.904,148.409,108.09z"/>
	</g>
</g>
</svg>
