<svg width="1440" height="872" viewBox="0 0 1440 872" fill="none" xmlns="http://www.w3.org/2000/svg">
<path opacity="0.4" d="M0 1H665.384C748.708 1 816.256 68.5906 816.256 151.968V205.194C816.256 288.571 883.804 356.161 967.128 356.161H1440M0 19.3871H647.009C730.333 19.3871 797.881 86.9776 797.881 170.355V223.581C797.881 306.958 865.428 374.548 948.753 374.548H1440M0 37.7742H628.633C711.957 37.7742 779.505 105.365 779.505 188.742V241.968C779.505 325.345 847.053 392.935 930.377 392.935H1440M0 56.1613H610.258C693.582 56.1613 761.13 123.752 761.13 207.129V260.355C761.13 343.732 828.677 411.323 912.002 411.323H1440M0 74.5484H591.882C675.207 74.5484 742.754 142.139 742.754 225.516V278.742C742.754 362.119 810.302 429.71 893.626 429.71H1440M0 92.9355H573.507C656.831 92.9355 724.379 160.526 724.379 243.903V297.129C724.379 380.506 791.927 448.097 875.251 448.097H1440M0 111.323H555.131C638.456 111.323 706.003 178.913 706.003 262.29V315.516C706.003 398.893 773.551 466.484 856.875 466.484H1440M0 129.71H536.756C620.08 129.71 687.628 197.3 687.628 280.677V333.903C687.628 417.28 755.176 484.871 838.5 484.871H1440M0 148.097H518.381C601.705 148.097 669.253 215.687 669.253 299.065V352.29C669.253 435.667 736.8 503.258 820.125 503.258H1440M0 166.484H500.005C583.329 166.484 650.877 234.074 650.877 317.452V370.677C650.877 454.055 718.425 521.645 801.749 521.645H1440M0 184.871H481.63C564.954 184.871 632.502 252.462 632.502 335.839V389.065C632.502 472.442 700.049 540.032 783.374 540.032H1440M0 203.258H463.254C546.579 203.258 614.126 270.849 614.126 354.226V407.452C614.126 490.829 681.674 558.419 764.998 558.419H1440M0 221.645H444.879C528.203 221.645 595.751 289.236 595.751 372.613V425.839C595.751 509.216 663.299 576.806 746.623 576.806H1440M0 240.032H426.503C509.828 240.032 577.375 307.623 577.375 391V444.226C577.375 527.603 644.923 595.194 728.247 595.194H1440M0 258.419H408.128C491.452 258.419 559 326.01 559 409.387V462.613C559 545.99 626.548 613.581 709.872 613.581H1440M0 276.806H389.753C473.077 276.806 540.625 344.397 540.625 427.774V481C540.625 564.377 608.172 631.968 691.497 631.968H1440M0 295.194H371.377C454.701 295.194 522.249 362.784 522.249 446.161V499.387C522.249 582.764 589.797 650.355 673.121 650.355H1440M0 313.581H353.002C436.326 313.581 503.874 381.171 503.874 464.548V517.774C503.874 601.151 571.421 668.742 654.746 668.742H1440M0 331.968H334.626C417.951 331.968 485.498 399.558 485.498 482.935V536.161C485.498 619.538 553.046 687.129 636.37 687.129H1440M0 350.355H316.251C399.575 350.355 467.123 417.945 467.123 501.323V554.548C467.123 637.926 534.671 705.516 617.995 705.516H1440M0 368.742H297.875C381.2 368.742 448.747 436.332 448.747 519.71V572.935C448.747 656.313 516.295 723.903 599.619 723.903H1440M0 387.129H279.5C362.824 387.129 430.372 454.72 430.372 538.097V591.323C430.372 674.7 497.92 742.29 581.244 742.29H1440M0 405.516H261.125C344.449 405.516 411.997 473.107 411.997 556.484V609.71C411.997 693.087 479.544 760.677 562.869 760.677H1440M0 423.903H242.749C326.073 423.903 393.621 491.494 393.621 574.871V628.097C393.621 711.474 461.169 779.065 544.493 779.065H1440M0 442.29H224.374C307.698 442.29 375.246 509.881 375.246 593.258V646.484C375.246 729.861 442.793 797.452 526.118 797.452H1440M0 460.677H205.998C289.323 460.677 356.87 528.268 356.87 611.645V664.871C356.87 748.248 424.418 815.839 507.742 815.839H1440M0 479.065H187.623C270.947 479.065 338.495 546.655 338.495 630.032V683.258C338.495 766.635 406.042 834.226 489.367 834.226H1440M0 497.452H169.247C252.572 497.452 320.119 565.042 320.119 648.419V701.645C320.119 785.022 387.667 852.613 470.991 852.613H1440M0 515.839H150.872C234.196 515.839 301.744 583.429 301.744 666.806V720.032C301.744 803.409 369.292 871 452.616 871H1440" stroke="url(#paint0_linear_348_343)" stroke-dasharray="1 7"/>
<defs>
<linearGradient id="paint0_linear_348_343" x1="173.5" y1="151.5" x2="1027.47" y2="939.42" gradientUnits="userSpaceOnUse">
<stop offset="0.0621235" stop-color="#C5161E"/>
<stop offset="1" stop-color="#FBC024"/>
</linearGradient>
</defs>
</svg>
