<?xml version="1.0" encoding="utf-8"?>
<!-- Generator: Adobe Illustrator 27.5.0, SVG Export Plug-In . SVG Version: 6.00 Build 0)  -->
<svg version="1.1" xmlns="http://www.w3.org/2000/svg" xmlns:xlink="http://www.w3.org/1999/xlink" x="0px" y="0px"
	 viewBox="0 0 500 500" style="enable-background:new 0 0 500 500;" xml:space="preserve">
<g id="BACKGROUND">
	<rect style="fill:#FFFFFF;" width="500" height="500"/>
</g>
<g id="OBJECTS">
	<g>
		<path style="fill:#FADDD4;" d="M186.722,82.917c-3.857-11.8-13.907-20.071-28.305-17.654
			c-10.094,1.694-18.838,8.031-26.031,15.313c-7.193,7.282-13.223,15.647-20.447,22.898c-8.457,8.489-18.436,15.338-26.957,23.764
			c-4.682,4.631-9.032,9.961-10.655,16.343c-2.146,8.437,1.788,16.027,9.037,20.341c29.851,17.763,73.936-13.637,91.75-36.638
			c7.156-9.239,12.962-20.115,13.337-31.796C188.593,91.086,187.994,86.81,186.722,82.917z"/>
		<path style="fill:#FADDD4;" d="M215.736,168.336c-15.878,5.387-33.062,7.396-49.372,10.384
			c-20.98,3.844-41.807,9.607-60.633,19.632c-69.543,37.033-76.189,125.052-33.01,185.516c23.284,32.606,60.014,57.335,98.045,69.32
			c21.466,6.765,44.119,8.964,66.618,9.539c24.714,0.632,49.657-0.677,73.624-6.736c71.732-18.135,129.082-80.652,145.353-152.83
			c9.579-42.49,7.572-89.357-4.818-131.217c-9.205-31.098-26.928-60.671-53.982-78.558c-17.701-11.703-39.586-17.624-60.775-15.592
			c-24.2,2.32-40.608,16.24-58.045,31.865c-16.984,15.219-25.18,38.639-45.167,50.583
			C227.913,163.624,221.924,166.236,215.736,168.336z"/>
		<g>
			<path d="M300.6,396.764c-2.22-2.22-2.221-5.819-0.001-8.039c2.22-2.22,5.819-2.221,8.039-0.001"/>
			<path style="fill:none;stroke:#000000;stroke-width:0.5;stroke-miterlimit:10;" d="M103.011,110.751
				c0,2.648-2.146,4.794-4.794,4.794c-2.648,0-4.794-2.146-4.794-4.794c0-2.648,2.146-4.794,4.794-4.794
				C100.864,105.957,103.011,108.103,103.011,110.751z"/>
			<path style="fill:none;stroke:#000000;stroke-width:0.5;stroke-miterlimit:10;" d="M77.314,385.062
				c4.998-2.309,10.922-0.128,13.23,4.87c2.309,4.998,0.128,10.922-4.87,13.23c-4.998,2.309-10.922,0.129-13.23-4.87
				C70.135,393.295,72.315,387.371,77.314,385.062z"/>
			<path d="M69.29,406.063c1.178-0.544,2.573-0.03,3.117,1.147c0.544,1.178,0.03,2.573-1.147,3.117
				c-1.178,0.544-2.573,0.03-3.117-1.147C67.598,408.003,68.112,406.607,69.29,406.063z"/>
			<g>
				
					<line style="fill:none;stroke:#000000;stroke-width:0.5;stroke-miterlimit:10;" x1="318.214" y1="384.142" x2="287.449" y2="414.908"/>
				
					<line style="fill:none;stroke:#000000;stroke-width:0.5;stroke-miterlimit:10;" x1="330.47" y1="378.908" x2="299.704" y2="409.674"/>
			</g>
			
				<line style="fill:none;stroke:#000000;stroke-width:0.5;stroke-miterlimit:10;" x1="122.784" y1="102.227" x2="98.244" y2="126.767"/>
			<circle cx="326.188" cy="107.167" r="2.238"/>
			<polyline style="fill:none;stroke:#000000;stroke-width:0.5;stroke-miterlimit:10;" points="39.187,256.883 43.882,247.609 
				50.331,256.883 55.481,247.609 60.631,256.883 66.026,247.609 71.667,256.883 76.572,247.609 			"/>
		</g>
		<g>
			
				<line style="fill:none;stroke:#222221;stroke-width:0.5;stroke-miterlimit:10;" x1="327.157" y1="285.908" x2="296.766" y2="317.493"/>
			
				<line style="fill:none;stroke:#222221;stroke-width:0.5;stroke-miterlimit:10;" x1="341.746" y1="280.124" x2="285.721" y2="335.456"/>
		</g>
		<g>
			<g>
				<g>
					<path style="fill:#FFFFFF;stroke:#222221;stroke-width:0.5;stroke-miterlimit:10;" d="M464.836,257.103V126.949H266.84v130.154
						c0,1.126,0.913,2.039,2.039,2.039h193.918C463.923,259.142,464.836,258.229,464.836,257.103z"/>
					<g>
						<g>
							<path style="fill:#9DD1C9;stroke:#000000;stroke-width:0.5;stroke-miterlimit:10;" d="M465.291,131.986v-7.456
								c0-2.397-2.224-4.34-4.968-4.34H271.352c-2.743,0-4.967,1.943-4.967,4.34v7.456H465.291z"/>
						</g>
					</g>
				</g>
			</g>
			<g>
				<g>
					
						<rect x="330.463" y="144.861" style="fill:#FFFFFF;stroke:#222221;stroke-width:0.5;stroke-miterlimit:10;" width="21.43" height="17.712"/>
					
						<rect x="354.844" y="144.861" style="fill:#FFFFFF;stroke:#222221;stroke-width:0.5;stroke-miterlimit:10;" width="21.43" height="17.712"/>
					
						<rect x="379.225" y="144.861" style="fill:#FFFFFF;stroke:#222221;stroke-width:0.5;stroke-miterlimit:10;" width="21.43" height="17.712"/>
					
						<rect x="403.606" y="144.861" style="fill:#FFFFFF;stroke:#222221;stroke-width:0.5;stroke-miterlimit:10;" width="21.43" height="17.712"/>
					
						<rect x="427.987" y="144.861" style="fill:#FFFFFF;stroke:#222221;stroke-width:0.5;stroke-miterlimit:10;" width="21.43" height="17.712"/>
				</g>
				<g>
					
						<rect x="281.701" y="166.095" style="fill:#FFFFFF;stroke:#222221;stroke-width:0.5;stroke-miterlimit:10;" width="21.43" height="17.712"/>
					
						<rect x="306.082" y="166.095" style="fill:#FFFFFF;stroke:#222221;stroke-width:0.5;stroke-miterlimit:10;" width="21.43" height="17.712"/>
					
						<rect x="330.463" y="166.095" style="fill:#FFFFFF;stroke:#222221;stroke-width:0.5;stroke-miterlimit:10;" width="21.43" height="17.712"/>
					
						<rect x="354.844" y="166.095" style="fill:#FFFFFF;stroke:#222221;stroke-width:0.5;stroke-miterlimit:10;" width="21.43" height="17.712"/>
					
						<rect x="379.225" y="166.095" style="fill:#FFFFFF;stroke:#222221;stroke-width:0.5;stroke-miterlimit:10;" width="21.43" height="17.712"/>
					
						<rect x="403.606" y="166.095" style="fill:#FFFFFF;stroke:#222221;stroke-width:0.5;stroke-miterlimit:10;" width="21.43" height="17.712"/>
					
						<rect x="427.987" y="166.095" style="fill:#FFFFFF;stroke:#222221;stroke-width:0.5;stroke-miterlimit:10;" width="21.43" height="17.712"/>
				</g>
				<g>
					
						<rect x="281.701" y="187.33" style="fill:#FFFFFF;stroke:#222221;stroke-width:0.5;stroke-miterlimit:10;" width="21.43" height="17.712"/>
					
						<rect x="306.082" y="187.33" style="fill:#FFFFFF;stroke:#222221;stroke-width:0.5;stroke-miterlimit:10;" width="21.43" height="17.712"/>
					
						<rect x="330.463" y="187.33" style="fill:#FFFFFF;stroke:#222221;stroke-width:0.5;stroke-miterlimit:10;" width="21.43" height="17.712"/>
					
						<rect x="354.844" y="187.33" style="fill:#FFFFFF;stroke:#222221;stroke-width:0.5;stroke-miterlimit:10;" width="21.43" height="17.712"/>
					
						<rect x="379.225" y="187.33" style="fill:#FFFFFF;stroke:#222221;stroke-width:0.5;stroke-miterlimit:10;" width="21.43" height="17.712"/>
					
						<rect x="403.606" y="187.33" style="fill:#FFFFFF;stroke:#222221;stroke-width:0.5;stroke-miterlimit:10;" width="21.43" height="17.712"/>
					
						<rect x="427.987" y="187.33" style="fill:#FFFFFF;stroke:#222221;stroke-width:0.5;stroke-miterlimit:10;" width="21.43" height="17.712"/>
				</g>
				<g>
					
						<rect x="281.701" y="208.564" style="fill:#FFFFFF;stroke:#222221;stroke-width:0.5;stroke-miterlimit:10;" width="21.43" height="17.712"/>
					
						<rect x="306.082" y="208.564" style="fill:#FFFFFF;stroke:#222221;stroke-width:0.5;stroke-miterlimit:10;" width="21.43" height="17.712"/>
					
						<rect x="330.463" y="208.564" style="fill:#FFFFFF;stroke:#222221;stroke-width:0.5;stroke-miterlimit:10;" width="21.43" height="17.712"/>
					
						<rect x="354.844" y="208.564" style="fill:#FFFFFF;stroke:#222221;stroke-width:0.5;stroke-miterlimit:10;" width="21.43" height="17.712"/>
					
						<rect x="379.225" y="208.564" style="fill:#FFFFFF;stroke:#222221;stroke-width:0.5;stroke-miterlimit:10;" width="21.43" height="17.712"/>
					
						<rect x="403.606" y="208.564" style="fill:#FFFFFF;stroke:#222221;stroke-width:0.5;stroke-miterlimit:10;" width="21.43" height="17.712"/>
					
						<rect x="427.987" y="208.564" style="fill:#FFFFFF;stroke:#222221;stroke-width:0.5;stroke-miterlimit:10;" width="21.43" height="17.712"/>
				</g>
				<g>
					
						<rect x="281.701" y="229.798" style="fill:#FFFFFF;stroke:#222221;stroke-width:0.5;stroke-miterlimit:10;" width="21.43" height="17.712"/>
					
						<rect x="306.082" y="229.798" style="fill:#FFFFFF;stroke:#222221;stroke-width:0.5;stroke-miterlimit:10;" width="21.43" height="17.712"/>
					
						<rect x="330.463" y="229.798" style="fill:#FFFFFF;stroke:#222221;stroke-width:0.5;stroke-miterlimit:10;" width="21.43" height="17.712"/>
					
						<rect x="354.844" y="229.798" style="fill:#FFFFFF;stroke:#222221;stroke-width:0.5;stroke-miterlimit:10;" width="21.43" height="17.712"/>
				</g>
			</g>
			<path style="fill:none;stroke:#050504;stroke-miterlimit:10;" d="M362.648,174.951"/>
			<g>
				<path style="fill:none;stroke:#050504;stroke-width:0.5;stroke-miterlimit:10;" d="M359.31,178.291
					c3.308-2.569,6.616-5.138,9.925-7.707"/>
				<path style="fill:none;stroke:#050504;stroke-width:0.5;stroke-miterlimit:10;" d="M368.735,178.819
					c-2.815-2.61-5.63-5.22-8.445-7.83"/>
			</g>
			<g>
				<path style="fill:none;stroke:#050504;stroke-width:0.5;stroke-miterlimit:10;" d="M310.38,219.948
					c3.308-2.569,6.616-5.138,9.925-7.707"/>
				<path style="fill:none;stroke:#050504;stroke-width:0.5;stroke-miterlimit:10;" d="M319.805,220.476
					c-2.815-2.61-5.63-5.22-8.445-7.83"/>
			</g>
			<g>
				<path style="fill:none;stroke:#050504;stroke-width:0.5;stroke-miterlimit:10;" d="M384.978,220.15
					c3.308-2.569,6.616-5.138,9.925-7.707"/>
				<path style="fill:none;stroke:#050504;stroke-width:0.5;stroke-miterlimit:10;" d="M394.402,220.678
					c-2.815-2.61-5.63-5.22-8.446-7.83"/>
			</g>
			<path style="fill:none;stroke:#050504;stroke-width:0.5;stroke-miterlimit:10;" d="M335.002,194.678
				c0.698,0,5.278,5.582,5.278,5.582l7.514-10.594"/>
			<path style="fill:none;stroke:#050504;stroke-width:0.5;stroke-miterlimit:10;" d="M407.227,173.149
				c0.698,0,5.278,5.582,5.278,5.582l7.515-10.594"/>
			<path style="fill:none;stroke:#050504;stroke-width:0.5;stroke-miterlimit:10;" d="M407.227,194.383
				c0.698,0,5.278,5.582,5.278,5.582l7.515-10.594"/>
			<path style="fill:none;stroke:#050504;stroke-width:0.5;stroke-miterlimit:10;" d="M286.02,172.808
				c0.698,0,5.278,5.582,5.278,5.582l7.515-10.594"/>
			<path style="fill:none;stroke:#050504;stroke-width:0.5;stroke-miterlimit:10;" d="M359.163,238.369
				c0.698,0,5.278,5.582,5.278,5.582l7.515-10.594"/>
			<path style="fill:#F65E59;stroke:#000000;stroke-width:0.5;stroke-miterlimit:10;" d="M441.863,196.41
				c0,1.964-1.592,3.556-3.556,3.556c-1.964,0-3.556-1.592-3.556-3.556c0-1.964,1.592-3.556,3.556-3.556
				C440.271,192.854,441.863,194.446,441.863,196.41z"/>
			<path style="fill:#F65E59;stroke:#000000;stroke-width:0.5;stroke-miterlimit:10;" d="M417.482,217.644
				c0,1.964-1.592,3.556-3.556,3.556c-1.964,0-3.556-1.592-3.556-3.556c0-1.964,1.592-3.556,3.556-3.556
				C415.89,214.088,417.482,215.68,417.482,217.644z"/>
			<path style="fill:#F65E59;stroke:#000000;stroke-width:0.5;stroke-miterlimit:10;" d="M295.972,196.41
				c0,1.964-1.592,3.556-3.556,3.556c-1.964,0-3.556-1.592-3.556-3.556c0-1.964,1.592-3.556,3.556-3.556
				C294.38,192.854,295.972,194.446,295.972,196.41z"/>
		</g>
		<g>
			<g>
				<g>
					<path style="fill:#FFFFFF;stroke:#222221;stroke-width:0.5;stroke-miterlimit:10;" d="M307.132,355.379H128.011
						c-4.367,0-7.908-3.541-7.908-7.908V89.746c0-4.367,3.541-7.908,7.908-7.908h179.121c4.367,0,7.908,3.54,7.908,7.908v257.725
						C315.04,351.839,311.499,355.379,307.132,355.379z"/>
				</g>
				<g>
					<path style="fill:#7696EA;stroke:#000000;stroke-width:0.5;stroke-miterlimit:10;" d="M308.567,356.952H126.576
						c-4.436,0-8.046-3.609-8.046-8.046V88.312c0-4.436,3.609-8.046,8.046-8.046h181.991c4.436,0,8.046,3.609,8.046,8.046v260.594
						C316.613,353.342,313.003,356.952,308.567,356.952z M126.576,83.411c-2.702,0-4.901,2.198-4.901,4.901v260.594
						c0,2.703,2.199,4.901,4.901,4.901h181.991c2.703,0,4.901-2.198,4.901-4.901V88.312c0-2.702-2.198-4.901-4.901-4.901H126.576z"
						/>
				</g>
				<g>
					<circle style="fill:#FFFFFF;stroke:#222221;stroke-width:0.5;stroke-miterlimit:10;" cx="279.888" cy="130.837" r="9.337"/>
					<circle style="fill:#FFFFFF;stroke:#222221;stroke-width:0.5;stroke-miterlimit:10;" cx="279.888" cy="171.202" r="9.337"/>
					
						<ellipse transform="matrix(0.923 -0.3849 0.3849 0.923 -59.5048 123.9456)" style="fill:#FFFFFF;stroke:#222221;stroke-width:0.5;stroke-miterlimit:10;" cx="279.888" cy="210.628" rx="9.337" ry="9.337"/>
					<circle style="fill:#FFFFFF;stroke:#222221;stroke-width:0.5;stroke-miterlimit:10;" cx="279.888" cy="254.397" r="9.337"/>
					<g>
						<path style="fill:#9DD1C9;" d="M278.523,137.044l-5.641-5.641c-0.501-0.501-0.501-1.313,0-1.813h0
							c0.501-0.501,1.312-0.501,1.813,0l3.125,3.125l6.565-13.13c0.317-0.633,1.087-0.89,1.72-0.573l0,0
							c0.633,0.317,0.89,1.087,0.574,1.72L278.523,137.044z"/>
					</g>
					<g>
						<path style="fill:#F65E59;" d="M278.523,176.715l-5.641-5.641c-0.501-0.501-0.501-1.313,0-1.813l0,0
							c0.501-0.501,1.313-0.501,1.813,0l3.125,3.125l6.565-13.13c0.317-0.633,1.087-0.89,1.721-0.574l0,0
							c0.633,0.317,0.89,1.087,0.574,1.721L278.523,176.715z"/>
					</g>
					
						<line style="opacity:0.7;fill:none;stroke:#000000;stroke-width:0.5;stroke-miterlimit:10;" x1="139.518" y1="127.879" x2="240.764" y2="127.879"/>
					
						<line style="opacity:0.7;fill:none;stroke:#000000;stroke-width:0.5;stroke-miterlimit:10;" x1="139.518" y1="134.638" x2="250.626" y2="134.638"/>
					
						<line style="opacity:0.7;fill:none;stroke:#000000;stroke-width:0.5;stroke-miterlimit:10;" x1="139.518" y1="141.396" x2="203.373" y2="141.396"/>
					
						<line style="opacity:0.7;fill:none;stroke:#000000;stroke-width:0.5;stroke-miterlimit:10;" x1="139.518" y1="205.605" x2="213.643" y2="205.605"/>
					
						<line style="opacity:0.7;fill:none;stroke:#000000;stroke-width:0.5;stroke-miterlimit:10;" x1="139.518" y1="212.363" x2="232.134" y2="212.363"/>
					
						<line style="opacity:0.7;fill:none;stroke:#000000;stroke-width:0.5;stroke-miterlimit:10;" x1="139.518" y1="219.122" x2="203.373" y2="219.122"/>
					
						<line style="opacity:0.7;fill:none;stroke:#000000;stroke-width:0.5;stroke-miterlimit:10;" x1="139.518" y1="248.338" x2="223.643" y2="248.338"/>
					
						<line style="opacity:0.7;fill:none;stroke:#000000;stroke-width:0.5;stroke-miterlimit:10;" x1="139.518" y1="255.097" x2="212.134" y2="255.097"/>
					
						<line style="opacity:0.7;fill:none;stroke:#000000;stroke-width:0.5;stroke-miterlimit:10;" x1="139.518" y1="261.856" x2="203.373" y2="261.856"/>
					<path style="opacity:0.7;fill:none;stroke:#000000;stroke-width:0.5;stroke-miterlimit:10;" d="M139.518,297.831"/>
					
						<line style="opacity:0.7;fill:none;stroke:#000000;stroke-width:0.5;stroke-miterlimit:10;" x1="139.518" y1="166.178" x2="237.855" y2="166.178"/>
					
						<line style="opacity:0.7;fill:none;stroke:#000000;stroke-width:0.5;stroke-miterlimit:10;" x1="139.518" y1="172.937" x2="200.872" y2="172.937"/>
					
						<line style="opacity:0.7;fill:none;stroke:#000000;stroke-width:0.5;stroke-miterlimit:10;" x1="139.518" y1="179.696" x2="196.033" y2="179.696"/>
				</g>
				<g>
					
						<rect x="179.493" y="79.863" style="fill:#7696EA;stroke:#000000;stroke-width:0.5;stroke-miterlimit:10;" width="76.158" height="22.101"/>
				</g>
			</g>
		</g>
		<path style="fill:none;stroke:#222221;stroke-width:0.5;stroke-miterlimit:10;" d="M360.171,241.583
			c0.744,0.734,1.618,1.337,2.569,1.771"/>
		<g>
			
				<ellipse style="fill:#FFFFFF;stroke:#222221;stroke-width:0.5;stroke-miterlimit:10;" cx="261.604" cy="305.704" rx="25.89" ry="25.44"/>
			<g>
				<path style="fill:none;stroke:#050504;stroke-width:0.5;stroke-miterlimit:10;" d="M257.484,295.031
					c-1.741-1.609-1.644-4.428,0.203-5.909l0,0c1.74-1.395,1.944-4.008,0.442-5.667l-1.582-1.747
					c-1.43-1.579-1.323-4.044,0.237-5.489l0.998-0.924c1.672-1.549,1.655-4.236-0.037-5.763"/>
				<path style="fill:none;stroke:#050504;stroke-width:0.5;stroke-miterlimit:10;" d="M261.713,288.439
					c1.741-1.609,1.644-4.428-0.203-5.909l0,0c-1.74-1.395-1.944-4.008-0.443-5.667l1.582-1.747c1.43-1.579,1.323-4.044-0.237-5.489
					l-0.998-0.924c-1.672-1.549-1.655-4.236,0.037-5.763"/>
				<g>
					<g>
						<path style="fill:#F65E59;stroke:#000000;stroke-width:0.5;stroke-miterlimit:10;" d="M269.734,315.892
							c-0.68,0.358-1.383,0.545-2.12,0.323c-1.186-0.359,1.114-4.11,1.537-4.445c0.686-0.543,1.546-0.816,2.386-1.079
							c1.16-0.363,2.319-0.725,3.479-1.088c1.435-0.448,2.918-0.924,4.028-1.923c0.884-0.796,1.703-1.552,1.589-2.849
							c-0.087-0.992-0.768-1.912-1.702-2.299c-1.248-0.517-2.699-0.343-3.846,0.264c-0.144,0.076-2.18,1.389-2.064,1.461
							c-0.003-0.002-2.421-1.489-2.421-1.489c1.846-2.898,5.425-4.466,8.503-3.733c1.808,0.432,3.322,1.629,4.153,3.283
							c0.804,1.602,0.855,3.434,0.14,5.024c-1.085,2.411-3.521,3.956-5.962,4.802c-1.855,0.643-3.814,1.112-5.435,2.207
							C271.266,314.845,270.516,315.481,269.734,315.892z"/>
					</g>
					<path style="fill:#F65E59;stroke:#000000;stroke-width:0.5;stroke-miterlimit:10;" d="M261.654,320.381h-1.73
						c-6.683,0-12.101-5.418-12.101-12.101v-10.717h26.036v10.614C273.859,314.917,268.395,320.381,261.654,320.381z"/>
				</g>
			</g>
		</g>
		<g>
			
				<ellipse transform="matrix(0.7071 -0.7071 0.7071 0.7071 23.4012 185.1422)" style="fill:#FFFFFF;stroke:#222221;stroke-width:0.5;stroke-miterlimit:10;" cx="235.187" cy="64.323" rx="27.194" ry="27.194"/>
			<g>
				<g>
					
						<rect x="217.373" y="53.111" style="fill:#DEA600;stroke:#000000;stroke-width:0.5;stroke-miterlimit:10;" width="35.628" height="22.424"/>
					<path style="fill:none;stroke:#000000;stroke-width:0.5;stroke-miterlimit:10;" d="M253.001,53.111
						c0,0-16.515,10.151-17.814,11.212l-17.814-11.212"/>
				</g>
			</g>
		</g>
		<g>
			
				<ellipse transform="matrix(0.9168 -0.3994 0.3994 0.9168 -58.6643 37.7019)" style="fill:#FFFFFF;stroke:#222221;stroke-width:0.5;stroke-miterlimit:10;" cx="61.144" cy="159.633" rx="27.194" ry="27.194"/>
			<g>
				<path style="fill:#F65E59;stroke:#000000;stroke-width:0.5;stroke-miterlimit:10;" d="M73.658,152.38
					c0,6.911-12.514,27.019-12.514,27.019S48.63,159.291,48.63,152.38c0-6.911,5.603-12.514,12.514-12.514
					C68.055,139.866,73.658,145.469,73.658,152.38z"/>
				<path style="fill:#1C0C00;" d="M65.742,151.615c0,2.54-2.059,4.598-4.598,4.598c-2.54,0-4.598-2.059-4.598-4.598
					c0-2.539,2.059-4.598,4.598-4.598C63.684,147.017,65.742,149.076,65.742,151.615z"/>
			</g>
		</g>
		<g>
			<g>
				<path style="fill:#DEA600;stroke:#000000;stroke-width:0.5;stroke-miterlimit:10;" d="M196.193,302.337h-86.114
					c-1.27,0-2.299-1.029-2.299-2.299V182.651c0-1.27,1.029-2.299,2.299-2.299h86.114c1.27,0,2.299,1.029,2.299,2.299v117.387
					C198.492,301.308,197.463,302.337,196.193,302.337z"/>
				<g>
					
						<line style="fill:none;stroke:#000000;stroke-width:2;stroke-linecap:round;stroke-miterlimit:10;" x1="100.357" y1="197.992" x2="116.272" y2="197.992"/>
					
						<line style="fill:none;stroke:#000000;stroke-width:2;stroke-linecap:round;stroke-miterlimit:10;" x1="100.357" y1="215.884" x2="116.272" y2="215.884"/>
					
						<line style="fill:none;stroke:#000000;stroke-width:2;stroke-linecap:round;stroke-miterlimit:10;" x1="100.357" y1="233.776" x2="116.272" y2="233.776"/>
					
						<line style="fill:none;stroke:#000000;stroke-width:2;stroke-linecap:round;stroke-miterlimit:10;" x1="100.357" y1="251.669" x2="116.272" y2="251.669"/>
					
						<line style="fill:none;stroke:#000000;stroke-width:2;stroke-linecap:round;stroke-miterlimit:10;" x1="100.357" y1="269.561" x2="116.272" y2="269.561"/>
					
						<line style="fill:none;stroke:#000000;stroke-width:2;stroke-linecap:round;stroke-miterlimit:10;" x1="100.357" y1="287.453" x2="116.272" y2="287.453"/>
				</g>
			</g>
			
				<line style="fill:none;stroke:#050504;stroke-width:0.5;stroke-miterlimit:10;" x1="145.041" y1="201.947" x2="177.52" y2="201.947"/>
			
				<line style="fill:none;stroke:#050504;stroke-width:0.5;stroke-miterlimit:10;" x1="145.041" y1="233.015" x2="177.52" y2="233.015"/>
			
				<line style="fill:none;stroke:#050504;stroke-width:0.5;stroke-miterlimit:10;" x1="125.729" y1="248.548" x2="174.112" y2="248.548"/>
			
				<line style="fill:none;stroke:#050504;stroke-width:0.5;stroke-miterlimit:10;" x1="125.729" y1="216.186" x2="174.112" y2="216.186"/>
			<path style="fill:#F65E59;stroke:#000000;stroke-width:0.5;stroke-miterlimit:10;" d="M134.106,201.586
				c0,2.478-2.009,4.486-4.486,4.486s-4.486-2.009-4.486-4.486c0-2.478,2.009-4.487,4.486-4.487S134.106,199.108,134.106,201.586z"
				/>
			<path style="fill:#9DD1C9;stroke:#000000;stroke-width:0.5;stroke-miterlimit:10;" d="M188.632,217.12
				c0,2.478-2.009,4.486-4.486,4.486s-4.486-2.009-4.486-4.486s2.009-4.487,4.486-4.487S188.632,214.642,188.632,217.12z"/>
			<path style="fill:#12002C;" d="M134.106,232.654c0,2.478-2.009,4.486-4.486,4.486s-4.486-2.009-4.486-4.486
				c0-2.478,2.009-4.486,4.486-4.486S134.106,230.176,134.106,232.654z"/>
			<path style="fill:none;stroke:#050504;stroke-width:0.5;stroke-miterlimit:10;" d="M116.378,180.352h79.733
				c1.315,0,2.381,1.066,2.381,2.382v9.488"/>
			<path style="fill:#FFFFFF;stroke:#222221;stroke-width:0.5;stroke-miterlimit:10;" d="M190.904,248.188
				c0,2.478-2.009,4.486-4.486,4.486s-4.486-2.009-4.486-4.486c0-2.478,2.009-4.486,4.486-4.486S190.904,245.71,190.904,248.188z"/>
		</g>
		<g>
			<g>
				<g>
					<path d="M374.385,189.315c0.638-1.525,1.656-2.88,2.919-3.945c1.099-0.926,2.383-1.632,3.762-2.038
						c2.756-0.81,6.195-0.462,8.583,1.231c4.511,3.199,6.482,10.64,10.264,14.869c0.636,0.712,1.321,1.451,1.526,2.384
						c0.285,1.297-0.47,2.646-1.531,3.443c-1.061,0.798-2.381,1.155-3.669,1.477c-2.602,0.651-5.222,1.23-7.842,1.808
						c-4.316,0.953-8.827,1.905-13.107,0.799c-1.07-0.277-2.15-0.707-2.89-1.529C369.504,204.598,372.937,192.778,374.385,189.315z"
						/>
					<path style="fill:#FFFFFF;stroke:#222221;stroke-width:0.5;stroke-miterlimit:10;" d="M354.385,397.733
						c1.881,15.287,4.135,30.569,6.393,46.023c5.094-0.256,6.9-4.574,7.717-9.897c1.723-11.23,2.659-23.747,3.531-36.126H354.385z"
						/>
					<path style="fill:#FFFFFF;stroke:#222221;stroke-width:0.5;stroke-miterlimit:10;" d="M424.382,408.459
						c-1.625-9.94-3.646-19.813-5.469-29.719h-21.26c0.803,2.453,1.603,4.906,2.423,7.353c5.659,16.874,11.165,35.831,19.208,51.711
						c1.13,2.232,2.085,2.093,5.226,1.307c3.384-0.847,3.213-1.807,2.831-4.355C426.132,426.679,425.7,416.518,424.382,408.459z"/>
					<path style="fill:#DEA600;stroke:#000000;stroke-width:0.5;stroke-miterlimit:10;" d="M417.472,319.32
						c0.88,5.483,1.614,11.009,2.297,16.538c3.674,29.761,6.742,59.596,9.201,89.482c-6.882-0.694-13.915,0.159-20.432,2.479
						c-8.119-22.013-14.002-44.885-19.716-67.74c-4.583-17.241-9.607-34.147-9.743-52.199c0.311,41.135,0.021,82.366-4.503,123.253
						c-6.594-2.622-13.889-3.454-20.904-2.384c-1.412,0.216-7.371-74.914-7.517-82.037c-0.55-26.932,0.703-55.927,9.752-81.529
						c1.372-3.882,3.239-7.71,6.247-10.35c2.481-2.177,6.011-3.55,9.769-4.153c5.286-0.848,11.021-0.172,14.919,1.93
						c4.49,2.422,8.025,6.472,10.96,10.82C409.23,280.356,414.301,299.567,417.472,319.32z"/>
					<path style="fill:#FFFFFF;stroke:#222221;stroke-width:0.5;stroke-miterlimit:10;" d="M338.667,234.696
						c0.887,0.043,1.773,0.074,2.659,0.092c4.597,0.097,9.251-0.116,13.672-1.378c3.11-0.888,6.105-2.322,8.608-4.388
						c2.417-1.995,2.989-4.075,3.481-7.116c0.302-1.862,0.333-3.808-0.27-5.595c-2.194-6.498-9.444-3.995-14.202-2.401
						c-4.63,1.551-9.395,2.7-14.224,3.429c-8.563,1.292-17.505-1.316-25.203-4.929c-4.943-2.32-9.703-5.047-14.07-8.333
						c-3.174-2.389-5.237-7.176-9.316-7.967c-1.604-0.311-3.257-0.174-4.885-0.03c-1.256,0.111-2.54,0.233-3.683,0.764
						c-2.007,0.932-3.134,3.379-0.698,4.617c2.194,1.115,5.439,0.08,7.821,0.609c0.297,0.066,0.618,0.164,0.786,0.419
						c0.272,0.411-0.045,1.003-0.498,1.197c-1.287,0.549-2.605-0.714-3.78-1.011c-0.978-0.251-1.732,0.022-1.577,1.095
						c0.17,1.176,1.528,1.512,2.401,1.869c2.681,1.097,4.734,3.159,6.728,5.194c7.818,7.978,16.242,15.797,26.607,19.959
						C325.249,233.29,331.954,234.368,338.667,234.696z"/>
					<path style="fill:#522E97;" d="M379.185,207.397c0.013,0.117,0,0.236-0.029,0.35c-0.066-0.032-0.134-0.06-0.203-0.087
						L379.185,207.397z"/>
					<path style="fill:#7696EA;stroke:#000000;stroke-width:0.5;stroke-miterlimit:10;" d="M402.515,253.299
						c-0.114-4.725-0.228-9.45-0.359-14.175c-0.092-3.341-0.193-6.683-0.308-10.024c-0.319-9.294-0.622-18.964-11.197-21.365
						c-14.248-3.235-30.331-0.93-43.691,4.762c0.974,2.12,4.489,21.376,4.929,24.433c1.915,0.366,6.455-1.011,7.826-1.286
						c-0.369,0.004-0.528,0.463-0.585,0.828c-1.309,8.376-2.619,16.751-3.928,25.127c-0.009,0.057,18.058,1.367,19.731,1.381
						c7.094,0.06,14.185-0.361,21.249-0.995c2.261-0.203,4.474-0.533,6.71-0.904C402.445,258.789,402.529,253.856,402.515,253.299z"
						/>
					<path style="fill:#FFFFFF;stroke:#222221;stroke-width:0.5;stroke-miterlimit:10;" d="M378.338,204.57
						c0.04-0.352,0.071-0.7,0.088-1.045c0.027-0.531,0.032-1.095-0.238-1.552c-0.288-0.487-0.827-0.754-1.283-1.09
						c-1.574-1.158-1.899-3.135-2.11-4.956c-0.236-2.039-0.044-4.155,0.507-6.13c0.604-2.167,1.794-4.308,3.662-5.629
						c1.556-1.1,3.516-1.446,5.273-0.611c1.016,0.483,1.852,1.281,2.523,2.173c0.782,1.04,1.892,2.722,2.029,4.041
						c0.098,0.947,0.18,1.897,0.243,2.847c0.36,5.454,0.246,11.26-1.644,16.458c-0.869,2.391-2.392,5.453-5.029,6.286
						c-1.926,0.608-3.516-0.627-4.188-2.389C377.158,210.314,378.022,207.353,378.338,204.57z"/>
					<path d="M377.97,181.752c1.367-0.332,2.823-0.351,4.218-0.135c2.94,0.455,5.689,2.031,7.629,4.277
						c1.481,1.714,3.876,5.311,1.824,7.263c-0.614,0.584-2.561,1.827-3.322,1.328c-0.396-0.26-0.389-1.292-0.745-1.682
						c-0.507-0.561-1.581-0.528-1.941-1.18c-0.466-0.843-0.031-2.869-0.014-3.824c-1.13,0.198-1.416,1.875-2.503,2.243
						c-0.399,0.135-0.835,0.064-1.25-0.009c-3.128-0.548-6.255-1.097-9.382-1.645c-0.175-2.263,1.194-4.478,3.128-5.668
						C376.342,182.27,377.139,181.953,377.97,181.752z"/>
					<path style="fill:#FFFFFF;stroke:#222221;stroke-width:0.5;stroke-miterlimit:10;" d="M384.999,192.766
						c0.108-0.544,0.301-1.08,0.64-1.52c0.339-0.439,0.835-0.773,1.385-0.841c0.446-0.055,0.899,0.065,1.305,0.259
						c1.569,0.751,2.189,2.581,1.415,4.139c-0.288,0.579-0.949,1-1.574,1.117c-0.493,0.092-0.999,0.051-1.499,0.01"/>
					<path d="M377.645,201.081c1.005,0.254,2.021,0.29,3.045,0.244c-0.389,0.478-0.694,1.007-1.082,1.473
						c-0.437,0.525-0.965,0.929-1.251,1.558c0.021-0.445,0.045-0.888,0.025-1.334c-0.017-0.379-0.06-0.768-0.23-1.107
						c-0.238-0.473-0.695-0.796-1.163-1.043c-0.016-0.008-0.032-0.018-0.048-0.026C377.171,200.934,377.403,201.02,377.645,201.081z
						"/>
				</g>
				<path style="fill:#FFFFFF;stroke:#222221;stroke-width:0.5;stroke-miterlimit:10;" d="M422.612,240.259
					c-2.363-6.718-6.136-16.038-12.477-20.252c-2.969-1.973-6.5-2.826-10.712-1.77c-1.698,0.426-3.348,1.191-4.583,2.431
					c-2.833,2.843-1.271,4.869,0.067,7.899c1.471,3.33,3.099,6.591,4.877,9.768c2.06,3.682,3.497,7.566,5.537,11.291
					c-7.798,0.021-15.218-0.581-22.494-2.544c0.009,1.325-0.12,2.667-0.257,3.989c-0.076,0.73-0.158,1.46-0.215,2.193
					c-0.012,0.15-0.023,0.3-0.032,0.45c-0.001,0.03-0.003,0.062-0.003,0.089c-0.008,0.376,0,0.752-0.003,1.128
					c-0.002,0.286-0.01,0.572-0.015,0.858c0.235,0.082,0.469,0.163,0.704,0.245c5.237,1.824,10.484,3.65,15.878,4.936
					c4.262,1.016,8.694,1.691,13.019,0.989c7.121-1.155,12.246-6.149,12.367-13.523C424.318,245.639,423.54,242.896,422.612,240.259
					z"/>
				<path style="fill:#FFFFFF;stroke:#222221;stroke-width:0.5;stroke-miterlimit:10;" d="M387.875,192.126
					c-0.491,0.077-1.017,0.173-1.367,0.525c-0.422,0.426-0.458,1.089-0.468,1.688"/>
				<path d="M337.142,446.152c0.487-0.416,1.097-0.639,1.694-0.854c3.965-1.429,7.986-2.688,11.928-4.185
					c2.842-1.079,5.933-1.973,7.823-4.537c0.09-0.121,0.168-0.227,0.24-0.32c3.351,0.449,6.825,0.476,9.878-0.754
					c0.215,4.505,0.391,9.033-0.21,13.501c-0.023,0.168-0.057,0.355-0.196,0.453c-0.109,0.077-0.253,0.077-0.387,0.073
					c-0.066-0.002-0.132-0.003-0.197-0.005c-2.947-0.069-5.882,0.089-8.833,0.027c-3.045-0.065-6.088-0.224-9.134-0.224
					c-2.771,0-5.751,0.399-8.461,0.223C339.912,449.46,334.597,448.329,337.142,446.152z"/>
				<path d="M402.128,453.16c0.559-0.958,1.461-1.66,2.362-2.307c2.548-1.832,5.267-3.434,7.683-5.438
					c2.415-2.004,4.557-4.488,5.5-7.482c0.114-0.361,0.215-0.739,0.451-1.036c0.082-0.103,0.192-0.188,0.314-0.266
					c1.794,0.547,3.608,0.054,5.306-0.903c1.435-0.809,2.83-2.008,4.38-2.694c0.338,1.029,0.366,2.064,0.533,3.119
					c0.19,1.206,0.541,2.408,0.846,3.589c0.158,0.611,2.026,7.062,1.845,7.131c-0.247,0.095-0.495,0.19-0.743,0.284
					c-5.576,2.119-11.265,4.035-16.944,6.007c-2.618,0.909-5.304,2.264-7.922,2.985c-0.817,0.225-2.84,0.737-3.591,0.26
					C401.206,455.813,401.701,453.892,402.128,453.16z"/>
			</g>
			<g>
				<defs>
					<path id="SVGID_1_" d="M417.472,319.32c0.88,5.483,1.614,11.009,2.297,16.538c3.674,29.761,6.742,59.596,9.201,89.482
						c-6.882-0.694-13.915,0.159-20.432,2.479c-8.119-22.013-14.002-44.885-19.716-67.74c-4.583-17.241-9.607-34.147-9.743-52.199
						c0.311,41.135,0.021,82.366-4.503,123.253c-6.594-2.622-13.889-3.454-20.904-2.384c-1.412,0.216-7.371-74.914-7.517-82.037
						c-0.55-26.932,0.703-55.927,9.752-81.529c1.372-3.882,3.239-7.71,6.247-10.35c2.481-2.177,6.011-3.55,9.769-4.153
						c5.286-0.848,11.021-0.172,14.919,1.93c4.49,2.422,8.025,6.472,10.96,10.82C409.23,280.356,414.301,299.567,417.472,319.32z"/>
				</defs>
				<clipPath id="SVGID_00000007397201875107821080000006377151307694952089_">
					<use xlink:href="#SVGID_1_"  style="overflow:visible;"/>
				</clipPath>
				<g style="clip-path:url(#SVGID_00000007397201875107821080000006377151307694952089_);">
					<path d="M422.049,370.431c-3.247,2.101-6.528,4.23-9.183,7.041c-1.555,1.647-2.86,4.352-1.307,6.001
						c0.866,0.92,2.281,1.044,3.539,0.924c4.26-0.408,8.014-2.861,11.539-5.287c2.396-1.65,4.89-3.455,6.05-6.123
						C437.192,362.624,425.488,368.205,422.049,370.431z"/>
					<path d="M410.282,401.688c1.894-0.564,3.979-0.918,5.812-0.177c1.833,0.74,3.189,2.933,2.395,4.743
						c-0.387,0.884-1.188,1.512-2.001,2.031c-4.638,2.964-10.368,3.496-15.849,4.008c-2.139,0.2-4.443,0.374-6.29-0.722
						c-5.25-3.114-0.048-4.616,2.175-5.379C400.989,404.659,405.73,403.042,410.282,401.688z"/>
					<path d="M374,261.488c1.128-1.009,2.141-2.152,3.349-3.064c2.434-1.837,5.499-2.62,8.514-3.078
						c0.669-0.102,1.419-0.17,1.96,0.237c0.725,0.546,0.691,1.652,0.402,2.512c-0.649,1.928-2.157,3.432-3.703,4.755
						c-1.871,1.601-3.867,3.048-5.861,4.493c-1.415,1.025-2.829,2.051-4.244,3.076c-0.5,0.362-1.013,0.731-1.605,0.903
						c-0.938,0.272-1.945,0.014-2.858-0.333c-1.107-0.42-2.227-1.035-2.78-2.082C365.471,265.682,372.225,263.076,374,261.488z"/>
					<path d="M395.135,386.151c-2.95,2.133-10.95,2.336-6.848-2.956c2.826-3.645,5.668-10.257,9.718-12.563
						c1.848-1.052,4.711-0.844,5.517,1.123c0.629,1.534-0.291,3.227-1.178,4.627c-0.954,1.505-1.907,3.01-2.861,4.515
						C398.259,382.83,396.989,384.811,395.135,386.151z"/>
					<path d="M405.189,357.59c-0.073,1.046-0.049,2.3,0.828,2.874c0.58,0.379,1.348,0.307,2.007,0.092
						c3.679-1.2,4.936-5.708,5.355-9.554c0.221-2.027,0.366-4.063,0.434-6.101c0.136-4.072-3.022-10.186-6.988-5.478
						C404.213,342.525,405.467,353.596,405.189,357.59z"/>
					<path d="M383.99,336.799c2.692-2.279,6.175-4.436,9.54-3.379c0.775,0.243,1.534,0.69,1.915,1.407
						c1.025,1.929-1.147,3.963-3.057,5.025c-3.889,2.161-7.916,4.075-12.048,5.726c-1.13,0.452-2.306,0.89-3.522,0.851
						c-1.216-0.039-2.494-0.671-2.936-1.806C372.933,342.179,382.055,338.436,383.99,336.799z"/>
					<path d="M400.719,311.727c-2.452,1.028-4.32,4.025-2.985,6.289c1.208,2.05,4.144,2.265,6.518,1.837
						c2.838-0.511,5.572-1.579,8.447-1.815c3.798-0.311,13.678-4.202,6.043-7.952C415.898,308.691,403.518,310.553,400.719,311.727z
						"/>
					<path d="M391.927,299.727c-1.097,2.458-1.865,4.928-4.375,6.34c-0.374,0.21-0.781,0.392-1.21,0.393
						c-0.744,0.002-1.392-0.55-1.762-1.195c-0.771-1.346-0.579-3.052-0.023-4.5c0.556-1.448,1.437-2.75,2.043-4.177
						c0.863-2.033,1.144-4.258,1.714-6.391c0.4-1.497,1.244-3.202,2.787-3.347C396.907,286.305,392.867,297.619,391.927,299.727z"/>
					<path d="M405.046,292.001c-2.092,1.136-4.637,2.781-4.25,5.131c0.256,1.553,1.853,2.608,3.422,2.737
						c1.569,0.129,3.102-0.464,4.533-1.12c2.164-0.992,4.25-2.156,6.23-3.478c2.585-1.725,9.516-9.261,3.42-11.624
						C415.562,282.546,407.822,290.493,405.046,292.001z"/>
					<path d="M360.715,402.079c0.658-0.105,1.213-0.176,1.626-0.209c1.34-0.107,2.845,0.574,3.228,1.863
						c0.503,1.693-1.063,3.264-2.57,4.184c-1.9,1.161-19.537,7.202-18.789,1.641C344.728,405.708,355.717,402.881,360.715,402.079z"
						/>
					<path d="M352.685,381.428c-0.01,1.163,0.266,2.499,1.285,3.06c0.741,0.408,1.691,0.267,2.417-0.167
						c0.726-0.434,1.264-1.118,1.738-1.819c2.182-3.225,3.311-7.038,4.213-10.827c0.517-2.173,1.325-5.767-0.565-7.597
						c-2.278-2.206-3.377,0.256-4.248,2.422C355.692,371.056,352.728,376.436,352.685,381.428z"/>
					<path d="M374.691,382.409c-2.632,0.49-5.193,1.358-7.58,2.571c-1.419,0.721-2.959,1.89-2.847,3.477
						c0.064,0.904,0.694,1.696,1.473,2.159c1.913,1.137,4.345,0.48,6.462-0.205c1.312-0.425,2.624-0.849,3.935-1.274
						c2.193-0.71,4.509-1.502,5.974-3.282c1.234-1.501,1.888-4.811-0.501-5.448C380.061,379.993,376.416,382.088,374.691,382.409z"
						/>
					<path d="M353.106,336.836c-0.309-0.976-0.613-1.975-0.59-2.999c0.041-1.809,1.204-3.545,2.862-4.271
						c0.775-0.34,1.752-0.441,2.411,0.09c0.264,0.213,0.451,0.506,0.614,0.804c1.586,2.899,1.3,6.422,2.012,9.648
						c0.291,1.319,0.755,2.613,0.815,3.962c0.06,1.349-0.38,2.826-1.512,3.562C355.857,350.146,353.81,339.061,353.106,336.836z"/>
					<path d="M373.086,314.269c-0.072-0.017-0.144-0.035-0.216-0.052c-2.02-0.49-4.039-0.981-6.059-1.471
						c-1.057-0.257-2.139-0.515-3.222-0.404c-1.082,0.111-2.183,0.665-2.654,1.646c-0.438,0.912-0.257,2.003,0.099,2.951
						c0.243,0.647,0.582,1.288,1.141,1.695c0.459,0.335,1.025,0.481,1.576,0.62c2.564,0.649,17.309,7.422,15.232-0.885
						c-0.316-1.259-1.305-2.265-2.438-2.898C375.476,314.872,374.277,314.56,373.086,314.269z"/>
					<path d="M346.028,299.474c1.128-1.009,2.141-2.152,3.349-3.064c2.434-1.837,5.499-2.62,8.514-3.078
						c0.669-0.102,1.419-0.17,1.96,0.237c0.725,0.546,0.691,1.652,0.402,2.512c-0.648,1.928-2.157,3.432-3.702,4.755
						c-1.871,1.601-3.867,3.048-5.861,4.493c-1.415,1.025-2.829,2.051-4.244,3.076c-0.5,0.362-1.013,0.731-1.605,0.903
						c-0.938,0.272-1.945,0.014-2.858-0.333c-1.107-0.421-2.227-1.035-2.78-2.082C337.5,303.668,344.254,301.061,346.028,299.474z"
						/>
					<path d="M370.299,285.142c0.033-1.114,0.105-2.229,0.301-3.346c0.415-2.36,1.863-4.806,4.209-5.298
						c0.505-0.106,1.043-0.113,1.527,0.068c0.909,0.339,1.474,1.29,1.634,2.247s-0.012,1.934-0.169,2.891
						c-0.763,4.628-0.372,9.61-1.736,14.092c-0.837,2.749-4.829,4.946-6.624,1.575c-0.758-1.424-0.206-3.153,0.22-4.709
						C370.344,290.168,370.224,287.659,370.299,285.142z"/>
					<path d="M353.885,274.204c1.973-1.026,4.253-2.078,6.334-1.294c0.424,0.16,0.837,0.408,1.069,0.798
						c0.401,0.675,0.146,1.548-0.23,2.236c-1.025,1.876-2.847,3.216-4.811,4.059c-1.965,0.843-4.087,1.239-6.189,1.629
						c-1.14,0.212-2.372,0.412-3.415-0.095C341.699,279.135,352.482,274.934,353.885,274.204z"/>
					<path d="M393.841,272.311c-0.697,0.146-1.374,0.36-1.999,0.702c-1.111,0.607-2.062,1.894-1.617,3.079
						c0.435,1.158,1.883,1.514,3.117,1.597c3.822,0.258,7.901,0.425,11.704,0.202c2.18-0.128,7.247,0.034,4.314-3.383
						c-3.027-3.528-9.357-2.903-13.41-2.492C395.247,272.087,394.534,272.166,393.841,272.311z"/>
					<path d="M375.175,417.849c-2.875,1.876-6.643,1.875-9.596,3.626c-0.344,0.204-0.687,0.444-0.873,0.798
						c-0.338,0.644-0.025,1.479,0.535,1.943c0.56,0.464,1.302,0.634,2.021,0.741c5.246,0.784,10.826-1.189,14.414-5.096
						c0.492-0.536,0.968-1.153,1.025-1.878c0.066-0.845-0.461-1.631-1.093-2.196C378.934,413.392,377.539,416.307,375.175,417.849z"
						/>
					<path d="M423.368,414.673c-1.43,0.945-3.057,1.753-3.952,3.214c-0.895,1.462-0.531,3.848,1.13,4.272
						c0.95,0.242,1.922-0.235,2.773-0.722c2.537-1.453,4.945-3.134,7.184-5.014c0.576-0.484,1.145-0.984,1.607-1.578
						c1.514-1.944,2.09-6.319-1.347-6.334C428.062,408.499,425.553,413.228,423.368,414.673z"/>
				</g>
			</g>
			<path style="fill:#7696EA;stroke:#000000;stroke-width:0.5;stroke-miterlimit:10;" d="M396.372,239.62
				c7.92-3.54,15.452-7.949,22.416-13.122c-6.254-11.001-18.341-18.453-30.979-19.098"/>
			<path style="fill:#FFFFFF;stroke:#222221;stroke-width:0.5;stroke-miterlimit:10;" d="M376.25,196.849
				c1.084,0.845,2.739,0.858,3.836,0.031"/>
			<path style="fill:#F65E59;stroke:#000000;stroke-width:0.5;stroke-miterlimit:10;" d="M403.431,265.474
				c-7.77,3.453-20.719,3.453-28.317-0.173l-4.317-32.46h35.568L403.431,265.474z"/>
			<path style="fill:#FFFFFF;stroke:#222221;stroke-width:0.5;stroke-miterlimit:10;" d="M405.322,249.626
				c-5.817,0.016-11.654-0.314-17.381-1.379c-5.85-1.087-11.539-2.947-16.36-6.542c-0.22-0.164-0.567-0.32-0.732-0.1
				c-0.054,0.073-0.067,0.168-0.073,0.258c-0.055,0.794,0.265,1.605,0.846,2.149c-0.491-0.185-0.997-0.373-1.522-0.36
				c-2.061,0.051-0.955,3.213-0.774,4.467c0.09,0.626,0.183,1.261,0.438,1.84c0.64,1.453,2.274,2.951,3.772,3.423
				c1.203,0.379,2.406,0.757,3.61,1.135c5.52,1.733,10.881,3.874,16.546,5.29c3.114,0.778,6.266,1.416,9.45,1.835
				c2.984,0.392,5.709,0.813,8.762,0.318"/>
			<path d="M406.56,232.604c0,2.861-8.063,5.18-18.009,5.18c-9.946,0-18.009-2.319-18.009-5.18c0-2.861,8.063-5.18,18.009-5.18
				C398.498,227.424,406.56,229.743,406.56,232.604z"/>
			<path style="fill:#FFFFFF;stroke:#222221;stroke-width:0.5;stroke-miterlimit:10;" d="M279.503,198.481
				c2.929-0.886,5.1-1.27,8.158-1.165"/>
			<path style="fill:#FFFFFF;stroke:#222221;stroke-width:0.5;stroke-miterlimit:10;" d="M279.18,199.776
				c2.627-0.831,5.018-1.311,7.77-1.165"/>
			<path style="fill:#FFFFFF;stroke:#222221;stroke-width:0.5;stroke-miterlimit:10;" d="M279.956,201.068
				c2.063-0.582,4.202-0.892,6.346-0.922"/>
			<g>
				<defs>
					<path id="SVGID_00000000180893151555045430000013551964250361064609_" d="M406.539,232.601
						c-0.083,0.677-0.479,1.338-1.298,1.952c-4.278,3.209-11.641,3.23-16.689,3.23c-5.086,0-11.917-0.1-16.358-3.01
						c-4.797-3.143,2.543-8.282,5.482-9.456c6.592-2.632,14.145-2.388,20.835-0.019
						C400.771,226.098,406.918,229.513,406.539,232.601z"/>
				</defs>
				<clipPath id="SVGID_00000121249570493449317100000006765200733547743153_">
					<use xlink:href="#SVGID_00000000180893151555045430000013551964250361064609_"  style="overflow:visible;"/>
				</clipPath>
				<g style="clip-path:url(#SVGID_00000121249570493449317100000006765200733547743153_);">
					<polyline style="fill:none;stroke:#9DD1C9;stroke-width:2;stroke-miterlimit:10;" points="375.46,228.913 381.158,236.683 
						389.446,225.546 					"/>
					<polyline style="fill:none;stroke:#9DD1C9;stroke-width:2;stroke-miterlimit:10;" points="383.198,232.936 391.105,238.443 
						395.34,225.222 					"/>
					<polyline style="fill:none;stroke:#9DD1C9;stroke-width:2;stroke-miterlimit:10;" points="391.303,227.353 393.664,236.694 
						405.529,229.488 					"/>
					<polyline style="fill:none;stroke:#9DD1C9;stroke-width:2;stroke-miterlimit:10;" points="380.202,229.392 387.562,235.61 
						393.009,222.841 					"/>
				</g>
			</g>
			<g>
				<polygon style="fill:#9DD1C9;" points="282.408,210.689 275.86,204.141 277.673,202.328 281.705,206.359 288.844,192.082 
					291.138,193.229 				"/>
			</g>
			<path style="fill:#FFFFFF;stroke:#222221;stroke-width:0.5;stroke-miterlimit:10;" d="M288.646,203.686
				c-1.287,0.549-2.605-0.713-3.78-1.011c-0.581-0.147-1.741-0.088-1.697,0.785c0.039,0.764,1.221,1.579,1.828,1.863
				c0.775,0.362,1.715,0.496,2.257,1.159"/>
			<path style="fill:none;stroke:#222221;stroke-width:0.5;stroke-miterlimit:10;" d="M404.809,249.615
				c2.174,0.314,4.369,0.482,6.565,0.501"/>
		</g>
		<g>
			<circle style="fill:#FFFFFF;stroke:#222221;stroke-width:0.5;stroke-miterlimit:10;" cx="65.254" cy="343.084" r="25.038"/>
			<g>
				<polygon style="fill:#9DD1C9;stroke:#000000;stroke-width:0.5;stroke-miterlimit:10;" points="48.019,335.332 81.626,334.951 
					63.623,357.232 55.954,344.885 52.5,349.2 52.307,340.222 				"/>
				<g>
					<defs>
						<polygon id="SVGID_00000165230497386384337380000006790240544014525341_" points="48.019,335.332 81.626,334.951 
							65.272,357.334 55.954,344.885 52.5,349.2 52.307,340.222 						"/>
					</defs>
					<clipPath id="SVGID_00000074402622965561748090000005603140584405083810_">
						<use xlink:href="#SVGID_00000165230497386384337380000006790240544014525341_"  style="overflow:visible;"/>
					</clipPath>
					<polygon style="clip-path:url(#SVGID_00000074402622965561748090000005603140584405083810_);" points="76.121,337.577 
						55.954,344.885 53.138,353.52 48.269,348.906 52.307,340.222 					"/>
				</g>
			</g>
		</g>
		<g>
			
				<line style="fill:none;stroke:#000000;stroke-width:0.75;stroke-miterlimit:10;" x1="189.086" y1="250.28" x2="243.358" y2="287.126"/>
			<path style="fill:#1C0C00;" d="M247.742,286.753c0.193,2.264-1.486,4.255-3.749,4.448c-2.264,0.193-4.255-1.486-4.448-3.749
				c-0.193-2.264,1.486-4.255,3.749-4.448C245.557,282.81,247.549,284.489,247.742,286.753z"/>
		</g>
		<g>
			
				<line style="fill:none;stroke:#000000;stroke-width:0.75;stroke-miterlimit:10;" x1="84.463" y1="173.333" x2="126.928" y2="198.481"/>
			<path style="fill:#1C0C00;" d="M88.461,176.057c-1.549,2.274-4.648,2.861-6.922,1.311c-2.274-1.549-2.861-4.648-1.312-6.922
				c1.549-2.273,4.648-2.861,6.922-1.312C89.423,170.684,90.01,173.783,88.461,176.057z"/>
		</g>
		<g>
			
				<line style="fill:none;stroke:#000000;stroke-width:0.75;stroke-miterlimit:10;" x1="72.086" y1="320.078" x2="129" y2="235.258"/>
			<path style="fill:#1C0C00;" d="M74.221,315.738c2.469,1.215,3.485,4.2,2.271,6.669c-1.215,2.469-4.2,3.485-6.669,2.271
				c-2.469-1.215-3.485-4.2-2.271-6.669C68.767,315.54,71.752,314.523,74.221,315.738z"/>
		</g>
		<g>
			
				<line style="fill:none;stroke:#000000;stroke-width:0.75;stroke-miterlimit:10;" x1="215.035" y1="82.5" x2="184.146" y2="217.12"/>
			<path style="fill:#1C0C00;" d="M215.081,86.921c-2.521,0.026-4.586-1.996-4.613-4.517c-0.027-2.521,1.996-4.586,4.517-4.613
				c2.521-0.026,4.586,1.996,4.613,4.517C219.625,84.829,217.602,86.894,215.081,86.921z"/>
		</g>
		<g>
			<polygon style="fill:#7696EA;stroke:#000000;stroke-width:0.5;stroke-miterlimit:10;" points="257,432.882 245.955,425.446 
				245.478,438.753 239.63,426.79 232.564,438.076 233.481,424.792 221.718,431.033 229.154,419.987 215.847,419.51 227.81,413.663 
				216.524,406.596 229.808,407.513 223.567,395.751 234.613,403.186 235.09,389.88 240.938,401.842 248.004,390.556 
				247.087,403.84 258.849,397.6 251.414,408.645 264.72,409.122 252.758,414.97 264.044,422.036 250.76,421.119 			"/>
			<g>
				<path style="fill:#050504;" d="M240.819,420.212v1.865h-1.785v-1.865H240.819z M240.779,408.24l-0.281,9.907h-1.123
					l-0.281-9.907H240.779z"/>
			</g>
		</g>
		<g>
			<polygon style="fill:#F65E59;stroke:#000000;stroke-width:0.5;stroke-miterlimit:10;" points="459.629,315.888 450.443,309.703 
				450.046,320.77 445.183,310.821 439.305,320.207 440.068,309.159 430.285,314.35 436.47,305.163 425.402,304.767 
				435.351,299.903 425.965,294.026 437.013,294.788 431.823,285.005 441.01,291.19 441.406,280.123 446.27,290.072 
				452.147,280.685 451.384,291.733 461.167,286.543 454.983,295.73 466.05,296.126 456.101,300.99 465.487,306.867 
				454.439,306.105 			"/>
			<g>
				<path style="fill:#050504;" d="M446.172,305.35v1.551h-1.484v-1.551H446.172z M446.138,295.393l-0.233,8.24h-0.934l-0.234-8.24
					H446.138z"/>
			</g>
		</g>
		<g>
			<g>
				<defs>
					<ellipse id="SVGID_00000019657680250872860220000003062497833880445828_" cx="372.438" cy="75.586" rx="35.142" ry="35.444"/>
				</defs>
				<use xlink:href="#SVGID_00000019657680250872860220000003062497833880445828_"  style="overflow:visible;fill:#DEA600;"/>
				<clipPath id="SVGID_00000049910685599809957100000001421085766980007841_">
					<use xlink:href="#SVGID_00000019657680250872860220000003062497833880445828_"  style="overflow:visible;"/>
				</clipPath>
				<g style="clip-path:url(#SVGID_00000049910685599809957100000001421085766980007841_);">
					<g>
						<g>
							<path style="fill:none;stroke:#12002C;stroke-width:0.5;stroke-miterlimit:10;" d="M372.439,110.34
								c-0.42,0-0.759-0.34-0.759-0.759V41.592c0-0.42,0.34-0.759,0.759-0.759c0.42,0,0.759,0.34,0.759,0.759v67.989
								C373.198,110,372.858,110.34,372.439,110.34z"/>
						</g>
					</g>
					<g>
						<g>
							<path style="fill:none;stroke:#12002C;stroke-width:0.5;stroke-miterlimit:10;" d="M389.436,105.786
								c-0.262,0-0.518-0.136-0.659-0.38l-33.994-58.88c-0.21-0.363-0.085-0.828,0.278-1.037c0.361-0.21,0.827-0.086,1.037,0.278
								l33.994,58.88c0.21,0.363,0.085,0.827-0.278,1.037C389.696,105.753,389.565,105.786,389.436,105.786z"/>
						</g>
					</g>
					<g>
						<g>
							<path style="fill:none;stroke:#12002C;stroke-width:0.5;stroke-miterlimit:10;" d="M401.878,93.343
								c-0.129,0-0.26-0.033-0.379-0.102l-58.88-33.994c-0.363-0.21-0.488-0.674-0.278-1.037c0.21-0.363,0.675-0.489,1.037-0.278
								l58.88,33.994c0.363,0.21,0.488,0.674,0.278,1.037C402.395,93.207,402.14,93.343,401.878,93.343z"/>
						</g>
					</g>
					<g>
						<g>
							<path style="fill:none;stroke:#12002C;stroke-width:0.5;stroke-miterlimit:10;" d="M406.433,76.346h-67.99
								c-0.42,0-0.759-0.34-0.759-0.759c0-0.42,0.34-0.759,0.759-0.759h67.99c0.42,0,0.759,0.34,0.759,0.759
								C407.192,76.006,406.853,76.346,406.433,76.346z"/>
						</g>
					</g>
					<g>
						<g>
							<path style="fill:none;stroke:#12002C;stroke-width:0.5;stroke-miterlimit:10;" d="M342.999,93.343
								c-0.263,0-0.518-0.136-0.658-0.38c-0.21-0.363-0.085-0.827,0.278-1.037l58.88-33.994c0.362-0.211,0.827-0.086,1.037,0.278
								c0.21,0.363,0.085,0.827-0.278,1.037l-58.88,33.994C343.259,93.311,343.128,93.343,342.999,93.343z"/>
						</g>
					</g>
					<g>
						<g>
							<path style="fill:none;stroke:#12002C;stroke-width:0.5;stroke-miterlimit:10;" d="M355.44,105.786
								c-0.129,0-0.259-0.033-0.379-0.102c-0.363-0.21-0.488-0.674-0.278-1.037l33.994-58.88c0.21-0.363,0.674-0.488,1.037-0.278
								c0.363,0.21,0.488,0.674,0.278,1.037l-33.994,58.88C355.958,105.649,355.703,105.786,355.44,105.786z"/>
						</g>
					</g>
				</g>
				
					<use xlink:href="#SVGID_00000019657680250872860220000003062497833880445828_"  style="overflow:visible;fill:none;stroke:#000000;stroke-width:0.5;stroke-miterlimit:10;"/>
			</g>
			<g>
				
					<ellipse transform="matrix(0.6897 -0.7241 0.7241 0.6897 60.8372 293.1371)" style="fill:#9DD1C9;stroke:#000000;stroke-width:0.5;stroke-miterlimit:10;" cx="372.438" cy="75.586" rx="29.322" ry="29.072"/>
			</g>
			<g>
				
					<ellipse transform="matrix(0.6898 -0.724 0.724 0.6898 60.8159 293.1066)" style="fill:#FFFFFF;stroke:#222221;stroke-width:0.5;stroke-miterlimit:10;" cx="372.438" cy="75.586" rx="19.633" ry="19.465"/>
			</g>
			<g>
				<path style="fill:#12002C;" d="M373.83,77.203c-1.045,1.097-2.773,1.146-3.861,0.111c-1.087-1.036-1.122-2.764-0.077-3.861
					c1.045-1.097,2.773-1.146,3.861-0.111C374.84,74.377,374.875,76.106,373.83,77.203z"/>
			</g>
			<g>
				<line style="fill:none;stroke:#12002C;stroke-miterlimit:10;" x1="385.699" y1="52.19" x2="372.438" y2="75.586"/>
				<polygon style="fill:#12002C;" points="382.768,52.74 386.524,50.908 386.707,54.938 				"/>
			</g>
			<g>
				<line style="fill:none;stroke:#12002C;stroke-miterlimit:10;" x1="392.392" y1="71.137" x2="372.438" y2="75.586"/>
				<polygon style="fill:#12002C;" points="390.091,69.268 394.441,70.876 391.348,74.114 				"/>
			</g>
		</g>
		<g>
			<g>
				<g>
					<path style="fill:#DEA600;stroke:#000000;stroke-width:0.5;stroke-miterlimit:10;" d="M202.436,392.628
						c7.665-3.81,16.312-11.77,8.077-20.681c-3.418-3.699-8.988-4.927-13.911-3.866c-4.923,1.062-9.225,4.142-12.607,7.875
						c-12.527,13.828-16.398,33.843-21.894,51.092c-0.552,1.732-1.239,3.512-1.555,5.285c0.756-0.141,5.092,0.225,5.334-0.18
						c4.709-7.868,9.701-15.606,15.666-22.587c4.423-5.177,9.707-11.358,15.851-14.452
						C199.113,394.25,200.793,393.444,202.436,392.628z"/>
					<path style="fill:#F65E59;stroke:#000000;stroke-width:0.5;stroke-miterlimit:10;" d="M149.822,424.267
						c1.523,2.529,2.598,5.236,3.838,7.945c0.412-0.186,4.002-0.255,4.034-0.059c-0.892-5.528-2.354-10.811-3.942-16.167
						c-1.507-5.081-3.224-10.134-5.799-14.785c-2.624-4.738-6.238-9.065-10.971-11.696c-11.368-6.319-31.897-2.661-37.421,10.195
						c-1.822,4.24-1.442,9.617,1.753,12.948c1.534,1.599,3.582,2.629,5.704,3.267c2.875,0.865,5.921,0.283,8.911,0.553
						c11.547,1.045,19.923-1.103,23.006-1.428c4.007-0.422,7.325,4.196,9.655,7.366
						C149.032,423.014,149.441,423.635,149.822,424.267z"/>
					<path style="fill:#9DD1C9;stroke:#000000;stroke-width:0.5;stroke-miterlimit:10;" d="M151.757,402.95
						c1.497,4.713,2.79,9.476,3.542,14.386c0.359,2.343,2.496,10.457,2.505,14.817h3.584c0.7-5.29,0.83-10.692,1.919-15.892
						c3.821-18.239,5.69-36.887,6.212-55.48c0.191-6.801,0.331-13.874-2.465-20.077c-2.796-6.203-9.457-11.229-16.115-9.829
						c-5.616,1.181-9.578,6.582-10.771,12.195c-1.28,6.022,0.273,11.966,0.873,17.922c0.67,6.652,1.678,13.086,3.42,19.557
						C146.51,388.154,149.388,395.49,151.757,402.95z"/>
					<path style="fill:none;stroke:#222221;stroke-width:0.5;stroke-miterlimit:10;" d="M162.842,432.153
						c8.44-16.853,16.792-34.49,30.426-47.867"/>
					<path style="fill:none;stroke:#222221;stroke-width:0.5;stroke-miterlimit:10;" d="M155.75,432.059
						c-3.339-11.748-9.131-21.672-20.007-26.79c-7.037-3.199-14.714-2.559-21.515-1.906"/>
					<path style="fill:none;stroke:#222221;stroke-width:0.5;stroke-miterlimit:10;" d="M154.867,358.066
						c3.972,24.699,4.264,49.373,4.666,74.259"/>
				</g>
			</g>
			<path d="M146.898,429.348c-2.654,3.025-4.276,6.979-4.276,11.32v0c0,9.494,7.696,17.19,17.19,17.19h0
				c9.494,0,17.19-7.696,17.19-17.19v0c0-4.341-1.622-8.295-4.276-11.32H146.898z"/>
		</g>
	</g>
</g>
</svg>
